SplineFontDB: 3.0
FontName: Chathura-Light
FullName: Chathura Light
FamilyName: Chathura
Weight: Light
Copyright: Copyright (c) 2015 by Aditya Fonts. All rights reserved.
Version: 1.00 2015
ItalicAngle: 0
UnderlinePosition: -613
UnderlineWidth: 20
Ascent: 800
Descent: 200
InvalidEm: 0
sfntRevision: 0x00010000
LayerCount: 2
Layer: 0 1 "Back" 1
Layer: 1 1 "Fore" 0
XUID: [1021 73 2087734359 7214598]
FSType: 0
OS2Version: 3
OS2_WeightWidthSlopeOnly: 0
OS2_UseTypoMetrics: 1
CreationTime: 1374624000
ModificationTime: 1440399888
PfmFamily: 17
TTFWeight: 200
TTFWidth: 5
LineGap: 0
VLineGap: 0
Panose: 2 0 6 0 0 0 0 0 0 0
OS2TypoAscent: 895
OS2TypoAOffset: 0
OS2TypoDescent: -310
OS2TypoDOffset: 0
OS2TypoLinegap: 448
OS2WinAscent: 895
OS2WinAOffset: 0
OS2WinDescent: 653
OS2WinDOffset: 0
HheadAscent: 895
HheadAOffset: 0
HheadDescent: -653
HheadDOffset: 0
OS2SubXSize: 700
OS2SubYSize: 650
OS2SubXOff: 0
OS2SubYOff: 200
OS2SupXSize: 700
OS2SupYSize: 650
OS2SupXOff: 0
OS2SupYOff: 500
OS2StrikeYSize: 50
OS2StrikeYPos: 250
OS2CapHeight: 0
OS2XHeight: 0
OS2Vendor: 'AAD '
OS2CodePages: 00000003.00000000
OS2UnicodeRanges: 80200003.00000000.00000000.00000000
Lookup: 4 0 0 "'akhn' Akhand in Telugu lookup 0" { "'akhn' Akhand in Telugu lookup 0 subtable"  } ['akhn' ('telu' <'dflt' > ) ]
Lookup: 4 0 0 "'blwf' Below Base Forms in Telugu lookup 1" { "'blwf' Below Base Forms in Telugu lookup 1 subtable"  } ['blwf' ('telu' <'dflt' > ) ]
Lookup: 4 0 0 "'blwf' Below Base Forms in Telugu lookup 2" { "'blwf' Below Base Forms in Telugu lookup 2 subtable"  } ['blwf' ('telu' <'dflt' > ) ]
Lookup: 4 0 0 "'blwf' Below Base Forms in Telugu lookup 3" { "'blwf' Below Base Forms in Telugu lookup 3 subtable"  } ['blwf' ('telu' <'dflt' > ) ]
Lookup: 4 0 0 "'abvs' Above Base Substitutions in Telugu lookup 4" { "'abvs' Above Base Substitutions in Telugu lookup 4 subtable"  } ['abvs' ('telu' <'dflt' > ) ]

StartChar: .notdef
Encoding: 65536 -1 0
Width: 800
GlyphClass: 2
Flags: W
LayerCount: 2
Back
Fore
SplineSet
700 700 m 1,0,-1
 700 0 l 1,1,-1
 100 0 l 1,2,-1
 100 700 l 1,3,-1
 700 700 l 1,0,-1
650 650 m 1,4,-1
 150 650 l 1,5,-1
 150 50 l 1,6,-1
 650 50 l 1,7,-1
 650 650 l 1,4,-1
EndSplineSet
EndChar

StartChar: exclam
Encoding: 33 33 4
Width: 160
GlyphClass: 2
Flags: W
LayerCount: 2
Back
Fore
SplineSet
62 144 m 1,0,-1
 62 145 l 1,1,-1
 62 154 l 2,2,3
 61 176 61 176 60.5 226 c 128,-1,4
 60 276 60 276 60 367 c 2,5,-1
 60 423 l 2,6,7
 60 425 60 425 59.5 428 c 128,-1,8
 59 431 59 431 59 433 c 0,9,10
 59 434 59 434 58 434 c 2,11,-1
 84 434 l 2,12,13
 83 434 83 434 83 433 c 0,14,15
 83 431 83 431 82.5 428 c 128,-1,16
 82 425 82 425 82 423 c 2,17,-1
 82 367 l 1,18,-1
 82 260 l 2,19,20
 82 216 82 216 81.5 189.5 c 128,-1,21
 81 163 81 163 80 154 c 0,22,23
 80 145 80 145 79 145 c 2,24,-1
 62 144 l 1,0,-1
82 1 m 0,25,26
 82 0 82 0 83 0 c 2,27,-1
 59 0 l 1,28,-1
 60 1 l 1,29,-1
 60 9 l 1,30,-1
 60 80 l 2,31,32
 60 82 60 82 59.5 85 c 128,-1,33
 59 88 59 88 59 90 c 0,34,35
 59 91 59 91 58 91 c 2,36,-1
 83 91 l 2,37,38
 82 91 82 91 82 90 c 0,39,40
 82 88 82 88 81.5 85 c 128,-1,41
 81 82 81 82 81 80 c 2,42,-1
 81 9 l 2,43,44
 81 7 81 7 81.5 5 c 128,-1,45
 82 3 82 3 82 1 c 0,25,26
EndSplineSet
EndChar

StartChar: quotedbl
Encoding: 34 34 5
Width: 218
GlyphClass: 2
Flags: W
LayerCount: 2
Back
Fore
SplineSet
150 328 m 2,0,1
 150 321 150 321 148.5 319.5 c 128,-1,2
 147 318 147 318 143 318 c 2,3,-1
 141 318 l 2,4,5
 139 318 139 318 137 319.5 c 128,-1,6
 135 321 135 321 135 328 c 2,7,-1
 132 444 l 2,8,9
 132 451 132 451 133.5 452.5 c 128,-1,10
 135 454 135 454 139 454 c 2,11,-1
 148 454 l 2,12,13
 150 454 150 454 151.5 452.5 c 128,-1,14
 153 451 153 451 153 444 c 2,15,-1
 150 328 l 2,0,1
74 328 m 2,16,17
 74 318 74 318 68 318 c 2,18,-1
 66 318 l 2,19,20
 63 318 63 318 61.5 319.5 c 128,-1,21
 60 321 60 321 60 328 c 2,22,-1
 55 444 l 2,23,24
 55 454 55 454 62 454 c 2,25,-1
 71 454 l 2,26,27
 75 454 75 454 76.5 452.5 c 128,-1,28
 78 451 78 451 78 444 c 2,29,-1
 74 328 l 2,16,17
EndSplineSet
EndChar

StartChar: numbersign
Encoding: 35 35 6
Width: 458
GlyphClass: 2
Flags: W
LayerCount: 2
Back
Fore
SplineSet
395 291 m 2,0,-1
 336 291 l 1,1,-1
 295 142 l 1,2,-1
 352 142 l 2,3,4
 361 142 361 142 361 134 c 2,5,-1
 361 124 l 2,6,7
 361 115 361 115 352 115 c 2,8,-1
 288 115 l 1,9,-1
 260 12 l 2,10,11
 255 0 255 0 249 0 c 2,12,-1
 243 0 l 2,13,14
 237 0 237 0 235 5 c 128,-1,15
 233 10 233 10 236 16 c 2,16,-1
 262 115 l 1,17,-1
 141 115 l 1,18,-1
 114 11 l 2,19,20
 112 7 112 7 109.5 3.5 c 128,-1,21
 107 0 107 0 103 0 c 2,22,-1
 95 0 l 2,23,24
 90 0 90 0 88.5 2.5 c 128,-1,25
 87 5 87 5 89 19 c 0,26,27
 92 33 92 33 98.5 55.5 c 128,-1,28
 105 78 105 78 115 115 c 1,29,-1
 63 115 l 2,30,31
 53 115 53 115 53 124 c 2,32,-1
 53 134 l 2,33,34
 53 142 53 142 63 142 c 2,35,-1
 122 142 l 1,36,-1
 163 291 l 1,37,-1
 106 291 l 2,38,39
 97 291 97 291 97 300 c 2,40,-1
 97 310 l 2,41,42
 97 319 97 319 106 319 c 2,43,-1
 170 319 l 1,44,-1
 198 424 l 2,45,46
 202 434 202 434 210 434 c 2,47,-1
 215 434 l 2,48,49
 221 434 221 434 223 428.5 c 128,-1,50
 225 423 225 423 223 420 c 2,51,-1
 196 319 l 1,52,-1
 317 319 l 1,53,-1
 345 424 l 2,54,55
 348 434 348 434 356 434 c 2,56,-1
 361 434 l 2,57,58
 366 434 366 434 367.5 432 c 128,-1,59
 369 430 369 430 369 422 c 2,60,-1
 369 416 l 1,61,-1
 343 319 l 1,62,-1
 395 319 l 2,63,64
 405 319 405 319 405 310 c 2,65,-1
 405 300 l 2,66,67
 405 291 405 291 395 291 c 2,0,-1
189 291 m 1,68,-1
 149 142 l 1,69,-1
 269 142 l 1,70,-1
 309 291 l 1,71,-1
 189 291 l 1,68,-1
EndSplineSet
EndChar

StartChar: dollar
Encoding: 36 36 7
Width: 335
GlyphClass: 2
Flags: W
LayerCount: 2
Back
Fore
SplineSet
188 -1 m 1,0,-1
 188 -56 l 2,1,2
 188 -67 188 -67 180 -67 c 2,3,-1
 172 -67 l 2,4,5
 164 -67 164 -67 164 -56 c 2,6,-1
 164 -1 l 1,7,-1
 145 -1 l 2,8,9
 107 -1 107 -1 85 23 c 128,-1,10
 63 47 63 47 63 94 c 2,11,-1
 63 117 l 2,12,13
 63 127 63 127 71 127 c 2,14,-1
 80 127 l 2,15,16
 88 127 88 127 88 117 c 2,17,-1
 88 94 l 2,18,19
 88 61 88 61 101 44.5 c 128,-1,20
 114 28 114 28 145 28 c 2,21,-1
 192 28 l 2,22,23
 221 28 221 28 235 45 c 128,-1,24
 249 62 249 62 249 94 c 2,25,-1
 249 142 l 2,26,27
 249 179 249 179 235.5 193 c 128,-1,28
 222 207 222 207 190 207 c 2,29,-1
 148 207 l 2,30,31
 106 207 106 207 84.5 225.5 c 128,-1,32
 63 244 63 244 63 295 c 2,33,-1
 63 342 l 2,34,35
 63 389 63 389 85 412.5 c 128,-1,36
 107 436 107 436 145 436 c 2,37,-1
 164 436 l 1,38,-1
 164 491 l 2,39,40
 164 501 164 501 172 501 c 2,41,-1
 180 501 l 2,42,43
 188 501 188 501 188 491 c 2,44,-1
 188 437 l 1,45,46
 272 429 272 429 272 342 c 2,47,-1
 272 321 l 2,48,49
 272 310 272 310 265 310 c 2,50,-1
 256 310 l 2,51,52
 249 310 249 310 249 321 c 2,53,-1
 249 342 l 2,54,55
 249 374 249 374 235 391 c 128,-1,56
 221 408 221 408 192 408 c 2,57,-1
 145 408 l 2,58,59
 116 408 116 408 102 391 c 128,-1,60
 88 374 88 374 88 342 c 2,61,-1
 88 295 l 2,62,63
 88 260 88 260 101.5 247 c 128,-1,64
 115 234 115 234 145 234 c 2,65,-1
 192 234 l 2,66,67
 272 234 272 234 272 143 c 2,68,-1
 272 94 l 2,69,70
 272 50 272 50 250.5 25.5 c 128,-1,71
 229 1 229 1 188 -1 c 1,0,-1
EndSplineSet
EndChar

StartChar: percent
Encoding: 37 37 8
Width: 479
GlyphClass: 2
Flags: W
LayerCount: 2
Back
Fore
SplineSet
133 234 m 2,0,-1
 123 234 l 2,1,2
 46 234 46 234 46 320 c 2,3,-1
 46 352 l 2,4,5
 46 437 46 437 123 437 c 2,6,-1
 133 437 l 2,7,8
 171 437 171 437 190 417 c 128,-1,9
 209 397 209 397 209 352 c 2,10,-1
 209 320 l 2,11,12
 209 234 209 234 133 234 c 2,0,-1
168 10 m 2,13,14
 167 8 167 8 162 3 c 0,15,16
 159 0 159 0 155 0 c 2,17,-1
 149 0 l 2,18,19
 141 0 141 0 141 6 c 128,-1,20
 141 12 141 12 143 16 c 2,21,-1
 313 425 l 2,22,23
 315 429 315 429 317 431 c 0,24,25
 320 434 320 434 325 434 c 2,26,-1
 330 434 l 2,27,28
 343 434 343 434 336 418 c 2,29,-1
 168 10 l 2,13,14
357 0 m 2,30,-1
 347 0 l 2,31,32
 270 0 270 0 270 86 c 2,33,-1
 270 118 l 2,34,35
 270 163 270 163 289 183 c 128,-1,36
 308 203 308 203 347 203 c 2,37,-1
 357 203 l 2,38,39
 395 203 395 203 414 183 c 128,-1,40
 433 163 433 163 433 118 c 2,41,-1
 433 86 l 2,42,43
 433 41 433 41 414 20.5 c 128,-1,44
 395 0 395 0 357 0 c 2,30,-1
182 351 m 2,45,46
 182 385 182 385 172 397.5 c 128,-1,47
 162 410 162 410 133 410 c 2,48,-1
 123 410 l 2,49,50
 94 410 94 410 83.5 397.5 c 128,-1,51
 73 385 73 385 73 351 c 2,52,-1
 73 320 l 2,53,54
 73 286 73 286 84.5 274.5 c 128,-1,55
 96 263 96 263 123 263 c 2,56,-1
 133 263 l 2,57,58
 162 263 162 263 172 274.5 c 128,-1,59
 182 286 182 286 182 320 c 2,60,-1
 182 351 l 2,45,46
406 117 m 2,61,62
 406 150 406 150 396 162.5 c 128,-1,63
 386 175 386 175 357 175 c 2,64,-1
 347 175 l 2,65,66
 318 175 318 175 307.5 163 c 128,-1,67
 297 151 297 151 297 117 c 2,68,-1
 297 87 l 2,69,70
 297 53 297 53 307.5 40 c 128,-1,71
 318 27 318 27 347 27 c 2,72,-1
 357 27 l 2,73,74
 386 27 386 27 396 40.5 c 128,-1,75
 406 54 406 54 406 87 c 2,76,-1
 406 117 l 2,61,62
EndSplineSet
EndChar

StartChar: ampersand
Encoding: 38 38 9
Width: 379
GlyphClass: 2
Flags: W
LayerCount: 2
Back
Fore
SplineSet
279 -1 m 1,0,-1
 260 23 l 1,1,2
 246 9 246 9 237 4.5 c 128,-1,3
 228 0 228 0 219 0 c 2,4,-1
 69 0 l 2,5,6
 50 0 50 0 33 17.5 c 128,-1,7
 16 35 16 35 16 66 c 2,8,-1
 16 187 l 2,9,10
 16 194 16 194 17 204.5 c 128,-1,11
 18 215 18 215 23 225.5 c 128,-1,12
 28 236 28 236 38 245 c 128,-1,13
 48 254 48 254 65 259 c 1,14,15
 53 259 53 259 46 265.5 c 128,-1,16
 39 272 39 272 35.5 280.5 c 128,-1,17
 32 289 32 289 31.5 297 c 128,-1,18
 31 305 31 305 31 307 c 2,19,-1
 31 373 l 2,20,21
 31 393 31 393 41 405.5 c 128,-1,22
 51 418 51 418 81 418 c 2,23,-1
 165 418 l 2,24,25
 188 418 188 418 196.5 411.5 c 128,-1,26
 205 405 205 405 206 379 c 2,27,-1
 208 290 l 2,28,29
 208 274 208 274 188 259 c 128,-1,30
 168 244 168 244 124 244 c 1,31,32
 137 228 137 228 149.5 212.5 c 128,-1,33
 162 197 162 197 176 180 c 128,-1,34
 190 163 190 163 206 142 c 128,-1,35
 222 121 222 121 243 94 c 1,36,-1
 243 162 l 1,37,-1
 271 162 l 1,38,-1
 271 60 l 1,39,-1
 317 -1 l 1,40,-1
 279 -1 l 1,0,-1
178 362 m 2,41,42
 178 373 178 373 174 382 c 128,-1,43
 170 391 170 391 153 391 c 2,44,-1
 85 391 l 2,45,46
 71 391 71 391 65 380.5 c 128,-1,47
 59 370 59 370 59 359 c 2,48,-1
 59 306 l 2,49,50
 59 287 59 287 68.5 281.5 c 128,-1,51
 78 276 78 276 89 276 c 2,52,-1
 153 276 l 2,53,54
 170 276 170 276 174 288 c 128,-1,55
 178 300 178 300 178 308 c 2,56,-1
 178 362 l 2,41,42
84 242 m 1,57,58
 61 236 61 236 52.5 220 c 128,-1,59
 44 204 44 204 44 180 c 2,60,-1
 44 66 l 2,61,62
 44 64 44 64 44.5 58 c 128,-1,63
 45 52 45 52 49 45 c 128,-1,64
 53 38 53 38 60 33 c 128,-1,65
 67 28 67 28 81 28 c 2,66,-1
 207 28 l 2,67,68
 216 28 216 28 223.5 32.5 c 128,-1,69
 231 37 231 37 241 48 c 1,70,71
 200 101 200 101 163 146.5 c 128,-1,72
 126 192 126 192 84 242 c 1,57,58
EndSplineSet
EndChar

StartChar: quotesingle
Encoding: 39 39 10
Width: 125
GlyphClass: 2
Flags: W
LayerCount: 2
Back
Fore
SplineSet
70 328 m 2,0,1
 70 321 70 321 68.5 319.5 c 128,-1,2
 67 318 67 318 63 318 c 2,3,-1
 61 318 l 2,4,5
 57 318 57 318 55.5 319.5 c 128,-1,6
 54 321 54 321 54 328 c 2,7,-1
 52 444 l 2,8,9
 52 451 52 451 53.5 452.5 c 128,-1,10
 55 454 55 454 58 454 c 2,11,-1
 68 454 l 2,12,13
 69 454 69 454 71 452.5 c 128,-1,14
 73 451 73 451 73 444 c 2,15,-1
 70 328 l 2,0,1
EndSplineSet
EndChar

StartChar: parenleft
Encoding: 40 40 11
Width: 187
GlyphClass: 2
Flags: W
LayerCount: 2
Back
Fore
SplineSet
121 -60 m 2,0,-1
 119 -60 l 2,1,2
 90 -60 90 -60 71.5 -40 c 128,-1,3
 53 -20 53 -20 53 25 c 2,4,-1
 53 339 l 2,5,6
 53 384 53 384 72 403.5 c 128,-1,7
 91 423 91 423 120 423 c 2,8,-1
 122 423 l 2,9,10
 123 423 123 423 125.5 421.5 c 128,-1,11
 128 420 128 420 128 418 c 2,12,-1
 128 411 l 2,13,14
 128 406 128 406 125.5 406 c 128,-1,15
 123 406 123 406 121 406 c 2,16,-1
 119 406 l 2,17,18
 93 406 93 406 82 387 c 128,-1,19
 71 368 71 368 71 337 c 2,20,-1
 71 26 l 2,21,22
 71 -4 71 -4 82 -22.5 c 128,-1,23
 93 -41 93 -41 119 -41 c 2,24,-1
 121 -41 l 2,25,26
 122 -41 122 -41 124.5 -42 c 128,-1,27
 127 -43 127 -43 127 -45 c 2,28,-1
 127 -51 l 2,29,30
 127 -56 127 -56 125 -58 c 128,-1,31
 123 -60 123 -60 121 -60 c 2,0,-1
EndSplineSet
EndChar

StartChar: parenright
Encoding: 41 41 12
Width: 187
GlyphClass: 2
Flags: W
LayerCount: 2
Back
Fore
SplineSet
127 25 m 2,0,1
 127 -20 127 -20 108.5 -40 c 128,-1,2
 90 -60 90 -60 61 -60 c 2,3,-1
 59 -60 l 2,4,5
 57 -60 57 -60 55 -58 c 128,-1,6
 53 -56 53 -56 53 -51 c 2,7,-1
 53 -45 l 2,8,9
 53 -43 53 -43 55.5 -42 c 128,-1,10
 58 -41 58 -41 59 -41 c 2,11,-1
 61 -41 l 2,12,13
 87 -41 87 -41 98 -22.5 c 128,-1,14
 109 -4 109 -4 109 26 c 2,15,-1
 109 337 l 2,16,17
 109 368 109 368 98 387 c 128,-1,18
 87 406 87 406 61 406 c 2,19,-1
 59 406 l 2,20,21
 57 406 57 406 54.5 406 c 128,-1,22
 52 406 52 406 52 411 c 2,23,-1
 52 418 l 2,24,25
 52 420 52 420 54.5 421.5 c 128,-1,26
 57 423 57 423 58 423 c 2,27,-1
 60 423 l 2,28,29
 89 423 89 423 108 403.5 c 128,-1,30
 127 384 127 384 127 339 c 2,31,-1
 127 25 l 2,0,1
EndSplineSet
EndChar

StartChar: asterisk
Encoding: 42 42 13
Width: 275
GlyphClass: 2
Flags: W
LayerCount: 2
Back
Fore
SplineSet
205 356 m 0,0,1
 197 351 197 351 187 348 c 128,-1,2
 177 345 177 345 151 337 c 1,3,4
 167 319 167 319 172 312 c 128,-1,5
 177 305 177 305 181 299 c 2,6,-1
 188 289 l 2,7,8
 190 283 190 283 185 276 c 2,9,-1
 178 272 l 2,10,11
 172 266 172 266 168 273 c 0,12,13
 162 283 162 283 156.5 293.5 c 128,-1,14
 151 304 151 304 141 328 c 1,15,16
 126 305 126 305 119.5 293 c 128,-1,17
 113 281 113 281 107 272 c 0,18,19
 103 268 103 268 99 269 c 2,20,-1
 97 270 l 1,21,-1
 95 272 l 2,22,23
 92 273 92 273 91 276 c 0,24,25
 86 279 86 279 86 283.5 c 128,-1,26
 86 288 86 288 87 289 c 2,27,-1
 99 307 l 2,28,29
 102 311 102 311 106.5 316 c 128,-1,30
 111 321 111 321 125 338 c 1,31,-1
 69 357 l 2,32,33
 61 359 61 359 65 368 c 0,34,35
 66 371 66 371 66.5 375 c 128,-1,36
 67 379 67 379 69 381 c 0,37,38
 71 385 71 385 77 384 c 2,39,-1
 95 376 l 1,40,-1
 104 373 l 2,41,42
 106 372 106 372 111 369 c 128,-1,43
 116 366 116 366 133 354 c 1,44,45
 128 383 128 383 127 394 c 128,-1,46
 126 405 126 405 126 414 c 2,47,-1
 126 424 l 2,48,49
 126 434 126 434 134 434 c 2,50,-1
 142 434 l 2,51,52
 150 434 150 434 150 424 c 2,53,-1
 150 414 l 2,54,55
 150 404 150 404 149.5 394 c 128,-1,56
 149 384 149 384 149 360 c 1,57,58
 169 371 169 371 179.5 375.5 c 128,-1,59
 190 380 190 380 200 383 c 0,60,61
 205 385 205 385 208 381 c 0,62,63
 208 379 208 379 209 378 c 2,64,-1
 209 377 l 1,65,-1
 210 369 l 2,66,67
 214 362 214 362 210.5 359 c 128,-1,68
 207 356 207 356 205 356 c 0,0,1
EndSplineSet
EndChar

StartChar: plus
Encoding: 43 43 14
Width: 365
GlyphClass: 2
Flags: W
LayerCount: 2
Back
Fore
SplineSet
175 71 m 1,0,-1
 171 82 l 1,1,-1
 171 203 l 1,2,-1
 58 203 l 2,3,4
 57 202 57 202 56 203 c 0,5,6
 55 203 55 203 51 207 c 0,7,8
 50 207 50 207 50 213 c 2,9,-1
 50 220 l 2,10,11
 50 223 50 223 52 227 c 0,12,13
 54 228 54 228 55 229 c 128,-1,14
 56 230 56 230 58 230 c 2,15,-1
 171 230 l 1,16,-1
 171 351 l 2,17,18
 171 356 171 356 174 361 c 0,19,20
 174 362 174 362 179 362 c 2,21,-1
 186 362 l 2,22,23
 189 362 189 362 193 360 c 0,24,25
 195 355 195 355 195 351 c 2,26,-1
 195 230 l 1,27,-1
 306 230 l 2,28,29
 315 230 315 230 315 220 c 2,30,-1
 315 213 l 2,31,32
 315 203 315 203 306 203 c 2,33,-1
 195 203 l 1,34,-1
 195 80 l 2,35,36
 195 76 195 76 193 73 c 0,37,38
 191 71 191 71 186 71 c 2,39,-1
 179 71 l 1,40,-1
 175 71 l 1,0,-1
EndSplineSet
EndChar

StartChar: comma
Encoding: 44 44 15
Width: 126
GlyphClass: 2
Flags: W
LayerCount: 2
Back
Fore
SplineSet
67 92 m 1,0,-1
 69 79 l 2,1,2
 72 42 72 42 68 10 c 0,3,4
 66 -7 66 -7 65 -20 c 128,-1,5
 64 -33 64 -33 63 -42 c 0,6,7
 63 -44 63 -44 63 -49 c 128,-1,8
 63 -54 63 -54 62 -57 c 0,9,10
 61 -59 61 -59 61 -63 c 256,11,12
 61 -67 61 -67 60 -68 c 2,13,-1
 58 -69 l 1,14,-1
 55 -68 l 2,15,16
 56 -68 56 -68 54 -66 c 2,17,-1
 54 -63 l 1,18,-1
 54 -60 l 1,19,-1
 52 82 l 2,20,21
 52 84 52 84 51.5 86.5 c 128,-1,22
 51 89 51 89 51 91 c 0,23,24
 51 92 51 92 50 92 c 2,25,-1
 67 92 l 1,0,-1
EndSplineSet
EndChar

StartChar: hyphen
Encoding: 45 45 16
Width: 231
GlyphClass: 2
Flags: W
LayerCount: 2
Back
Fore
SplineSet
40 141 m 1,0,-1
 40 174 l 2,1,2
 43 177 43 177 44.5 177.5 c 128,-1,3
 46 178 46 178 48 178 c 2,4,-1
 183 178 l 2,5,6
 188 178 188 178 190 175 c 2,7,-1
 191 173 l 1,8,-1
 191 138 l 2,9,10
 193 139 193 139 193 143 c 1,11,12
 190 141 190 141 189 139.5 c 128,-1,13
 188 138 188 138 183 138 c 2,14,-1
 48 138 l 2,15,16
 44 138 44 138 40 141 c 1,0,-1
EndSplineSet
EndChar

StartChar: period
Encoding: 46 46 17
Width: 126
GlyphClass: 2
Flags: W
LayerCount: 2
Back
Fore
SplineSet
64 0 m 2,0,-1
 44 0 l 1,1,-1
 44 1 l 2,2,3
 44 2 44 2 44.5 3.5 c 128,-1,4
 45 5 45 5 45 9 c 2,5,-1
 45 84 l 2,6,7
 45 87 45 87 44.5 89 c 128,-1,8
 44 91 44 91 44 92 c 2,9,-1
 44 93 l 1,10,-1
 64 93 l 2,11,12
 63 93 63 93 63 92 c 2,13,-1
 63 84 l 1,14,-1
 63 9 l 1,15,-1
 63 1 l 2,16,17
 63 0 63 0 64 0 c 2,0,-1
EndSplineSet
EndChar

StartChar: slash
Encoding: 47 47 18
Width: 248
GlyphClass: 2
Flags: W
LayerCount: 2
Back
Fore
SplineSet
65 -19 m 1,0,-1
 65 -20 l 1,1,2
 65 -20 65 -20 61 -26 c 0,3,4
 61 -27 61 -27 60 -27 c 2,5,-1
 56 -27 l 1,6,-1
 49 -27 l 2,7,8
 43 -27 43 -27 42 -24 c 0,9,10
 41 -23 41 -23 41 -20.5 c 128,-1,11
 41 -18 41 -18 43 -12 c 2,12,-1
 170 424 l 1,13,-1
 174 433 l 2,14,15
 175 434 175 434 179 434 c 2,16,-1
 187 434 l 2,17,18
 193 434 193 434 193 425 c 2,19,-1
 193 421 l 2,20,21
 194 421 194 421 194 423 c 2,22,-1
 65 -19 l 1,0,-1
EndSplineSet
EndChar

StartChar: zero
Encoding: 48 48 19
Width: 308
GlyphClass: 2
Flags: W
LayerCount: 2
Back
Fore
SplineSet
179 0 m 2,0,-1
 125 0 l 2,1,2
 91 0 91 0 70 23.5 c 128,-1,3
 49 47 49 47 49 88 c 2,4,-1
 49 317 l 2,5,6
 49 358 49 358 70 381 c 128,-1,7
 91 404 91 404 125 404 c 2,8,-1
 179 404 l 2,9,10
 214 404 214 404 234.5 381 c 128,-1,11
 255 358 255 358 255 317 c 2,12,-1
 255 88 l 2,13,14
 255 46 255 46 234.5 23 c 128,-1,15
 214 0 214 0 179 0 c 2,0,-1
234 316 m 2,16,17
 234 380 234 380 179 380 c 2,18,-1
 125 380 l 2,19,20
 98 380 98 380 84.5 363 c 128,-1,21
 71 346 71 346 71 316 c 2,22,-1
 71 89 l 2,23,24
 71 59 71 59 84.5 41.5 c 128,-1,25
 98 24 98 24 125 24 c 2,26,-1
 179 24 l 2,27,28
 207 24 207 24 220.5 41.5 c 128,-1,29
 234 59 234 59 234 89 c 2,30,-1
 234 316 l 2,16,17
EndSplineSet
EndChar

StartChar: one
Encoding: 49 49 20
Width: 184
GlyphClass: 2
Flags: W
LayerCount: 2
Back
Fore
SplineSet
122 0 m 1,0,-1
 115 0 l 2,1,2
 110 0 110 0 110 8 c 2,3,-1
 110 377 l 1,4,-1
 49 331 l 2,5,6
 47 330 47 330 42.5 328 c 128,-1,7
 38 326 38 326 38 336 c 2,8,-1
 38 340 l 2,9,10
 38 352 38 352 44 355 c 2,11,-1
 108 401 l 2,12,13
 111 404 111 404 116 404 c 2,14,-1
 122 404 l 1,15,-1
 124 402 l 2,16,17
 126 400 126 400 126 396 c 2,18,-1
 126 8 l 2,19,20
 126 4 126 4 124 2 c 2,21,-1
 122 0 l 1,0,-1
EndSplineSet
EndChar

StartChar: two
Encoding: 50 50 21
Width: 285
GlyphClass: 2
Flags: W
LayerCount: 2
Back
Fore
SplineSet
234 0 m 2,0,-1
 54 0 l 2,1,2
 47 0 47 0 47 8 c 2,3,-1
 47 61 l 2,4,5
 47 111 47 111 81 139 c 2,6,-1
 190 231 l 2,7,8
 204 243 204 243 211 258 c 128,-1,9
 218 273 218 273 218 293 c 2,10,-1
 218 318 l 2,11,12
 218 347 218 347 204.5 363.5 c 128,-1,13
 191 380 191 380 164 380 c 2,14,-1
 118 380 l 2,15,16
 92 380 92 380 78.5 363.5 c 128,-1,17
 65 347 65 347 65 318 c 2,18,-1
 65 290 l 2,19,20
 65 279 65 279 58 279 c 2,21,-1
 50 279 l 2,22,23
 48 279 48 279 46 280.5 c 128,-1,24
 44 282 44 282 44 290 c 2,25,-1
 44 318 l 2,26,27
 44 361 44 361 64.5 382.5 c 128,-1,28
 85 404 85 404 118 404 c 2,29,-1
 164 404 l 2,30,31
 198 404 198 404 218 382.5 c 128,-1,32
 238 361 238 361 238 318 c 2,33,-1
 238 292 l 2,34,35
 238 241 238 241 203 211 c 2,36,-1
 93 118 l 2,37,38
 81 107 81 107 74 93.5 c 128,-1,39
 67 80 67 80 67 63 c 2,40,-1
 67 24 l 1,41,-1
 234 24 l 2,42,43
 240 24 240 24 240 16 c 2,44,-1
 240 8 l 2,45,46
 240 0 240 0 234 0 c 2,0,-1
EndSplineSet
EndChar

StartChar: three
Encoding: 51 51 22
Width: 297
GlyphClass: 2
Flags: W
LayerCount: 2
Back
Fore
SplineSet
171 0 m 2,0,-1
 124 0 l 2,1,2
 89 0 89 0 69 21.5 c 128,-1,3
 49 43 49 43 49 86 c 2,4,-1
 49 116 l 2,5,6
 49 126 49 126 55 126 c 2,7,-1
 64 126 l 2,8,9
 70 126 70 126 70 116 c 2,10,-1
 70 86 l 2,11,12
 70 57 70 57 83.5 40.5 c 128,-1,13
 97 24 97 24 124 24 c 2,14,-1
 171 24 l 2,15,16
 197 24 197 24 210.5 40.5 c 128,-1,17
 224 57 224 57 224 86 c 2,18,-1
 224 130 l 2,19,20
 224 159 224 159 210.5 175 c 128,-1,21
 197 191 197 191 171 191 c 2,22,-1
 137 191 l 2,23,24
 130 191 130 191 130 200 c 2,25,-1
 130 207 l 2,26,27
 130 215 130 215 137 215 c 2,28,-1
 171 215 l 2,29,30
 197 215 197 215 210.5 231.5 c 128,-1,31
 224 248 224 248 224 277 c 2,32,-1
 224 318 l 2,33,34
 224 347 224 347 210.5 363.5 c 128,-1,35
 197 380 197 380 171 380 c 2,36,-1
 124 380 l 2,37,38
 97 380 97 380 83.5 363.5 c 128,-1,39
 70 347 70 347 70 318 c 2,40,-1
 70 295 l 2,41,42
 70 288 70 288 68.5 287 c 128,-1,43
 67 286 67 286 64 286 c 2,44,-1
 55 286 l 2,45,46
 52 286 52 286 50.5 287 c 128,-1,47
 49 288 49 288 49 295 c 2,48,-1
 49 318 l 2,49,50
 49 361 49 361 69 382.5 c 128,-1,51
 89 404 89 404 124 404 c 2,52,-1
 171 404 l 2,53,54
 205 404 205 404 225 382.5 c 128,-1,55
 245 361 245 361 245 318 c 2,56,-1
 245 277 l 2,57,58
 245 255 245 255 237.5 238 c 128,-1,59
 230 221 230 221 212 204 c 1,60,61
 230 187 230 187 237.5 170 c 128,-1,62
 245 153 245 153 245 131 c 2,63,-1
 245 86 l 2,64,65
 245 43 245 43 225 21.5 c 128,-1,66
 205 0 205 0 171 0 c 2,0,-1
EndSplineSet
EndChar

StartChar: four
Encoding: 52 52 23
Width: 313
GlyphClass: 2
Flags: W
LayerCount: 2
Back
Fore
SplineSet
37 99 m 1,0,-1
 37 100 l 1,1,-1
 38 105 l 2,2,3
 40 107 40 107 40 108.5 c 128,-1,4
 40 110 40 110 42 112 c 2,5,-1
 196 396 l 2,6,7
 200 404 200 404 209 404 c 2,8,-1
 225 404 l 2,9,10
 231 404 231 404 231 396 c 2,11,-1
 231 107 l 1,12,-1
 271 107 l 2,13,14
 279 107 279 107 279 99 c 2,15,-1
 279 92 l 2,16,17
 279 84 279 84 271 84 c 2,18,-1
 231 84 l 1,19,-1
 231 8 l 2,20,21
 231 0 231 0 225 0 c 2,22,-1
 217 0 l 2,23,24
 210 0 210 0 210 8 c 2,25,-1
 210 84 l 1,26,-1
 45 84 l 2,27,28
 37 84 37 84 37 92 c 2,29,-1
 37 99 l 1,0,-1
210 378 m 1,30,-1
 64 107 l 1,31,-1
 210 107 l 1,32,-1
 210 378 l 1,30,-1
EndSplineSet
EndChar

StartChar: five
Encoding: 53 53 24
Width: 284
GlyphClass: 2
Flags: W
LayerCount: 2
Back
Fore
SplineSet
164 0 m 2,0,-1
 122 0 l 2,1,2
 87 0 87 0 67 23 c 128,-1,3
 47 46 47 46 47 88 c 2,4,-1
 47 112 l 2,5,6
 47 119 47 119 48.5 120.5 c 128,-1,7
 50 122 50 122 53 122 c 2,8,-1
 61 122 l 2,9,10
 68 122 68 122 68 112 c 2,11,-1
 68 89 l 2,12,13
 68 59 68 59 81.5 41.5 c 128,-1,14
 95 24 95 24 122 24 c 2,15,-1
 164 24 l 2,16,17
 191 24 191 24 204.5 41.5 c 128,-1,18
 218 59 218 59 218 89 c 2,19,-1
 218 166 l 2,20,21
 218 229 218 229 164 229 c 2,22,-1
 112 229 l 2,23,24
 87 229 87 229 77 213 c 0,25,26
 75 210 75 210 73 207 c 128,-1,27
 71 204 71 204 69 199 c 0,28,29
 67 197 67 197 63 197 c 2,30,-1
 53 197 l 2,31,32
 47 197 47 197 47 205 c 2,33,-1
 47 396 l 2,34,35
 47 404 47 404 53 404 c 2,36,-1
 226 404 l 2,37,38
 233 404 233 404 233 396 c 2,39,-1
 233 389 l 2,40,41
 233 383 233 383 231.5 381.5 c 128,-1,42
 230 380 230 380 226 380 c 2,43,-1
 68 380 l 1,44,-1
 68 237 l 1,45,46
 86 248 86 248 95 250.5 c 128,-1,47
 104 253 104 253 112 253 c 2,48,-1
 164 253 l 2,49,50
 198 253 198 253 218.5 232 c 128,-1,51
 239 211 239 211 239 166 c 2,52,-1
 239 88 l 2,53,54
 239 46 239 46 218.5 23 c 128,-1,55
 198 0 198 0 164 0 c 2,0,-1
EndSplineSet
EndChar

StartChar: six
Encoding: 54 54 25
Width: 291
GlyphClass: 2
Flags: W
LayerCount: 2
Back
Fore
SplineSet
169 0 m 2,0,-1
 120 0 l 2,1,2
 86 0 86 0 65.5 23 c 128,-1,3
 45 46 45 46 45 88 c 2,4,-1
 45 317 l 2,5,6
 45 358 45 358 65.5 381 c 128,-1,7
 86 404 86 404 120 404 c 2,8,-1
 221 404 l 2,9,10
 229 404 229 404 229 396 c 2,11,-1
 229 389 l 2,12,13
 229 380 229 380 221 380 c 2,14,-1
 120 380 l 2,15,16
 93 380 93 380 79.5 363 c 128,-1,17
 66 346 66 346 66 316 c 2,18,-1
 66 241 l 1,19,-1
 169 241 l 2,20,21
 204 241 204 241 224.5 217.5 c 128,-1,22
 245 194 245 194 245 153 c 2,23,-1
 245 88 l 2,24,25
 245 46 245 46 224.5 23 c 128,-1,26
 204 0 204 0 169 0 c 2,0,-1
224 152 m 2,27,28
 224 182 224 182 210.5 198.5 c 128,-1,29
 197 215 197 215 169 215 c 2,30,-1
 66 215 l 1,31,-1
 66 89 l 2,32,33
 66 59 66 59 79.5 41.5 c 128,-1,34
 93 24 93 24 120 24 c 2,35,-1
 169 24 l 2,36,37
 197 24 197 24 210.5 41.5 c 128,-1,38
 224 59 224 59 224 89 c 2,39,-1
 224 152 l 2,27,28
EndSplineSet
EndChar

StartChar: seven
Encoding: 55 55 26
Width: 223
GlyphClass: 2
Flags: W
LayerCount: 2
Back
Fore
SplineSet
201 381 m 2,0,-1
 82 9 l 2,1,2
 80 3 80 3 77.5 1.5 c 128,-1,3
 75 0 75 0 73 0 c 2,4,-1
 67 0 l 2,5,6
 62 0 62 0 62 9 c 2,7,-1
 62 15 l 1,8,-1
 179 380 l 1,9,-1
 27 380 l 2,10,11
 23 380 23 380 21.5 381.5 c 128,-1,12
 20 383 20 383 20 389 c 2,13,-1
 20 396 l 2,14,15
 20 404 20 404 27 404 c 2,16,-1
 195 404 l 2,17,18
 203 404 203 404 203 396 c 2,19,-1
 203 390 l 2,20,21
 203 385 203 385 201 381 c 2,0,-1
EndSplineSet
EndChar

StartChar: eight
Encoding: 56 56 27
Width: 297
GlyphClass: 2
Flags: W
LayerCount: 2
Back
Fore
SplineSet
176 0 m 2,0,-1
 118 0 l 2,1,2
 83 0 83 0 62.5 21 c 128,-1,3
 42 42 42 42 42 86 c 2,4,-1
 42 131 l 2,5,6
 42 151 42 151 49.5 168 c 128,-1,7
 57 185 57 185 75 204 c 1,8,9
 57 221 57 221 49.5 238.5 c 128,-1,10
 42 256 42 256 42 277 c 2,11,-1
 42 318 l 2,12,13
 42 362 42 362 62.5 383 c 128,-1,14
 83 404 83 404 118 404 c 2,15,-1
 176 404 l 2,16,17
 211 404 211 404 231 382.5 c 128,-1,18
 251 361 251 361 251 318 c 2,19,-1
 251 277 l 2,20,21
 251 255 251 255 244 238 c 128,-1,22
 237 221 237 221 219 204 c 1,23,24
 237 185 237 185 244 168 c 128,-1,25
 251 151 251 151 251 131 c 2,26,-1
 251 86 l 2,27,28
 251 43 251 43 231 21.5 c 128,-1,29
 211 0 211 0 176 0 c 2,0,-1
230 318 m 2,30,31
 230 347 230 347 216.5 363.5 c 128,-1,32
 203 380 203 380 176 380 c 2,33,-1
 118 380 l 2,34,35
 91 380 91 380 77.5 363.5 c 128,-1,36
 64 347 64 347 64 318 c 2,37,-1
 64 277 l 2,38,39
 64 248 64 248 77.5 231.5 c 128,-1,40
 91 215 91 215 118 215 c 2,41,-1
 176 215 l 2,42,43
 203 215 203 215 216.5 231.5 c 128,-1,44
 230 248 230 248 230 277 c 2,45,-1
 230 318 l 2,30,31
230 130 m 2,46,47
 230 159 230 159 216.5 175 c 128,-1,48
 203 191 203 191 176 191 c 2,49,-1
 118 191 l 2,50,51
 91 191 91 191 77.5 175 c 128,-1,52
 64 159 64 159 64 130 c 2,53,-1
 64 86 l 2,54,55
 64 57 64 57 77.5 40.5 c 128,-1,56
 91 24 91 24 118 24 c 2,57,-1
 176 24 l 2,58,59
 203 24 203 24 216.5 40.5 c 128,-1,60
 230 57 230 57 230 86 c 2,61,-1
 230 130 l 2,46,47
EndSplineSet
EndChar

StartChar: nine
Encoding: 57 57 28
Width: 284
GlyphClass: 2
Flags: W
LayerCount: 2
Back
Fore
SplineSet
167 0 m 2,0,-1
 66 0 l 2,1,2
 59 0 59 0 59 8 c 2,3,-1
 59 16 l 2,4,5
 59 24 59 24 66 24 c 2,6,-1
 167 24 l 2,7,8
 194 24 194 24 207.5 41.5 c 128,-1,9
 221 59 221 59 221 89 c 2,10,-1
 221 163 l 1,11,-1
 117 163 l 2,12,13
 83 163 83 163 62.5 186.5 c 128,-1,14
 42 210 42 210 42 251 c 2,15,-1
 42 317 l 2,16,17
 42 358 42 358 62.5 381 c 128,-1,18
 83 404 83 404 117 404 c 2,19,-1
 167 404 l 2,20,21
 201 404 201 404 222 381 c 128,-1,22
 243 358 243 358 243 317 c 2,23,-1
 243 88 l 2,24,25
 243 47 243 47 222 23.5 c 128,-1,26
 201 0 201 0 167 0 c 2,0,-1
221 316 m 2,27,28
 221 346 221 346 207.5 363 c 128,-1,29
 194 380 194 380 167 380 c 2,30,-1
 117 380 l 2,31,32
 90 380 90 380 76.5 363 c 128,-1,33
 63 346 63 346 63 316 c 2,34,-1
 63 252 l 2,35,36
 63 222 63 222 76.5 205.5 c 128,-1,37
 90 189 90 189 117 189 c 2,38,-1
 221 189 l 1,39,-1
 221 316 l 2,27,28
EndSplineSet
EndChar

StartChar: colon
Encoding: 58 58 29
Width: 110
GlyphClass: 2
Flags: W
LayerCount: 2
Back
Fore
SplineSet
60 344 m 1,0,-1
 60 343 l 2,1,2
 63 340 63 340 63 333 c 2,3,-1
 63 275 l 2,4,5
 63 271 63 271 62.5 270 c 128,-1,6
 62 269 62 269 61 267 c 2,7,-1
 59 265 l 1,8,-1
 48 265 l 2,9,10
 47 265 47 265 47 266 c 0,11,12
 45 270 45 270 45 275 c 2,13,-1
 45 333 l 2,14,15
 45 340 45 340 48 343 c 2,16,-1
 48 344 l 1,17,-1
 60 344 l 1,0,-1
47 84 m 1,18,-1
 60 84 l 1,19,-1
 64 80 l 1,20,-1
 63 80 l 1,21,-1
 63 73 l 1,22,-1
 63 10 l 2,23,24
 63 6 63 6 60 0 c 1,25,-1
 48 0 l 1,26,-1
 45 4 l 1,27,-1
 45 10 l 1,28,-1
 45 73 l 2,29,30
 45 74 45 74 47 84 c 1,18,-1
EndSplineSet
EndChar

StartChar: semicolon
Encoding: 59 59 30
Width: 109
GlyphClass: 2
Flags: W
LayerCount: 2
Back
Fore
SplineSet
60 344 m 1,0,-1
 60 343 l 2,1,2
 63 340 63 340 63 333 c 2,3,-1
 63 277 l 2,4,5
 63 270 63 270 61 268 c 2,6,-1
 59 265 l 1,7,-1
 48 265 l 1,8,-1
 46 269 l 2,9,10
 45 270 45 270 45 277 c 2,11,-1
 45 333 l 2,12,13
 45 340 45 340 48 343 c 2,14,-1
 48 344 l 1,15,-1
 60 344 l 1,0,-1
61 75 m 1,16,-1
 63 64 l 2,17,18
 65 47 65 47 64.5 32 c 128,-1,19
 64 17 64 17 62 3 c 0,20,21
 60 -14 60 -14 59 -25 c 128,-1,22
 58 -36 58 -36 57 -45 c 2,23,-1
 56 -58 l 1,24,-1
 56 -59 l 1,25,-1
 55 -60 l 1,26,-1
 55 -64 l 2,27,28
 55 -67 55 -67 54 -68 c 2,29,-1
 52 -69 l 1,30,-1
 49 -68 l 2,31,32
 47 -68 47 -68 47.5 -65.5 c 128,-1,33
 48 -63 48 -63 48 -61 c 2,34,-1
 46 67 l 2,35,36
 46 69 46 69 45.5 71 c 128,-1,37
 45 73 45 73 45 75 c 2,38,-1
 61 75 l 1,16,-1
EndSplineSet
EndChar

StartChar: less
Encoding: 60 60 31
Width: 353
GlyphClass: 2
Flags: W
LayerCount: 2
Back
Fore
SplineSet
309 50 m 1,0,1
 305 52 305 52 302 53 c 2,2,-1
 37 151 l 2,3,4
 35 151 35 151 31 155 c 0,5,6
 30 157 30 157 29.5 158 c 128,-1,7
 29 159 29 159 29 162 c 2,8,-1
 29 174 l 2,9,10
 29 178 29 178 31 181 c 0,11,12
 33 183 33 183 34.5 184 c 128,-1,13
 36 185 36 185 37 186 c 2,14,-1
 304 297 l 2,15,16
 307 299 307 299 311 296 c 0,17,18
 313 295 313 295 313.5 294 c 128,-1,19
 314 293 314 293 314 288 c 2,20,-1
 314 280 l 2,21,22
 314 270 314 270 309 268 c 2,23,-1
 55 168 l 1,24,-1
 308 79 l 1,25,-1
 310 78 l 2,26,27
 311 76 311 76 311.5 75.5 c 128,-1,28
 312 75 312 75 313 73 c 0,29,30
 314 72 314 72 314 68 c 2,31,-1
 314 59 l 2,32,33
 314 55 314 55 309 50 c 1,0,1
EndSplineSet
EndChar

StartChar: equal
Encoding: 61 61 32
Width: 383
GlyphClass: 2
Flags: W
LayerCount: 2
Back
Fore
SplineSet
322 220 m 0,0,1
 321 220 321 220 320 219.5 c 128,-1,2
 319 219 319 219 316 219 c 2,3,-1
 58 219 l 2,4,5
 56 219 56 219 51 223 c 0,6,7
 50 223 50 223 50 228 c 2,8,-1
 50 236 l 2,9,10
 50 239 50 239 51.5 240.5 c 128,-1,11
 53 242 53 242 60 244 c 2,12,-1
 316 244 l 2,13,14
 321 244 321 244 323 242 c 0,15,16
 325 241 325 241 325 236 c 2,17,-1
 325 228 l 2,18,19
 325 224 325 224 322 220 c 0,0,1
322 80 m 0,20,21
 320 78 320 78 316 78 c 2,22,-1
 58 78 l 2,23,24
 54 78 54 78 52 80 c 256,25,26
 50 82 50 82 50 87 c 2,27,-1
 50 95 l 2,28,29
 50 98 50 98 50.5 98.5 c 128,-1,30
 51 99 51 99 51 101 c 0,31,32
 55 103 55 103 58 103 c 2,33,-1
 316 103 l 1,34,-1
 318 102 l 2,35,36
 319 101 319 101 320.5 100.5 c 128,-1,37
 322 100 322 100 324 99 c 0,38,39
 325 99 325 99 325 95 c 2,40,-1
 325 87 l 2,41,42
 325 84 325 84 322 80 c 0,20,21
EndSplineSet
EndChar

StartChar: greater
Encoding: 62 62 33
Width: 398
GlyphClass: 2
Flags: W
LayerCount: 2
Back
Fore
SplineSet
55 77 m 2,0,-1
 308 166 l 1,1,-1
 54 266 l 2,2,3
 49 268 49 268 49 278 c 2,4,-1
 49 286 l 2,5,6
 49 291 49 291 49.5 292 c 128,-1,7
 50 293 50 293 52 294 c 0,8,9
 56 297 56 297 59 295 c 2,10,-1
 326 184 l 1,11,-1
 332 178 l 2,12,13
 334 176 334 176 334 172 c 2,14,-1
 334 160 l 2,15,16
 334 157 334 157 333.5 156 c 128,-1,17
 333 155 333 155 333 154 c 0,18,19
 328 149 328 149 326 149 c 2,20,-1
 61 51 l 1,21,-1
 57 49 l 2,22,23
 55 49 55 49 54 48 c 1,24,25
 52 50 52 50 50.5 51 c 128,-1,26
 49 52 49 52 49 57 c 2,27,-1
 49 66 l 2,28,29
 49 70 49 70 51 72 c 0,30,31
 52 74 52 74 55 77 c 2,0,-1
EndSplineSet
EndChar

StartChar: question
Encoding: 63 63 34
Width: 297
GlyphClass: 2
Flags: W
LayerCount: 2
Back
Fore
SplineSet
209 251 m 2,0,-1
 186 229 l 2,1,2
 181 224 181 224 177.5 220.5 c 128,-1,3
 174 217 174 217 172 213 c 0,4,5
 164 200 164 200 163.5 192 c 128,-1,6
 163 184 163 184 163 170 c 2,7,-1
 163 144 l 2,8,9
 163 133 163 133 155 133 c 2,10,-1
 148 133 l 2,11,12
 139 133 139 133 139 144 c 2,13,-1
 139 167 l 2,14,15
 139 181 139 181 141 192.5 c 128,-1,16
 143 204 143 204 146 213 c 0,17,18
 154 229 154 229 167.5 242.5 c 128,-1,19
 181 256 181 256 193 269 c 0,20,21
 206 282 206 282 210.5 293 c 128,-1,22
 215 304 215 304 215 318 c 2,23,-1
 215 340 l 2,24,25
 215 372 215 372 201 389 c 128,-1,26
 187 406 187 406 158 406 c 2,27,-1
 131 406 l 2,28,29
 103 406 103 406 89 388.5 c 128,-1,30
 75 371 75 371 75 340 c 2,31,-1
 75 310 l 2,32,33
 75 298 75 298 68 298 c 2,34,-1
 59 298 l 2,35,36
 52 298 52 298 52 310 c 2,37,-1
 52 341 l 2,38,39
 52 385 52 385 74 409 c 128,-1,40
 96 433 96 433 131 433 c 2,41,-1
 158 433 l 2,42,43
 195 433 195 433 216.5 409 c 128,-1,44
 238 385 238 385 238 341 c 2,45,-1
 238 317 l 2,46,47
 238 278 238 278 209 251 c 2,0,-1
157 0 m 2,48,-1
 145 0 l 2,49,50
 137 0 137 0 137 9 c 2,51,-1
 137 71 l 2,52,53
 137 84 137 84 145 84 c 2,54,-1
 157 84 l 2,55,56
 164 84 164 84 164 71 c 2,57,-1
 164 9 l 2,58,59
 164 0 164 0 157 0 c 2,48,-1
EndSplineSet
EndChar

StartChar: at
Encoding: 64 64 35
Width: 479
GlyphClass: 2
Flags: W
LayerCount: 2
Back
Fore
SplineSet
333 55 m 2,0,-1
 319 55 l 2,1,2
 313 55 313 55 308 58 c 128,-1,3
 303 61 303 61 294 78 c 1,4,5
 277 65 277 65 263 60.5 c 128,-1,6
 249 56 249 56 233 56 c 0,7,8
 191 56 191 56 168.5 79.5 c 128,-1,9
 146 103 146 103 146 150 c 2,10,-1
 146 218 l 2,11,12
 146 264 146 264 168.5 288 c 128,-1,13
 191 312 191 312 233 312 c 2,14,-1
 315 312 l 2,15,16
 324 312 324 312 324 302 c 2,17,-1
 324 80 l 1,18,19
 362 84 362 84 377.5 100.5 c 128,-1,20
 393 117 393 117 393 149 c 2,21,-1
 393 311 l 2,22,23
 393 343 393 343 378 361 c 128,-1,24
 363 379 363 379 333 379 c 2,25,-1
 214 379 l 2,26,27
 160 379 160 379 123 337 c 0,28,29
 84 296 84 296 84 235 c 2,30,-1
 84 133 l 2,31,32
 84 70 84 70 123 30 c 0,33,34
 159 -11 159 -11 214 -11 c 2,35,-1
 328 -11 l 2,36,37
 332 -11 332 -11 334 -12.5 c 128,-1,38
 336 -14 336 -14 336 -22 c 2,39,-1
 336 -29 l 2,40,41
 336 -37 336 -37 334 -38.5 c 128,-1,42
 332 -40 332 -40 328 -40 c 2,43,-1
 215 -40 l 2,44,45
 153 -40 153 -40 105 6 c 0,46,47
 57 54 57 54 57 134 c 2,48,-1
 57 234 l 2,49,50
 57 313 57 313 105 361 c 0,51,52
 153 407 153 407 215 407 c 2,53,-1
 333 407 l 2,54,55
 374 407 374 407 397 381.5 c 128,-1,56
 420 356 420 356 420 312 c 2,57,-1
 420 148 l 2,58,59
 420 104 420 104 397.5 79.5 c 128,-1,60
 375 55 375 55 333 55 c 2,0,-1
305 262 m 2,61,62
 305 277 305 277 297 285.5 c 128,-1,63
 289 294 289 294 274 292 c 2,64,-1
 237 289 l 2,65,66
 208 287 208 287 187 271.5 c 128,-1,67
 166 256 166 256 166 217 c 2,68,-1
 166 150 l 2,69,70
 166 114 166 114 182.5 94.5 c 128,-1,71
 199 75 199 75 233 75 c 2,72,-1
 234 75 l 2,73,74
 305 75 305 75 305 147 c 2,75,-1
 305 262 l 2,61,62
EndSplineSet
EndChar

StartChar: A
Encoding: 65 65 36
Width: 320
GlyphClass: 2
Flags: W
LayerCount: 2
Back
Fore
SplineSet
284 0 m 2,0,-1
 275 0 l 2,1,2
 269 0 269 0 266 11 c 2,3,-1
 235 111 l 1,4,-1
 84 111 l 1,5,-1
 50 9 l 2,6,7
 47 0 47 0 41 0 c 2,8,-1
 34 0 l 2,9,10
 30 0 30 0 27.5 4 c 128,-1,11
 25 8 25 8 27 12 c 2,12,-1
 142 392 l 2,13,14
 145 395 145 395 145 398 c 0,15,16
 146 400 146 400 147 401 c 0,17,18
 150 404 150 404 152 404 c 2,19,-1
 165 404 l 2,20,21
 172 404 172 404 175 395 c 2,22,-1
 291 12 l 2,23,24
 293 8 293 8 290.5 4 c 128,-1,25
 288 0 288 0 284 0 c 2,0,-1
157 370 m 1,26,27
 138 295 138 295 121.5 239 c 128,-1,28
 105 183 105 183 94 141 c 1,29,-1
 224 141 l 1,30,-1
 157 370 l 1,26,27
EndSplineSet
EndChar

StartChar: B
Encoding: 66 66 37
Width: 316
GlyphClass: 2
Flags: W
LayerCount: 2
Back
Fore
SplineSet
189 0 m 2,0,-1
 61 0 l 2,1,2
 52 0 52 0 52 10 c 2,3,-1
 52 393 l 2,4,5
 52 404 52 404 61 404 c 2,6,-1
 185 404 l 2,7,8
 222 404 222 404 242 382.5 c 128,-1,9
 262 361 262 361 262 317 c 2,10,-1
 262 277 l 2,11,12
 262 256 262 256 255 239.5 c 128,-1,13
 248 223 248 223 230 206 c 1,14,15
 250 186 250 186 258 168.5 c 128,-1,16
 266 151 266 151 266 132 c 2,17,-1
 266 87 l 2,18,19
 266 43 266 43 245 21.5 c 128,-1,20
 224 0 224 0 189 0 c 2,0,-1
238 317 m 2,21,22
 238 346 238 346 224.5 361.5 c 128,-1,23
 211 377 211 377 185 377 c 2,24,-1
 77 377 l 1,25,-1
 77 218 l 1,26,-1
 185 218 l 2,27,28
 209 218 209 218 223.5 232.5 c 128,-1,29
 238 247 238 247 238 278 c 2,30,-1
 238 317 l 2,21,22
240 132 m 2,31,32
 240 159 240 159 228 175 c 128,-1,33
 216 191 216 191 185 191 c 2,34,-1
 77 191 l 1,35,-1
 77 27 l 1,36,-1
 189 27 l 2,37,38
 215 27 215 27 227.5 43 c 128,-1,39
 240 59 240 59 240 87 c 2,40,-1
 240 132 l 2,31,32
EndSplineSet
EndChar

StartChar: C
Encoding: 67 67 38
Width: 317
GlyphClass: 2
Flags: W
LayerCount: 2
Back
Fore
SplineSet
195 0 m 2,0,-1
 124 0 l 2,1,2
 87 0 87 0 67 22 c 128,-1,3
 47 44 47 44 47 89 c 2,4,-1
 47 315 l 2,5,6
 47 356 47 356 68 380 c 128,-1,7
 89 404 89 404 124 404 c 2,8,-1
 195 404 l 2,9,10
 230 404 230 404 250.5 380.5 c 128,-1,11
 271 357 271 357 271 315 c 2,12,-1
 271 287 l 2,13,14
 271 274 271 274 263 274 c 2,15,-1
 256 274 l 2,16,17
 247 274 247 274 247 287 c 2,18,-1
 247 315 l 2,19,20
 247 344 247 344 234 360.5 c 128,-1,21
 221 377 221 377 195 377 c 2,22,-1
 124 377 l 2,23,24
 98 377 98 377 85 360.5 c 128,-1,25
 72 344 72 344 72 315 c 2,26,-1
 72 90 l 2,27,28
 72 61 72 61 85 44 c 128,-1,29
 98 27 98 27 124 27 c 2,30,-1
 195 27 l 2,31,32
 221 27 221 27 234 44 c 128,-1,33
 247 61 247 61 247 90 c 2,34,-1
 247 118 l 2,35,36
 247 129 247 129 256 129 c 2,37,-1
 263 129 l 2,38,39
 271 129 271 129 271 118 c 2,40,-1
 271 89 l 2,41,42
 271 0 271 0 195 0 c 2,0,-1
EndSplineSet
EndChar

StartChar: D
Encoding: 68 68 39
Width: 330
GlyphClass: 2
Flags: W
LayerCount: 2
Back
Fore
SplineSet
197 0 m 2,0,-1
 63 0 l 2,1,2
 55 0 55 0 55 10 c 2,3,-1
 55 393 l 2,4,5
 55 401 55 401 57 402.5 c 128,-1,6
 59 404 59 404 63 404 c 2,7,-1
 197 404 l 2,8,9
 232 404 232 404 252.5 380.5 c 128,-1,10
 273 357 273 357 273 315 c 2,11,-1
 273 89 l 2,12,13
 273 0 273 0 197 0 c 2,0,-1
249 315 m 2,14,15
 249 344 249 344 236 360.5 c 128,-1,16
 223 377 223 377 197 377 c 2,17,-1
 80 377 l 1,18,-1
 80 27 l 1,19,-1
 197 27 l 2,20,21
 223 27 223 27 236 44 c 128,-1,22
 249 61 249 61 249 90 c 2,23,-1
 249 315 l 2,14,15
EndSplineSet
EndChar

StartChar: E
Encoding: 69 69 40
Width: 278
GlyphClass: 2
Flags: W
LayerCount: 2
Back
Fore
SplineSet
222 0 m 2,0,-1
 62 0 l 2,1,2
 54 0 54 0 54 10 c 2,3,-1
 54 393 l 2,4,5
 54 404 54 404 62 404 c 2,6,-1
 222 404 l 2,7,8
 230 404 230 404 230 394 c 2,9,-1
 230 386 l 2,10,11
 230 381 230 381 227 379 c 128,-1,12
 224 377 224 377 222 377 c 2,13,-1
 77 377 l 1,14,-1
 77 220 l 1,15,-1
 209 220 l 2,16,17
 211 220 211 220 214 217.5 c 128,-1,18
 217 215 217 215 217 209 c 2,19,-1
 217 202 l 2,20,21
 217 192 217 192 209 192 c 2,22,-1
 77 192 l 1,23,-1
 77 27 l 1,24,-1
 222 27 l 2,25,26
 230 27 230 27 230 18 c 2,27,-1
 230 10 l 2,28,29
 230 5 230 5 227 2.5 c 128,-1,30
 224 0 224 0 222 0 c 2,0,-1
EndSplineSet
EndChar

StartChar: F
Encoding: 70 70 41
Width: 266
GlyphClass: 2
Flags: W
LayerCount: 2
Back
Fore
SplineSet
219 377 m 2,0,-1
 74 377 l 1,1,-1
 74 214 l 1,2,-1
 205 214 l 2,3,4
 207 214 207 214 210 211.5 c 128,-1,5
 213 209 213 209 213 205 c 2,6,-1
 213 198 l 2,7,8
 213 190 213 190 210 188.5 c 128,-1,9
 207 187 207 187 205 187 c 2,10,-1
 74 187 l 1,11,-1
 74 10 l 2,12,13
 74 0 74 0 66 0 c 2,14,-1
 59 0 l 2,15,16
 50 0 50 0 50 10 c 2,17,-1
 50 393 l 2,18,19
 50 404 50 404 59 404 c 2,20,-1
 219 404 l 2,21,22
 227 404 227 404 227 394 c 2,23,-1
 227 386 l 2,24,25
 227 381 227 381 224 379 c 128,-1,26
 221 377 221 377 219 377 c 2,0,-1
EndSplineSet
EndChar

StartChar: G
Encoding: 71 71 42
Width: 306
GlyphClass: 2
Flags: W
LayerCount: 2
Back
Fore
SplineSet
181 0 m 2,0,-1
 120 0 l 2,1,2
 85 0 85 0 65 22 c 128,-1,3
 45 44 45 44 45 89 c 2,4,-1
 45 315 l 2,5,6
 45 357 45 357 65 380.5 c 128,-1,7
 85 404 85 404 120 404 c 2,8,-1
 181 404 l 2,9,10
 216 404 216 404 236 380.5 c 128,-1,11
 256 357 256 357 256 315 c 2,12,-1
 256 287 l 2,13,14
 256 279 256 279 254 276.5 c 128,-1,15
 252 274 252 274 248 274 c 2,16,-1
 240 274 l 2,17,18
 232 274 232 274 232 287 c 2,19,-1
 232 315 l 2,20,21
 232 344 232 344 219.5 360.5 c 128,-1,22
 207 377 207 377 181 377 c 2,23,-1
 120 377 l 2,24,25
 94 377 94 377 81.5 360.5 c 128,-1,26
 69 344 69 344 69 315 c 2,27,-1
 69 90 l 2,28,29
 69 61 69 61 81.5 44 c 128,-1,30
 94 27 94 27 120 27 c 2,31,-1
 181 27 l 2,32,33
 207 27 207 27 219.5 44 c 128,-1,34
 232 61 232 61 232 90 c 2,35,-1
 232 182 l 1,36,-1
 161 182 l 2,37,38
 154 182 154 182 154 192 c 2,39,-1
 154 199 l 2,40,41
 154 209 154 209 161 209 c 2,42,-1
 242 209 l 2,43,44
 256 209 256 209 256 193 c 2,45,-1
 256 89 l 2,46,47
 256 44 256 44 236 22 c 128,-1,48
 216 0 216 0 181 0 c 2,0,-1
EndSplineSet
EndChar

StartChar: H
Encoding: 72 72 43
Width: 326
GlyphClass: 2
Flags: W
LayerCount: 2
Back
Fore
SplineSet
260 0 m 2,0,-1
 253 0 l 2,1,2
 244 0 244 0 244 10 c 2,3,-1
 244 192 l 1,4,-1
 76 192 l 1,5,-1
 76 10 l 2,6,7
 76 7 76 7 73.5 3.5 c 128,-1,8
 71 0 71 0 67 0 c 2,9,-1
 59 0 l 2,10,11
 50 0 50 0 50 10 c 2,12,-1
 50 393 l 2,13,14
 50 404 50 404 59 404 c 2,15,-1
 67 404 l 2,16,17
 76 404 76 404 76 393 c 2,18,-1
 76 220 l 1,19,-1
 244 220 l 1,20,-1
 244 393 l 2,21,22
 244 404 244 404 253 404 c 2,23,-1
 260 404 l 2,24,25
 268 404 268 404 268 393 c 2,26,-1
 268 10 l 2,27,28
 268 0 268 0 260 0 c 2,0,-1
EndSplineSet
EndChar

StartChar: I
Encoding: 73 73 44
Width: 113
GlyphClass: 2
Flags: W
LayerCount: 2
Back
Fore
SplineSet
58 0 m 2,0,-1
 50 0 l 2,1,2
 43 0 43 0 43 11 c 2,3,-1
 43 393 l 2,4,5
 43 401 43 401 44.5 402.5 c 128,-1,6
 46 404 46 404 50 404 c 2,7,-1
 58 404 l 2,8,9
 62 404 62 404 64 402.5 c 128,-1,10
 66 401 66 401 66 393 c 2,11,-1
 66 11 l 2,12,13
 66 3 66 3 64 1.5 c 128,-1,14
 62 0 62 0 58 0 c 2,0,-1
EndSplineSet
EndChar

StartChar: J
Encoding: 74 74 45
Width: 284
GlyphClass: 2
Flags: W
LayerCount: 2
Back
Fore
SplineSet
159 0 m 2,0,-1
 106 0 l 2,1,2
 71 0 71 0 51 22 c 128,-1,3
 31 44 31 44 31 89 c 2,4,-1
 31 138 l 2,5,6
 31 149 31 149 38 149 c 2,7,-1
 46 149 l 2,8,9
 54 149 54 149 54 138 c 2,10,-1
 54 90 l 2,11,12
 54 61 54 61 67 44 c 128,-1,13
 80 27 80 27 106 27 c 2,14,-1
 159 27 l 2,15,16
 185 27 185 27 198.5 44 c 128,-1,17
 212 61 212 61 212 90 c 2,18,-1
 212 393 l 2,19,20
 212 404 212 404 220 404 c 2,21,-1
 228 404 l 2,22,23
 236 404 236 404 236 394 c 2,24,-1
 236 89 l 2,25,26
 236 44 236 44 216 22 c 128,-1,27
 196 0 196 0 159 0 c 2,0,-1
EndSplineSet
EndChar

StartChar: K
Encoding: 75 75 46
Width: 310
GlyphClass: 2
Flags: W
LayerCount: 2
Back
Fore
SplineSet
267 0 m 2,0,-1
 260 0 l 2,1,2
 252 0 252 0 249 7 c 2,3,-1
 130 206 l 1,4,-1
 73 127 l 1,5,-1
 73 10 l 2,6,7
 73 7 73 7 70.5 3.5 c 128,-1,8
 68 0 68 0 64 0 c 2,9,-1
 57 0 l 2,10,11
 47 0 47 0 47 10 c 2,12,-1
 47 393 l 2,13,14
 47 404 47 404 57 404 c 2,15,-1
 64 404 l 2,16,17
 73 404 73 404 73 393 c 2,18,-1
 73 169 l 1,19,-1
 228 395 l 2,20,21
 232 401 232 401 235 402.5 c 128,-1,22
 238 404 238 404 240 404 c 2,23,-1
 251 404 l 2,24,25
 255 404 255 404 256.5 398 c 128,-1,26
 258 392 258 392 256 390 c 2,27,-1
 146 229 l 1,28,-1
 273 14 l 2,29,30
 282 0 282 0 267 0 c 2,0,-1
EndSplineSet
EndChar

StartChar: L
Encoding: 76 76 47
Width: 265
GlyphClass: 2
Flags: W
LayerCount: 2
Back
Fore
SplineSet
223 0 m 2,0,-1
 56 0 l 2,1,2
 47 0 47 0 47 10 c 2,3,-1
 47 393 l 2,4,5
 47 404 47 404 56 404 c 2,6,-1
 63 404 l 2,7,8
 72 404 72 404 72 393 c 2,9,-1
 72 28 l 1,10,-1
 223 28 l 2,11,12
 230 28 230 28 230 19 c 2,13,-1
 230 10 l 2,14,15
 230 0 230 0 223 0 c 2,0,-1
EndSplineSet
EndChar

StartChar: M
Encoding: 77 77 48
Width: 397
GlyphClass: 2
Flags: W
LayerCount: 2
Back
Fore
SplineSet
336 0 m 2,0,-1
 328 0 l 2,1,2
 319 0 319 0 319 10 c 2,3,-1
 319 345 l 1,4,-1
 214 93 l 2,5,6
 211 86 211 86 202 86 c 2,7,-1
 193 86 l 2,8,9
 185 86 185 86 182 93 c 2,10,-1
 76 348 l 1,11,-1
 76 10 l 2,12,13
 76 0 76 0 68 0 c 2,14,-1
 60 0 l 2,15,16
 50 0 50 0 50 10 c 2,17,-1
 50 393 l 2,18,19
 50 404 50 404 60 404 c 2,20,-1
 75 404 l 2,21,22
 80 404 80 404 83 399 c 2,23,-1
 198 123 l 1,24,-1
 311 398 l 2,25,26
 314 404 314 404 320 404 c 2,27,-1
 336 404 l 2,28,29
 344 404 344 404 344 393 c 2,30,-1
 344 10 l 2,31,32
 344 0 344 0 336 0 c 2,0,-1
EndSplineSet
EndChar

StartChar: N
Encoding: 78 78 49
Width: 327
GlyphClass: 2
Flags: W
LayerCount: 2
Back
Fore
SplineSet
267 0 m 2,0,-1
 261 0 l 2,1,2
 257 0 257 0 251 7 c 2,3,-1
 76 344 l 1,4,-1
 76 10 l 2,5,6
 76 7 76 7 73.5 3.5 c 128,-1,7
 71 0 71 0 67 0 c 2,8,-1
 60 0 l 2,9,10
 50 0 50 0 50 10 c 2,11,-1
 50 393 l 2,12,13
 50 404 50 404 60 404 c 2,14,-1
 67 404 l 2,15,16
 72 404 72 404 72 402 c 2,17,-1
 251 63 l 1,18,-1
 251 393 l 2,19,20
 251 404 251 404 259 404 c 2,21,-1
 267 404 l 2,22,23
 275 404 275 404 275 393 c 2,24,-1
 275 10 l 2,25,26
 275 0 275 0 267 0 c 2,0,-1
EndSplineSet
EndChar

StartChar: O
Encoding: 79 79 50
Width: 313
GlyphClass: 2
Flags: W
LayerCount: 2
Back
Fore
SplineSet
189 0 m 2,0,-1
 121 0 l 2,1,2
 86 0 86 0 65.5 22 c 128,-1,3
 45 44 45 44 45 89 c 2,4,-1
 45 315 l 2,5,6
 45 357 45 357 65.5 380.5 c 128,-1,7
 86 404 86 404 121 404 c 2,8,-1
 189 404 l 2,9,10
 224 404 224 404 245 380 c 128,-1,11
 266 356 266 356 266 315 c 2,12,-1
 266 89 l 2,13,14
 266 44 266 44 246 22 c 128,-1,15
 226 0 226 0 189 0 c 2,0,-1
241 315 m 2,16,17
 241 344 241 344 228 360.5 c 128,-1,18
 215 377 215 377 189 377 c 2,19,-1
 121 377 l 2,20,21
 95 377 95 377 82 360.5 c 128,-1,22
 69 344 69 344 69 315 c 2,23,-1
 69 90 l 2,24,25
 69 61 69 61 82 44 c 128,-1,26
 95 27 95 27 121 27 c 2,27,-1
 189 27 l 2,28,29
 215 27 215 27 228 44 c 128,-1,30
 241 61 241 61 241 90 c 2,31,-1
 241 315 l 2,16,17
EndSplineSet
EndChar

StartChar: P
Encoding: 80 80 51
Width: 303
GlyphClass: 2
Flags: W
LayerCount: 2
Back
Fore
SplineSet
181 152 m 2,0,-1
 75 152 l 1,1,-1
 75 10 l 2,2,3
 75 0 75 0 67 0 c 2,4,-1
 59 0 l 2,5,6
 50 0 50 0 50 10 c 2,7,-1
 50 393 l 2,8,9
 50 404 50 404 59 404 c 2,10,-1
 181 404 l 2,11,12
 216 404 216 404 236 380.5 c 128,-1,13
 256 357 256 357 256 315 c 2,14,-1
 256 241 l 2,15,16
 256 199 256 199 236 175.5 c 128,-1,17
 216 152 216 152 181 152 c 2,0,-1
233 315 m 2,18,19
 233 344 233 344 220 360.5 c 128,-1,20
 207 377 207 377 181 377 c 2,21,-1
 75 377 l 1,22,-1
 75 180 l 1,23,-1
 181 180 l 2,24,25
 233 180 233 180 233 242 c 2,26,-1
 233 315 l 2,18,19
EndSplineSet
EndChar

StartChar: Q
Encoding: 81 81 52
Width: 326
GlyphClass: 2
Flags: W
LayerCount: 2
Back
Fore
SplineSet
207 -3 m 1,0,-1
 242 -69 l 2,1,2
 243 -73 243 -73 243.5 -78.5 c 128,-1,3
 244 -84 244 -84 237 -84 c 2,4,-1
 228 -84 l 2,5,6
 223 -84 223 -84 216 -77 c 2,7,-1
 176 -3 l 1,8,-1
 130 -3 l 2,9,10
 95 -3 95 -3 74 20.5 c 128,-1,11
 53 44 53 44 53 87 c 2,12,-1
 53 316 l 2,13,14
 53 357 53 357 74 380.5 c 128,-1,15
 95 404 95 404 130 404 c 2,16,-1
 198 404 l 2,17,18
 233 404 233 404 253.5 380.5 c 128,-1,19
 274 357 274 357 274 316 c 2,20,-1
 274 87 l 2,21,22
 274 20 274 20 207 -3 c 1,0,-1
250 315 m 2,23,24
 250 343 250 343 237 359.5 c 128,-1,25
 224 376 224 376 198 376 c 2,26,-1
 130 376 l 2,27,28
 104 376 104 376 90.5 360 c 128,-1,29
 77 344 77 344 77 315 c 2,30,-1
 77 88 l 2,31,32
 77 59 77 59 90.5 42.5 c 128,-1,33
 104 26 104 26 130 26 c 2,34,-1
 198 26 l 2,35,36
 224 26 224 26 237 42.5 c 128,-1,37
 250 59 250 59 250 88 c 2,38,-1
 250 315 l 2,23,24
EndSplineSet
EndChar

StartChar: R
Encoding: 82 82 53
Width: 302
GlyphClass: 2
Flags: W
LayerCount: 2
Back
Fore
SplineSet
261 9 m 2,0,-1
 261 4 l 2,1,2
 261 0 261 0 255 0 c 2,3,-1
 244 0 l 2,4,5
 238 0 238 0 235 6 c 2,6,-1
 170 165 l 1,7,-1
 73 165 l 1,8,-1
 73 10 l 2,9,10
 73 0 73 0 63 0 c 2,11,-1
 57 0 l 2,12,13
 47 0 47 0 47 10 c 2,14,-1
 47 394 l 2,15,16
 47 404 47 404 57 404 c 2,17,-1
 177 404 l 2,18,19
 214 404 214 404 234 382 c 128,-1,20
 254 360 254 360 254 315 c 2,21,-1
 254 255 l 2,22,23
 254 223 254 223 241 202 c 128,-1,24
 228 181 228 181 195 166 c 1,25,-1
 260 14 l 2,26,27
 260 11 260 11 261 9 c 2,0,-1
230 315 m 2,28,29
 230 344 230 344 216.5 361 c 128,-1,30
 203 378 203 378 177 378 c 2,31,-1
 73 378 l 1,32,-1
 73 194 l 1,33,-1
 177 194 l 2,34,35
 203 194 203 194 216.5 210 c 128,-1,36
 230 226 230 226 230 255 c 2,37,-1
 230 315 l 2,28,29
EndSplineSet
EndChar

StartChar: S
Encoding: 83 83 54
Width: 303
GlyphClass: 2
Flags: W
LayerCount: 2
Back
Fore
SplineSet
183 0 m 2,0,-1
 118 0 l 2,1,2
 81 0 81 0 61 22 c 128,-1,3
 41 44 41 44 41 89 c 2,4,-1
 41 113 l 2,5,6
 41 121 41 121 43 123 c 128,-1,7
 45 125 45 125 49 125 c 2,8,-1
 58 125 l 2,9,10
 66 125 66 125 66 113 c 2,11,-1
 66 90 l 2,12,13
 66 61 66 61 79 44 c 128,-1,14
 92 27 92 27 118 27 c 2,15,-1
 183 27 l 2,16,17
 209 27 209 27 222 44 c 128,-1,18
 235 61 235 61 235 90 c 2,19,-1
 235 119 l 2,20,21
 235 144 235 144 216.5 160.5 c 128,-1,22
 198 177 198 177 170 184 c 0,23,24
 148 189 148 189 126.5 194.5 c 128,-1,25
 105 200 105 200 85 211 c 256,26,27
 65 222 65 222 53 237.5 c 128,-1,28
 41 253 41 253 41 278 c 2,29,-1
 41 315 l 2,30,31
 41 356 41 356 62 380 c 128,-1,32
 83 404 83 404 118 404 c 2,33,-1
 183 404 l 2,34,35
 218 404 218 404 238.5 380.5 c 128,-1,36
 259 357 259 357 259 315 c 2,37,-1
 259 298 l 2,38,39
 259 286 259 286 251 286 c 2,40,-1
 244 286 l 2,41,42
 239 286 239 286 237 288 c 128,-1,43
 235 290 235 290 235 298 c 2,44,-1
 235 315 l 2,45,46
 235 344 235 344 222 360.5 c 128,-1,47
 209 377 209 377 183 377 c 2,48,-1
 118 377 l 2,49,50
 92 377 92 377 79 360.5 c 128,-1,51
 66 344 66 344 66 315 c 2,52,-1
 66 279 l 2,53,54
 66 259 66 259 80.5 244.5 c 128,-1,55
 95 230 95 230 130 222 c 0,56,57
 153 217 153 217 174.5 211.5 c 128,-1,58
 196 206 196 206 216 194 c 0,59,60
 235 183 235 183 247 166 c 128,-1,61
 259 149 259 149 259 121 c 2,62,-1
 259 89 l 2,63,64
 259 0 259 0 183 0 c 2,0,-1
EndSplineSet
EndChar

StartChar: T
Encoding: 84 84 55
Width: 259
GlyphClass: 2
Flags: W
LayerCount: 2
Back
Fore
SplineSet
226 377 m 2,0,-1
 142 377 l 1,1,-1
 142 10 l 2,2,3
 142 7 142 7 139.5 3.5 c 128,-1,4
 137 0 137 0 133 0 c 2,5,-1
 127 0 l 2,6,7
 123 0 123 0 120.5 3.5 c 128,-1,8
 118 7 118 7 118 10 c 2,9,-1
 118 377 l 1,10,-1
 34 377 l 2,11,12
 31 377 31 377 28 379 c 128,-1,13
 25 381 25 381 25 386 c 2,14,-1
 25 394 l 2,15,16
 25 404 25 404 34 404 c 2,17,-1
 226 404 l 2,18,19
 234 404 234 404 234 394 c 2,20,-1
 234 386 l 2,21,22
 234 377 234 377 226 377 c 2,0,-1
EndSplineSet
EndChar

StartChar: U
Encoding: 85 85 56
Width: 310
GlyphClass: 2
Flags: W
LayerCount: 2
Back
Fore
SplineSet
185 0 m 2,0,-1
 124 0 l 2,1,2
 89 0 89 0 68.5 22 c 128,-1,3
 48 44 48 44 48 89 c 2,4,-1
 48 393 l 2,5,6
 48 404 48 404 57 404 c 2,7,-1
 63 404 l 2,8,9
 72 404 72 404 72 393 c 2,10,-1
 72 90 l 2,11,12
 72 61 72 61 85 44 c 128,-1,13
 98 27 98 27 124 27 c 2,14,-1
 185 27 l 2,15,16
 211 27 211 27 223.5 44 c 128,-1,17
 236 61 236 61 236 90 c 2,18,-1
 236 393 l 2,19,20
 236 404 236 404 245 404 c 2,21,-1
 253 404 l 2,22,23
 261 404 261 404 261 394 c 2,24,-1
 261 89 l 2,25,26
 261 44 261 44 240.5 22 c 128,-1,27
 220 0 220 0 185 0 c 2,0,-1
EndSplineSet
EndChar

StartChar: V
Encoding: 86 86 57
Width: 302
GlyphClass: 2
Flags: W
LayerCount: 2
Back
Fore
SplineSet
167 9 m 1,0,-1
 165 5 l 2,1,2
 163 3 163 3 161.5 1.5 c 128,-1,3
 160 0 160 0 158 0 c 2,4,-1
 144 0 l 2,5,6
 139 0 139 0 138 3 c 128,-1,7
 137 6 137 6 135 9 c 2,8,-1
 29 393 l 2,9,10
 27 397 27 397 28.5 400.5 c 128,-1,11
 30 404 30 404 35 404 c 2,12,-1
 44 404 l 2,13,14
 48 404 48 404 50 399 c 2,15,-1
 52 395 l 1,16,-1
 151 46 l 1,17,-1
 248 393 l 2,18,19
 250 395 250 395 250 396 c 128,-1,20
 250 397 250 397 251 399 c 2,21,-1
 251 401 l 1,22,-1
 254 403 l 2,23,24
 254 404 254 404 257 404 c 2,25,-1
 267 404 l 2,26,27
 277 404 277 404 272 393 c 2,28,-1
 167 9 l 1,0,-1
EndSplineSet
EndChar

StartChar: W
Encoding: 87 87 58
Width: 486
GlyphClass: 2
Flags: W
LayerCount: 2
Back
Fore
SplineSet
373 9 m 2,0,1
 372 0 372 0 363 0 c 2,2,-1
 348 0 l 2,3,4
 338 0 338 0 337 9 c 2,5,-1
 245 358 l 1,6,-1
 153 9 l 2,7,8
 150 0 150 0 143 0 c 2,9,-1
 128 0 l 2,10,11
 122 0 122 0 120 1.5 c 128,-1,12
 118 3 118 3 116 9 c 2,13,-1
 32 391 l 2,14,15
 29 404 29 404 42 404 c 2,16,-1
 49 404 l 2,17,18
 57 404 57 404 60 393 c 2,19,-1
 135 45 l 1,20,-1
 227 394 l 2,21,22
 233 404 233 404 239 404 c 2,23,-1
 250 404 l 2,24,25
 257 404 257 404 260 395 c 2,26,-1
 354 43 l 1,27,-1
 430 395 l 2,28,29
 431 398 431 398 433.5 401 c 128,-1,30
 436 404 436 404 441 404 c 2,31,-1
 449 404 l 2,32,33
 461 404 461 404 456 393 c 2,34,-1
 373 9 l 2,0,1
EndSplineSet
EndChar

StartChar: X
Encoding: 88 88 59
Width: 297
GlyphClass: 2
Flags: W
LayerCount: 2
Back
Fore
SplineSet
262 0 m 2,0,-1
 253 0 l 2,1,2
 252 0 252 0 249 1 c 128,-1,3
 246 2 246 2 241 7 c 2,4,-1
 149 192 l 1,5,-1
 57 7 l 2,6,7
 52 2 52 2 49 1 c 128,-1,8
 46 0 46 0 45 0 c 2,9,-1
 36 0 l 2,10,11
 32 0 32 0 29.5 3.5 c 128,-1,12
 27 7 27 7 31 15 c 2,13,-1
 133 214 l 1,14,-1
 37 389 l 2,15,16
 33 398 33 398 35 401 c 128,-1,17
 37 404 37 404 43 404 c 2,18,-1
 51 404 l 2,19,20
 58 404 58 404 63 395 c 2,21,-1
 149 236 l 1,22,-1
 236 395 l 2,23,24
 238 399 238 399 241 402 c 0,25,26
 245 404 245 404 246 404 c 2,27,-1
 255 404 l 2,28,29
 268 404 268 404 260 390 c 2,30,-1
 165 214 l 1,31,-1
 268 13 l 1,32,-1
 268 10 l 2,33,34
 268 5 268 5 267.5 2.5 c 128,-1,35
 267 0 267 0 262 0 c 2,0,-1
EndSplineSet
EndChar

StartChar: Y
Encoding: 89 89 60
Width: 296
GlyphClass: 2
Flags: W
LayerCount: 2
Back
Fore
SplineSet
160 155 m 1,0,-1
 160 10 l 2,1,2
 160 0 160 0 151 0 c 2,3,-1
 144 0 l 2,4,5
 136 0 136 0 136 10 c 2,6,-1
 136 155 l 1,7,-1
 28 390 l 2,8,9
 21 404 21 404 34 404 c 2,10,-1
 44 404 l 2,11,12
 48 404 48 404 53 398 c 2,13,-1
 55 395 l 1,14,-1
 148 187 l 1,15,-1
 242 396 l 2,16,17
 244 400 244 400 247 401 c 0,18,19
 248 404 248 404 253 404 c 2,20,-1
 261 404 l 2,21,22
 271 404 271 404 268 391 c 2,23,-1
 160 155 l 1,0,-1
EndSplineSet
EndChar

StartChar: Z
Encoding: 90 90 61
Width: 279
GlyphClass: 2
Flags: W
LayerCount: 2
Back
Fore
SplineSet
239 0 m 2,0,-1
 36 0 l 2,1,2
 34 0 34 0 31 2.5 c 128,-1,3
 28 5 28 5 28 10 c 2,4,-1
 28 21 l 2,5,6
 28 25 28 25 30 30 c 2,7,-1
 213 377 l 1,8,-1
 42 377 l 2,9,10
 33 377 33 377 33 386 c 2,11,-1
 33 394 l 2,12,13
 33 404 33 404 42 404 c 2,14,-1
 233 404 l 2,15,16
 242 404 242 404 242 394 c 2,17,-1
 242 383 l 2,18,19
 242 381 242 381 241.5 378 c 128,-1,20
 241 375 241 375 240 374 c 2,21,-1
 57 27 l 1,22,-1
 239 27 l 2,23,24
 248 27 248 27 248 18 c 2,25,-1
 248 10 l 2,26,27
 248 3 248 3 245.5 1.5 c 128,-1,28
 243 0 243 0 239 0 c 2,0,-1
EndSplineSet
EndChar

StartChar: bracketleft
Encoding: 91 91 62
Width: 153
GlyphClass: 2
Flags: W
LayerCount: 2
Back
Fore
SplineSet
104 -67 m 0,0,1
 102 -69 102 -69 102 -69 c 1,2,-1
 49 -69 l 2,3,4
 44 -69 44 -69 44 -60 c 2,5,-1
 44 424 l 2,6,7
 44 435 44 435 49 435 c 2,8,-1
 102 435 l 2,9,10
 104 435 104 435 106 433 c 0,11,12
 106 432 106 432 106.5 430 c 128,-1,13
 107 428 107 428 107 425 c 2,14,-1
 107 418 l 2,15,16
 107 411 107 411 104 410 c 0,17,18
 103 408 103 408 102 408 c 2,19,-1
 58 408 l 1,20,-1
 58 -43 l 1,21,-1
 102 -43 l 1,22,-1
 104 -43 l 1,23,-1
 105 -44 l 1,24,25
 107 -52 107 -52 107 -53 c 2,26,-1
 107 -61 l 2,27,28
 107 -64 107 -64 104 -67 c 0,0,1
EndSplineSet
EndChar

StartChar: backslash
Encoding: 92 92 63
Width: 220
GlyphClass: 2
Flags: W
LayerCount: 2
Back
Fore
SplineSet
182 -24 m 0,0,1
 180 -28 180 -28 176 -28 c 2,2,-1
 171 -28 l 2,3,4
 169 -28 169 -28 167 -26 c 2,5,-1
 163 -22 l 1,6,-1
 162 -21 l 1,7,-1
 162 -20 l 1,8,-1
 36 427 l 2,9,10
 35 430 35 430 36 440 c 0,11,12
 36 441 36 441 40 441 c 2,13,-1
 48 441 l 2,14,15
 50 441 50 441 52 439.5 c 128,-1,16
 54 438 54 438 55 433 c 2,17,-1
 182 -15 l 2,18,19
 184 -22 184 -22 182 -24 c 0,0,1
EndSplineSet
EndChar

StartChar: bracketright
Encoding: 93 93 64
Width: 154
GlyphClass: 2
Flags: W
LayerCount: 2
Back
Fore
SplineSet
102 -68 m 2,0,-1
 101 -69 l 1,1,-1
 48 -69 l 2,2,3
 45 -69 45 -69 44 -68 c 0,4,5
 42 -64 42 -64 42 -61 c 2,6,-1
 42 -53 l 2,7,8
 42 -49 42 -49 44 -45 c 0,9,10
 45 -43 45 -43 48 -43 c 2,11,-1
 90 -43 l 1,12,-1
 90 408 l 1,13,-1
 48 408 l 2,14,15
 46 408 46 408 45 410 c 0,16,17
 42 411 42 411 42 418 c 2,18,-1
 42 425 l 2,19,20
 42 427 42 427 44 433 c 0,21,22
 46 435 46 435 48 435 c 2,23,-1
 101 435 l 1,24,-1
 102 435 l 1,25,26
 105 424 105 424 105 424 c 1,27,-1
 105 -60 l 2,28,29
 105 -61 105 -61 104.5 -62.5 c 128,-1,30
 104 -64 104 -64 102 -68 c 2,0,-1
EndSplineSet
EndChar

StartChar: asciicircum
Encoding: 94 94 65
Width: 290
GlyphClass: 2
Flags: W
LayerCount: 2
Back
Fore
SplineSet
229 222 m 2,0,-1
 223 222 l 1,1,-1
 221 222 l 1,2,3
 217 228 217 228 214 229 c 2,4,-1
 138 401 l 1,5,-1
 64 228 l 2,6,7
 58 222 58 222 53 222 c 2,8,-1
 49 222 l 2,9,10
 43 222 43 222 42 225 c 0,11,12
 40 229 40 229 42 235 c 2,13,-1
 119 411 l 2,14,15
 121 414 121 414 123 416 c 128,-1,16
 125 418 125 418 127 420 c 0,17,18
 128 421 128 421 132 421 c 2,19,-1
 144 421 l 2,20,21
 145 421 145 421 153 418 c 0,22,23
 155 418 155 418 157 413 c 2,24,-1
 235 235 l 2,25,26
 238 228 238 228 237 227 c 0,27,28
 234 222 234 222 229 222 c 2,0,-1
EndSplineSet
EndChar

StartChar: underscore
Encoding: 95 95 66
Width: 225
GlyphClass: 2
Flags: W
LayerCount: 2
Back
Fore
SplineSet
189 -61 m 1,0,-1
 192 -61 l 1,1,-1
 187 -61 l 1,2,-1
 39 -61 l 1,3,-1
 34 -61 l 1,4,-1
 37 -61 l 1,5,-1
 36 -61 l 1,6,-1
 31 -57 l 1,7,-1
 31 -39 l 1,8,-1
 35 -36 l 1,9,-1
 36 -36 l 1,10,-1
 34 -36 l 1,11,-1
 35 -36 l 1,12,-1
 39 -36 l 1,13,-1
 187 -36 l 2,14,15
 192 -36 192 -36 193 -37 c 2,16,-1
 195 -39 l 1,17,-1
 195 -57 l 1,18,-1
 195 -69 l 1,19,20
 202 -64 202 -64 203.5 -62.5 c 128,-1,21
 205 -61 205 -61 205 -60 c 2,22,-1
 205 -50 l 1,23,24
 198 -56 198 -56 189 -61 c 1,0,-1
EndSplineSet
EndChar

StartChar: grave
Encoding: 96 96 67
Width: 139
GlyphClass: 2
Flags: W
LayerCount: 2
Back
Fore
SplineSet
91 348 m 2,0,-1
 88 348 l 2,1,2
 87 348 87 348 85.5 348.5 c 128,-1,3
 84 349 84 349 82 353 c 2,4,-1
 48 415 l 2,5,6
 45 421 45 421 47 424 c 128,-1,7
 49 427 49 427 50 427 c 2,8,-1
 60 427 l 2,9,10
 65 427 65 427 66 422 c 2,11,-1
 93 359 l 2,12,13
 96 351 96 351 94.5 349.5 c 128,-1,14
 93 348 93 348 91 348 c 2,0,-1
EndSplineSet
EndChar

StartChar: a
Encoding: 97 97 68
Width: 255
GlyphClass: 2
Flags: W
LayerCount: 2
Back
Fore
SplineSet
204 0 m 2,0,-1
 198 0 l 2,1,2
 196 0 196 0 194.5 2 c 128,-1,3
 193 4 193 4 188 15 c 1,4,5
 171 7 171 7 160 3.5 c 128,-1,6
 149 0 149 0 140 0 c 2,7,-1
 104 0 l 2,8,9
 72 0 72 0 54 21 c 128,-1,10
 36 42 36 42 36 80 c 2,11,-1
 36 214 l 2,12,13
 36 252 36 252 54 273 c 128,-1,14
 72 294 72 294 104 294 c 2,15,-1
 204 294 l 2,16,17
 211 294 211 294 211 286 c 2,18,-1
 211 9 l 2,19,20
 211 3 211 3 209.5 1.5 c 128,-1,21
 208 0 208 0 204 0 c 2,0,-1
191 251 m 0,22,23
 186 268 186 268 165 271 c 2,24,-1
 104 271 l 2,25,26
 79 271 79 271 67 256 c 128,-1,27
 55 241 55 241 55 214 c 2,28,-1
 55 81 l 2,29,30
 55 23 55 23 104 23 c 2,31,-1
 139 23 l 2,32,33
 192 23 192 23 192 78 c 0,34,35
 192 148 192 148 192.5 180 c 128,-1,36
 193 212 193 212 193 224 c 0,37,38
 193 231 193 231 193 237.5 c 128,-1,39
 193 244 193 244 191 251 c 0,22,23
EndSplineSet
EndChar

StartChar: b
Encoding: 98 98 69
Width: 262
GlyphClass: 2
Flags: W
LayerCount: 2
Back
Fore
SplineSet
149 0 m 2,0,-1
 48 0 l 2,1,2
 42 0 42 0 42 8 c 2,3,-1
 42 397 l 2,4,5
 42 405 42 405 48 405 c 2,6,-1
 55 405 l 2,7,8
 61 405 61 405 61 397 c 2,9,-1
 61 283 l 1,10,11
 82 296 82 296 92.5 299 c 128,-1,12
 103 302 103 302 113 302 c 2,13,-1
 149 302 l 2,14,15
 180 302 180 302 198.5 280.5 c 128,-1,16
 217 259 217 259 217 221 c 2,17,-1
 217 82 l 2,18,19
 217 41 217 41 198.5 20.5 c 128,-1,20
 180 0 180 0 149 0 c 2,0,-1
197 220 m 2,21,22
 197 246 197 246 185.5 262 c 128,-1,23
 174 278 174 278 149 278 c 2,24,-1
 113 278 l 2,25,26
 61 278 61 278 61 223 c 2,27,-1
 61 24 l 1,28,-1
 149 24 l 2,29,30
 174 24 174 24 185.5 40 c 128,-1,31
 197 56 197 56 197 83 c 2,32,-1
 197 220 l 2,21,22
EndSplineSet
EndChar

StartChar: c
Encoding: 99 99 70
Width: 208
GlyphClass: 2
Flags: W
LayerCount: 2
Back
Fore
SplineSet
168 0 m 2,0,-1
 102 0 l 2,1,2
 73 0 73 0 54.5 21 c 128,-1,3
 36 42 36 42 36 80 c 2,4,-1
 36 214 l 2,5,6
 36 252 36 252 54.5 273 c 128,-1,7
 73 294 73 294 102 294 c 2,8,-1
 168 294 l 2,9,10
 174 294 174 294 174 286 c 2,11,-1
 174 279 l 2,12,13
 174 271 174 271 168 271 c 2,14,-1
 102 271 l 2,15,16
 79 271 79 271 67 256 c 128,-1,17
 55 241 55 241 55 214 c 2,18,-1
 55 81 l 2,19,20
 55 54 55 54 66.5 38.5 c 128,-1,21
 78 23 78 23 102 23 c 2,22,-1
 168 23 l 2,23,24
 174 23 174 23 174 15 c 2,25,-1
 174 8 l 2,26,27
 174 0 174 0 168 0 c 2,0,-1
EndSplineSet
EndChar

StartChar: d
Encoding: 100 100 71
Width: 261
GlyphClass: 2
Flags: W
LayerCount: 2
Back
Fore
SplineSet
204 0 m 2,0,-1
 198 0 l 2,1,2
 195 0 195 0 193.5 3 c 128,-1,3
 192 6 192 6 188 17 c 1,4,5
 171 6 171 6 160.5 3 c 128,-1,6
 150 0 150 0 140 0 c 2,7,-1
 104 0 l 2,8,9
 72 0 72 0 54 20 c 128,-1,10
 36 40 36 40 36 82 c 2,11,-1
 36 216 l 2,12,13
 36 256 36 256 54 276 c 128,-1,14
 72 296 72 296 104 296 c 2,15,-1
 140 296 l 2,16,17
 150 296 150 296 160.5 293 c 128,-1,18
 171 290 171 290 192 277 c 1,19,-1
 192 397 l 2,20,21
 192 405 192 405 198 405 c 2,22,-1
 204 405 l 2,23,24
 211 405 211 405 211 397 c 2,25,-1
 211 8 l 2,26,27
 211 0 211 0 204 0 c 2,0,-1
192 218 m 2,28,29
 192 273 192 273 139 273 c 2,30,-1
 104 273 l 2,31,32
 79 273 79 273 67 258 c 128,-1,33
 55 243 55 243 55 216 c 2,34,-1
 55 83 l 2,35,36
 55 56 55 56 67 40 c 128,-1,37
 79 24 79 24 104 24 c 2,38,-1
 139 24 l 2,39,40
 192 24 192 24 192 79 c 2,41,-1
 192 218 l 2,28,29
EndSplineSet
EndChar

StartChar: e
Encoding: 101 101 72
Width: 256
GlyphClass: 2
Flags: W
LayerCount: 2
Back
Fore
SplineSet
209 133 m 2,0,-1
 55 133 l 1,1,-1
 55 81 l 2,2,3
 55 23 55 23 104 23 c 2,4,-1
 205 23 l 2,5,6
 212 23 212 23 212 15 c 2,7,-1
 212 8 l 2,8,9
 212 0 212 0 205 0 c 2,10,-1
 104 0 l 2,11,12
 72 0 72 0 54 21 c 128,-1,13
 36 42 36 42 36 80 c 2,14,-1
 36 214 l 2,15,16
 36 252 36 252 54 273 c 128,-1,17
 72 294 72 294 104 294 c 2,18,-1
 147 294 l 2,19,20
 179 294 179 294 197 273 c 128,-1,21
 215 252 215 252 215 214 c 2,22,-1
 215 143 l 2,23,24
 215 133 215 133 209 133 c 2,0,-1
196 214 m 2,25,26
 196 241 196 241 184 256 c 128,-1,27
 172 271 172 271 147 271 c 2,28,-1
 104 271 l 2,29,30
 79 271 79 271 67 256 c 128,-1,31
 55 241 55 241 55 214 c 2,32,-1
 55 156 l 1,33,-1
 196 156 l 1,34,-1
 196 214 l 2,25,26
EndSplineSet
EndChar

StartChar: f
Encoding: 102 102 73
Width: 172
GlyphClass: 2
Flags: W
LayerCount: 2
Back
Fore
SplineSet
132 273 m 2,0,-1
 88 273 l 1,1,-1
 88 8 l 2,2,3
 88 4 88 4 86 2 c 128,-1,4
 84 0 84 0 83 0 c 2,5,-1
 77 0 l 2,6,7
 72 0 72 0 72 8 c 2,8,-1
 72 273 l 1,9,-1
 38 273 l 2,10,11
 36 273 36 273 34 275 c 128,-1,12
 32 277 32 277 32 280 c 2,13,-1
 32 288 l 2,14,15
 32 296 32 296 38 296 c 2,16,-1
 72 296 l 1,17,-1
 72 325 l 2,18,19
 72 369 72 369 85.5 387 c 128,-1,20
 99 405 99 405 125 405 c 2,21,-1
 132 405 l 2,22,23
 138 405 138 405 138 398 c 2,24,-1
 138 391 l 2,25,26
 138 383 138 383 136 382 c 128,-1,27
 134 381 134 381 132 381 c 2,28,-1
 125 381 l 2,29,30
 105 381 105 381 96.5 367 c 128,-1,31
 88 353 88 353 88 324 c 2,32,-1
 88 296 l 1,33,-1
 132 296 l 2,34,35
 138 296 138 296 138 288 c 2,36,-1
 138 280 l 2,37,38
 138 277 138 277 136 275 c 128,-1,39
 134 273 134 273 132 273 c 2,0,-1
EndSplineSet
EndChar

StartChar: g
Encoding: 103 103 74
Width: 257
GlyphClass: 2
Flags: W
LayerCount: 2
Back
Fore
SplineSet
146 -77 m 2,0,-1
 58 -77 l 2,1,2
 51 -77 51 -77 51 -68 c 2,3,-1
 51 -61 l 2,4,5
 51 -54 51 -54 58 -54 c 2,6,-1
 146 -54 l 2,7,8
 171 -54 171 -54 182.5 -38 c 128,-1,9
 194 -22 194 -22 194 5 c 2,10,-1
 194 31 l 1,11,12
 174 21 174 21 162.5 18 c 128,-1,13
 151 15 151 15 143 15 c 2,14,-1
 107 15 l 2,15,16
 76 15 76 15 57.5 35.5 c 128,-1,17
 39 56 39 56 39 96 c 2,18,-1
 39 213 l 2,19,20
 39 254 39 254 57.5 274 c 128,-1,21
 76 294 76 294 107 294 c 2,22,-1
 208 294 l 2,23,24
 214 294 214 294 214 287 c 2,25,-1
 214 4 l 2,26,27
 214 -37 214 -37 195.5 -57 c 128,-1,28
 177 -77 177 -77 146 -77 c 2,0,-1
105 270 m 2,29,30
 79 269 79 269 69 254.5 c 128,-1,31
 59 240 59 240 59 213 c 2,32,-1
 59 96 l 2,33,34
 59 69 59 69 71 54 c 128,-1,35
 83 39 83 39 107 39 c 2,36,-1
 143 39 l 2,37,38
 194 39 194 39 194 94 c 2,39,-1
 196 271 l 1,40,-1
 105 270 l 2,29,30
EndSplineSet
EndChar

StartChar: h
Encoding: 104 104 75
Width: 261
GlyphClass: 2
Flags: W
LayerCount: 2
Back
Fore
SplineSet
210 0 m 2,0,-1
 203 0 l 2,1,2
 197 0 197 0 197 8 c 2,3,-1
 197 216 l 2,4,5
 197 243 197 243 185 258 c 128,-1,6
 173 273 173 273 149 273 c 2,7,-1
 113 273 l 2,8,9
 61 273 61 273 61 218 c 2,10,-1
 61 8 l 2,11,12
 61 0 61 0 55 0 c 2,13,-1
 48 0 l 2,14,15
 42 0 42 0 42 8 c 2,16,-1
 42 397 l 2,17,18
 42 405 42 405 48 405 c 2,19,-1
 55 405 l 2,20,21
 61 405 61 405 61 397 c 2,22,-1
 61 280 l 1,23,24
 81 290 81 290 92.5 293 c 128,-1,25
 104 296 104 296 113 296 c 2,26,-1
 149 296 l 2,27,28
 180 296 180 296 198.5 276 c 128,-1,29
 217 256 217 256 217 216 c 2,30,-1
 217 8 l 2,31,32
 217 0 217 0 210 0 c 2,0,-1
EndSplineSet
EndChar

StartChar: i
Encoding: 105 105 76
Width: 106
GlyphClass: 2
Flags: W
LayerCount: 2
Back
Fore
SplineSet
61 404 m 2,0,1
 60 401 60 401 60 396 c 2,2,-1
 60 349 l 2,3,4
 60 347 60 347 60.5 344.5 c 128,-1,5
 61 342 61 342 61 340 c 2,6,-1
 40 340 l 2,7,8
 40 342 40 342 40.5 344.5 c 128,-1,9
 41 347 41 347 41 349 c 2,10,-1
 41 396 l 2,11,12
 41 398 41 398 40.5 400 c 128,-1,13
 40 402 40 402 40 404 c 2,14,-1
 61 404 l 2,0,1
61 296 m 2,15,16
 60 294 60 294 60 288 c 2,17,-1
 60 8 l 2,18,19
 60 6 60 6 60.5 4 c 128,-1,20
 61 2 61 2 61 0 c 1,21,22
 62 0 62 0 63 -1 c 128,-1,23
 64 -2 64 -2 64 0 c 2,24,-1
 40 0 l 1,25,-1
 41 4 l 1,26,-1
 41 8 l 1,27,-1
 41 288 l 2,28,29
 41 290 41 290 40.5 292 c 128,-1,30
 40 294 40 294 40 296 c 2,31,-1
 61 296 l 2,15,16
EndSplineSet
EndChar

StartChar: j
Encoding: 106 106 77
Width: 101
GlyphClass: 2
Flags: W
LayerCount: 2
Back
Fore
SplineSet
56 343 m 2,0,-1
 45 343 l 2,1,2
 41 343 41 343 41 351 c 2,3,-1
 41 396 l 2,4,5
 41 404 41 404 45 404 c 2,6,-1
 56 404 l 1,7,-1
 58 402 l 2,8,9
 60 400 60 400 60 396 c 2,10,-1
 60 351 l 2,11,12
 60 346 60 346 58 344 c 0,13,14
 57 343 57 343 56 343 c 2,0,-1
-1 -77 m 2,15,-1
 -9 -77 l 2,16,17
 -10 -77 -10 -77 -11.5 -76 c 128,-1,18
 -13 -75 -13 -75 -13 -69 c 2,19,-1
 -13 -62 l 2,20,21
 -13 -57 -13 -57 -11 -55 c 2,22,-1
 -9 -53 l 1,23,-1
 -1 -53 l 2,24,25
 22 -53 22 -53 31.5 -37 c 128,-1,26
 41 -21 41 -21 41 5 c 2,27,-1
 41 287 l 2,28,29
 41 296 41 296 45 296 c 2,30,-1
 56 296 l 2,31,32
 58 296 58 296 59 293 c 128,-1,33
 60 290 60 290 60 287 c 2,34,-1
 60 4 l 2,35,36
 60 -34 60 -34 45 -55.5 c 128,-1,37
 30 -77 30 -77 -1 -77 c 2,15,-1
EndSplineSet
EndChar

StartChar: k
Encoding: 107 107 78
Width: 230
GlyphClass: 2
Flags: W
LayerCount: 2
Back
Fore
SplineSet
200 0 m 2,0,-1
 192 0 l 2,1,2
 184 0 184 0 181 6 c 2,3,-1
 97 147 l 2,4,5
 93 153 93 153 97 160 c 2,6,-1
 172 290 l 2,7,8
 174 293 174 293 177.5 294.5 c 128,-1,9
 181 296 181 296 183 296 c 2,10,-1
 189 296 l 2,11,12
 192 296 192 296 193.5 293 c 128,-1,13
 195 290 195 290 193 286 c 2,14,-1
 117 153 l 1,15,-1
 204 11 l 2,16,17
 208 6 208 6 206.5 3 c 128,-1,18
 205 0 205 0 200 0 c 2,0,-1
55 0 m 2,19,-1
 48 0 l 2,20,21
 42 0 42 0 42 8 c 2,22,-1
 42 397 l 2,23,24
 42 405 42 405 48 405 c 2,25,-1
 55 405 l 2,26,27
 61 405 61 405 61 397 c 2,28,-1
 61 8 l 2,29,30
 61 0 61 0 55 0 c 2,19,-1
EndSplineSet
EndChar

StartChar: l
Encoding: 108 108 79
Width: 113
GlyphClass: 2
Flags: W
LayerCount: 2
Back
Fore
SplineSet
55 0 m 2,0,-1
 48 0 l 2,1,2
 42 0 42 0 42 8 c 2,3,-1
 42 397 l 2,4,5
 42 405 42 405 48 405 c 2,6,-1
 55 405 l 2,7,8
 62 405 62 405 62 397 c 2,9,-1
 62 8 l 2,10,11
 62 0 62 0 55 0 c 2,0,-1
EndSplineSet
EndChar

StartChar: m
Encoding: 109 109 80
Width: 410
GlyphClass: 2
Flags: W
LayerCount: 2
Back
Fore
SplineSet
358 0 m 2,0,-1
 351 0 l 2,1,2
 344 0 344 0 344 9 c 2,3,-1
 344 214 l 2,4,5
 344 271 344 271 292 271 c 2,6,-1
 272 271 l 2,7,8
 246 271 246 271 230 256 c 128,-1,9
 214 241 214 241 214 214 c 2,10,-1
 214 9 l 2,11,12
 214 5 214 5 212 2.5 c 128,-1,13
 210 0 210 0 208 0 c 2,14,-1
 200 0 l 2,15,16
 196 0 196 0 194.5 1.5 c 128,-1,17
 193 3 193 3 193 9 c 2,18,-1
 193 214 l 2,19,20
 193 271 193 271 141 271 c 2,21,-1
 119 271 l 2,22,23
 64 271 64 271 64 216 c 2,24,-1
 64 9 l 2,25,26
 64 0 64 0 56 0 c 2,27,-1
 49 0 l 2,28,29
 42 0 42 0 42 9 c 2,30,-1
 42 286 l 2,31,32
 42 294 42 294 49 294 c 2,33,-1
 56 294 l 2,34,35
 58 294 58 294 61 292 c 128,-1,36
 64 290 64 290 70 281 c 1,37,38
 86 289 86 289 96.5 291.5 c 128,-1,39
 107 294 107 294 118 294 c 2,40,-1
 141 294 l 2,41,42
 158 294 158 294 173 287 c 128,-1,43
 188 280 188 280 205 263 c 1,44,45
 224 281 224 281 240 287.5 c 128,-1,46
 256 294 256 294 272 294 c 2,47,-1
 292 294 l 2,48,49
 327 294 327 294 346.5 272.5 c 128,-1,50
 366 251 366 251 366 214 c 2,51,-1
 366 9 l 2,52,53
 366 0 366 0 358 0 c 2,0,-1
EndSplineSet
EndChar

StartChar: n
Encoding: 110 110 81
Width: 259
GlyphClass: 2
Flags: W
LayerCount: 2
Back
Fore
SplineSet
210 0 m 2,0,-1
 203 0 l 2,1,2
 200 0 200 0 198.5 1.5 c 128,-1,3
 197 3 197 3 197 9 c 2,4,-1
 197 214 l 2,5,6
 197 241 197 241 185 256 c 128,-1,7
 173 271 173 271 149 271 c 2,8,-1
 113 271 l 2,9,10
 61 271 61 271 61 216 c 2,11,-1
 61 9 l 2,12,13
 61 3 61 3 59.5 1.5 c 128,-1,14
 58 0 58 0 55 0 c 2,15,-1
 48 0 l 2,16,17
 42 0 42 0 42 9 c 2,18,-1
 42 286 l 2,19,20
 42 294 42 294 48 294 c 2,21,-1
 55 294 l 2,22,23
 56 294 56 294 58.5 292 c 128,-1,24
 61 290 61 290 67 279 c 1,25,26
 92 294 92 294 113 294 c 2,27,-1
 149 294 l 2,28,29
 180 294 180 294 198.5 273 c 128,-1,30
 217 252 217 252 217 214 c 2,31,-1
 217 9 l 2,32,33
 217 3 217 3 215.5 1.5 c 128,-1,34
 214 0 214 0 210 0 c 2,0,-1
EndSplineSet
EndChar

StartChar: o
Encoding: 111 111 82
Width: 257
GlyphClass: 2
Flags: W
LayerCount: 2
Back
Fore
SplineSet
146 0 m 2,0,-1
 104 0 l 2,1,2
 72 0 72 0 54 21 c 128,-1,3
 36 42 36 42 36 80 c 2,4,-1
 36 214 l 2,5,6
 36 252 36 252 54 273 c 128,-1,7
 72 294 72 294 104 294 c 2,8,-1
 146 294 l 2,9,10
 177 294 177 294 195.5 273 c 128,-1,11
 214 252 214 252 214 214 c 2,12,-1
 214 80 l 2,13,14
 214 42 214 42 195.5 21 c 128,-1,15
 177 0 177 0 146 0 c 2,0,-1
194 214 m 2,16,17
 194 241 194 241 182 256 c 128,-1,18
 170 271 170 271 146 271 c 2,19,-1
 104 271 l 2,20,21
 79 271 79 271 67 256 c 128,-1,22
 55 241 55 241 55 214 c 2,23,-1
 55 81 l 2,24,25
 55 23 55 23 104 23 c 2,26,-1
 146 23 l 2,27,28
 194 23 194 23 194 81 c 2,29,-1
 194 214 l 2,16,17
EndSplineSet
EndChar

StartChar: p
Encoding: 112 112 83
Width: 267
GlyphClass: 2
Flags: W
LayerCount: 2
Back
Fore
SplineSet
156 -2 m 2,0,-1
 120 -2 l 2,1,2
 110 -2 110 -2 99.5 1.5 c 128,-1,3
 89 5 89 5 68 17 c 1,4,-1
 68 -80 l 2,5,6
 68 -89 68 -89 62 -89 c 2,7,-1
 55 -89 l 2,8,9
 49 -89 49 -89 49 -80 c 2,10,-1
 49 287 l 2,11,12
 49 294 49 294 55 294 c 2,13,-1
 62 294 l 2,14,15
 63 294 63 294 65.5 292 c 128,-1,16
 68 290 68 290 74 279 c 1,17,18
 88 287 88 287 98.5 290.5 c 128,-1,19
 109 294 109 294 120 294 c 2,20,-1
 156 294 l 2,21,22
 187 294 187 294 205.5 274 c 128,-1,23
 224 254 224 254 224 213 c 2,24,-1
 224 79 l 2,25,26
 224 38 224 38 205.5 18 c 128,-1,27
 187 -2 187 -2 156 -2 c 2,0,-1
204 213 m 2,28,29
 204 240 204 240 192 255.5 c 128,-1,30
 180 271 180 271 156 271 c 2,31,-1
 120 271 l 2,32,33
 68 271 68 271 68 216 c 2,34,-1
 68 77 l 2,35,36
 68 22 68 22 120 22 c 2,37,-1
 156 22 l 2,38,39
 180 22 180 22 192 37.5 c 128,-1,40
 204 53 204 53 204 80 c 2,41,-1
 204 213 l 2,28,29
EndSplineSet
EndChar

StartChar: q
Encoding: 113 113 84
Width: 261
GlyphClass: 2
Flags: W
LayerCount: 2
Back
Fore
SplineSet
210 -89 m 2,0,-1
 203 -89 l 2,1,2
 198 -89 198 -89 198 -80 c 2,3,-1
 198 16 l 1,4,5
 183 8 183 8 177 4.5 c 128,-1,6
 171 1 171 1 166 0 c 0,7,8
 161 -2 161 -2 155 -2 c 128,-1,9
 149 -2 149 -2 144 -2 c 2,10,-1
 110 -2 l 2,11,12
 78 -2 78 -2 60 17.5 c 128,-1,13
 42 37 42 37 42 79 c 2,14,-1
 42 213 l 2,15,16
 42 254 42 254 60 274 c 128,-1,17
 78 294 78 294 110 294 c 2,18,-1
 210 294 l 2,19,20
 217 294 217 294 217 287 c 2,21,-1
 217 -80 l 2,22,23
 217 -89 217 -89 210 -89 c 2,0,-1
198 250 m 1,24,25
 191 271 191 271 171 269 c 2,26,-1
 110 269 l 2,27,28
 85 269 85 269 73 254 c 128,-1,29
 61 239 61 239 61 213 c 2,30,-1
 61 80 l 2,31,32
 61 53 61 53 73 37.5 c 128,-1,33
 85 22 85 22 110 22 c 2,34,-1
 144 22 l 2,35,36
 198 22 198 22 198 80 c 2,37,-1
 198 250 l 1,24,25
EndSplineSet
EndChar

StartChar: r
Encoding: 114 114 85
Width: 150
GlyphClass: 2
Flags: W
LayerCount: 2
Back
Fore
SplineSet
113 271 m 2,0,-1
 95 271 l 2,1,2
 72 271 72 271 60 253 c 128,-1,3
 48 235 48 235 48 209 c 2,4,-1
 48 9 l 2,5,6
 48 2 48 2 46.5 1 c 128,-1,7
 45 0 45 0 43 0 c 2,8,-1
 37 0 l 2,9,10
 33 0 33 0 33 9 c 2,11,-1
 33 286 l 2,12,13
 33 294 33 294 37 294 c 2,14,-1
 43 294 l 2,15,16
 46 294 46 294 47 291 c 128,-1,17
 48 288 48 288 52 277 c 1,18,19
 69 287 69 287 77.5 290.5 c 128,-1,20
 86 294 86 294 96 294 c 2,21,-1
 113 294 l 2,22,23
 114 294 114 294 116 292 c 128,-1,24
 118 290 118 290 118 286 c 2,25,-1
 118 279 l 2,26,27
 118 271 118 271 113 271 c 2,0,-1
EndSplineSet
EndChar

StartChar: s
Encoding: 115 115 86
Width: 224
GlyphClass: 2
Flags: W
LayerCount: 2
Back
Fore
SplineSet
126 0 m 2,0,-1
 44 0 l 2,1,2
 38 0 38 0 38 8 c 2,3,-1
 38 15 l 2,4,5
 38 23 38 23 44 23 c 2,6,-1
 126 23 l 2,7,8
 151 23 151 23 162 34 c 128,-1,9
 173 45 173 45 173 65 c 2,10,-1
 173 81 l 2,11,12
 173 101 173 101 167.5 112.5 c 128,-1,13
 162 124 162 124 144 131 c 2,14,-1
 81 157 l 2,15,16
 55 168 55 168 45 183.5 c 128,-1,17
 35 199 35 199 35 228 c 0,18,19
 35 294 35 294 97 294 c 2,20,-1
 174 294 l 2,21,22
 180 294 180 294 180 286 c 2,23,-1
 180 279 l 2,24,25
 180 271 180 271 174 271 c 2,26,-1
 97 271 l 2,27,28
 73 271 73 271 64 260 c 128,-1,29
 55 249 55 249 55 235 c 2,30,-1
 55 220 l 2,31,32
 55 203 55 203 62.5 195 c 128,-1,33
 70 187 70 187 87 180 c 2,34,-1
 150 153 l 2,35,36
 174 143 174 143 182.5 123 c 128,-1,37
 191 103 191 103 191 68 c 0,38,39
 191 31 191 31 175 15.5 c 128,-1,40
 159 0 159 0 126 0 c 2,0,-1
EndSplineSet
EndChar

StartChar: t
Encoding: 116 116 87
Width: 185
GlyphClass: 2
Flags: W
LayerCount: 2
Back
Fore
SplineSet
150 0 m 2,0,-1
 133 0 l 2,1,2
 102 0 102 0 83 21 c 128,-1,3
 64 42 64 42 64 79 c 2,4,-1
 64 272 l 1,5,-1
 32 272 l 2,6,7
 26 272 26 272 26 279 c 2,8,-1
 26 287 l 2,9,10
 26 295 26 295 32 295 c 2,11,-1
 64 295 l 1,12,-1
 64 340 l 2,13,14
 64 350 64 350 71 350 c 2,15,-1
 78 350 l 2,16,17
 83 350 83 350 83 340 c 2,18,-1
 83 295 l 1,19,-1
 145 295 l 2,20,21
 151 295 151 295 151 287 c 2,22,-1
 151 279 l 2,23,24
 151 272 151 272 145 272 c 2,25,-1
 83 272 l 1,26,-1
 83 79 l 2,27,28
 83 53 83 53 95.5 38 c 128,-1,29
 108 23 108 23 133 23 c 2,30,-1
 150 23 l 2,31,32
 154 23 154 23 155 22 c 128,-1,33
 156 21 156 21 156 16 c 2,34,-1
 156 7 l 2,35,36
 156 0 156 0 150 0 c 2,0,-1
EndSplineSet
EndChar

StartChar: u
Encoding: 117 117 88
Width: 254
GlyphClass: 2
Flags: W
LayerCount: 2
Back
Fore
SplineSet
209 0 m 2,0,-1
 203 0 l 2,1,2
 201 0 201 0 199 2 c 128,-1,3
 197 4 197 4 192 16 c 1,4,5
 177 7 177 7 166 3.5 c 128,-1,6
 155 0 155 0 144 0 c 2,7,-1
 109 0 l 2,8,9
 78 0 78 0 59 21 c 128,-1,10
 40 42 40 42 40 80 c 2,11,-1
 40 286 l 2,12,13
 40 294 40 294 47 294 c 2,14,-1
 55 294 l 2,15,16
 61 294 61 294 61 286 c 2,17,-1
 61 81 l 2,18,19
 61 23 61 23 109 23 c 2,20,-1
 144 23 l 2,21,22
 196 23 196 23 196 78 c 2,23,-1
 196 286 l 2,24,25
 196 294 196 294 203 294 c 2,26,-1
 209 294 l 2,27,28
 215 294 215 294 215 286 c 2,29,-1
 215 9 l 2,30,31
 215 0 215 0 209 0 c 2,0,-1
EndSplineSet
EndChar

StartChar: v
Encoding: 118 118 89
Width: 241
GlyphClass: 2
Flags: W
LayerCount: 2
Back
Fore
SplineSet
131 7 m 2,0,1
 129 2 129 2 128 1 c 128,-1,2
 127 0 127 0 125 0 c 2,3,-1
 113 0 l 2,4,5
 107 0 107 0 107 6 c 2,6,-1
 29 284 l 2,7,8
 25 294 25 294 34 294 c 2,9,-1
 42 294 l 2,10,11
 44 294 44 294 46 292 c 128,-1,12
 48 290 48 290 48 289 c 2,13,-1
 119 29 l 1,14,15
 136 92 136 92 148 134.5 c 128,-1,16
 160 177 160 177 169 209 c 2,17,-1
 191 289 l 2,18,19
 191 294 191 294 196 294 c 2,20,-1
 204 294 l 2,21,22
 213 294 213 294 209 284 c 2,23,-1
 131 7 l 2,0,1
EndSplineSet
EndChar

StartChar: w
Encoding: 119 119 90
Width: 388
GlyphClass: 2
Flags: W
LayerCount: 2
Back
Fore
SplineSet
284 8 m 2,0,1
 282 0 282 0 276 0 c 2,2,-1
 264 0 l 2,3,4
 257 0 257 0 256 7 c 2,5,-1
 192 248 l 1,6,-1
 128 6 l 2,7,8
 125 0 125 0 120 0 c 2,9,-1
 109 0 l 2,10,11
 103 0 103 0 101 8 c 2,12,-1
 22 283 l 2,13,14
 21 294 21 294 28 294 c 2,15,-1
 36 294 l 2,16,17
 41 294 41 294 43 286 c 2,18,-1
 114 36 l 1,19,-1
 181 287 l 2,20,21
 182 294 182 294 189 294 c 2,22,-1
 197 294 l 2,23,24
 202 294 202 294 203 290 c 0,25,26
 203 289 203 289 203.5 288.5 c 128,-1,27
 204 288 204 288 204 287 c 2,28,-1
 270 36 l 1,29,-1
 339 287 l 2,30,31
 343 294 343 294 348 294 c 2,32,-1
 357 294 l 2,33,34
 360 294 360 294 362 290.5 c 128,-1,35
 364 287 364 287 363 285 c 2,36,-1
 284 8 l 2,0,1
EndSplineSet
EndChar

StartChar: x
Encoding: 120 120 91
Width: 225
GlyphClass: 2
Flags: W
LayerCount: 2
Back
Fore
SplineSet
194 0 m 2,0,-1
 183 0 l 2,1,2
 180 0 180 0 177 7 c 2,3,-1
 112 134 l 1,4,-1
 47 6 l 2,5,6
 44 0 44 0 38 0 c 2,7,-1
 29 0 l 2,8,9
 24 0 24 0 23.5 1 c 128,-1,10
 23 2 23 2 25 6 c 0,11,12
 25 9 25 9 26 10 c 2,13,-1
 26 12 l 1,14,-1
 98 150 l 1,15,-1
 29 286 l 2,16,17
 27 288 27 288 28 291 c 128,-1,18
 29 294 29 294 34 294 c 2,19,-1
 44 294 l 2,20,21
 46 294 46 294 50 290 c 2,22,-1
 51 288 l 1,23,-1
 112 167 l 1,24,-1
 172 287 l 2,25,26
 173 289 173 289 173.5 290.5 c 128,-1,27
 174 292 174 292 175 293 c 2,28,-1
 176 293 l 2,29,30
 177 293 177 293 177.5 293.5 c 128,-1,31
 178 294 178 294 180 294 c 2,32,-1
 189 294 l 2,33,34
 194 294 194 294 193 289.5 c 128,-1,35
 192 285 192 285 191 283 c 2,36,-1
 125 150 l 1,37,-1
 198 12 l 2,38,39
 199 10 199 10 199.5 5 c 128,-1,40
 200 0 200 0 194 0 c 2,0,-1
EndSplineSet
EndChar

StartChar: y
Encoding: 121 121 92
Width: 256
GlyphClass: 2
Flags: W
LayerCount: 2
Back
Fore
SplineSet
143 21 m 2,0,1
 129 -28 129 -28 119 -44 c 0,2,3
 96 -85 96 -85 57 -85 c 2,4,-1
 44 -85 l 2,5,6
 35 -85 35 -85 35 -76 c 2,7,-1
 35 -70 l 2,8,9
 35 -62 35 -62 44 -62 c 2,10,-1
 57 -62 l 2,11,12
 71 -62 71 -62 81 -55.5 c 128,-1,13
 91 -49 91 -49 98 -38.5 c 128,-1,14
 105 -28 105 -28 110 -16 c 128,-1,15
 115 -4 115 -4 118 8 c 1,16,17
 98 70 98 70 74 142.5 c 128,-1,18
 50 215 50 215 28 284 c 0,19,20
 25 294 25 294 32 294 c 2,21,-1
 40 294 l 2,22,23
 43 294 43 294 46 290 c 0,24,25
 46 289 46 289 48 285 c 2,26,-1
 127 38 l 1,27,-1
 182 208 l 1,28,-1
 207 287 l 2,29,30
 208 294 208 294 215 294 c 2,31,-1
 222 294 l 2,32,33
 227 294 227 294 227.5 289.5 c 128,-1,34
 228 285 228 285 227 282 c 2,35,-1
 143 21 l 2,0,1
EndSplineSet
EndChar

StartChar: z
Encoding: 122 122 93
Width: 217
GlyphClass: 2
Flags: W
LayerCount: 2
Back
Fore
SplineSet
183 0 m 2,0,-1
 36 0 l 2,1,2
 28 0 28 0 28 8 c 2,3,-1
 28 14 l 2,4,5
 28 15 28 15 31 20 c 2,6,-1
 161 271 l 1,7,-1
 38 271 l 2,8,9
 32 271 32 271 32 279 c 2,10,-1
 32 286 l 2,11,12
 32 294 32 294 38 294 c 2,13,-1
 180 294 l 2,14,15
 186 294 186 294 186 286 c 2,16,-1
 186 279 l 2,17,18
 186 275 186 275 186 275 c 1,19,-1
 54 23 l 1,20,-1
 183 23 l 2,21,22
 189 23 189 23 189 15 c 2,23,-1
 189 8 l 2,24,25
 189 0 189 0 183 0 c 2,0,-1
EndSplineSet
EndChar

StartChar: braceleft
Encoding: 123 123 94
Width: 165
GlyphClass: 2
Flags: W
LayerCount: 2
Back
Fore
SplineSet
123 -67 m 0,0,1
 119 -69 119 -69 120 -69 c 2,2,-1
 119 -69 l 1,3,-1
 117 -69 l 2,4,5
 90 -69 90 -69 81 -48 c 0,6,7
 68 -17 68 -17 68 15 c 2,8,-1
 68 126 l 2,9,10
 68 137 68 137 66.5 146.5 c 128,-1,11
 65 156 65 156 61 161 c 256,12,13
 57 166 57 166 51.5 169 c 128,-1,14
 46 172 46 172 40 171 c 0,15,16
 38 171 38 171 37 173 c 0,17,18
 34 174 34 174 34 179 c 2,19,-1
 34 186 l 2,20,21
 34 194 34 194 36 194 c 1,22,23
 36 196 36 196 40 196 c 0,24,25
 52 196 52 196 60 204 c 0,26,27
 65 209 65 209 66.5 219 c 128,-1,28
 68 229 68 229 68 240 c 2,29,-1
 68 350 l 2,30,31
 68 364 68 364 71 385 c 0,32,33
 73 393 73 393 75 398.5 c 128,-1,34
 77 404 77 404 81 412 c 0,35,36
 84 418 84 418 96 430 c 0,37,38
 104 435 104 435 117 435 c 2,39,-1
 119 435 l 1,40,-1
 121 435 l 1,41,-1
 123 433 l 2,42,43
 125 430 125 430 125 425 c 2,44,-1
 125 418 l 2,45,46
 125 412 125 412 123 410 c 0,47,48
 119 408 119 408 119 408 c 1,49,-1
 117 408 l 2,50,51
 101 408 101 408 94 396 c 0,52,53
 88 389 88 389 86.5 376.5 c 128,-1,54
 85 364 85 364 85 349 c 2,55,-1
 85 240 l 2,56,57
 85 229 85 229 82 210 c 0,58,59
 81 205 81 205 79 199 c 128,-1,60
 77 193 77 193 70 183 c 1,61,62
 77 172 77 172 79 166.5 c 128,-1,63
 81 161 81 161 82 156 c 0,64,65
 83 148 83 148 83.5 143 c 128,-1,66
 84 138 84 138 84 133 c 2,67,-1
 84 129 l 2,68,69
 84 128 84 128 84.5 127.5 c 128,-1,70
 85 127 85 127 85 125 c 2,71,-1
 85 15 l 2,72,73
 85 -16 85 -16 93 -29 c 0,74,75
 97 -37 97 -37 103.5 -40 c 128,-1,76
 110 -43 110 -43 117 -43 c 2,77,-1
 119 -43 l 2,78,79
 122 -43 122 -43 122 -44 c 0,80,81
 125 -49 125 -49 125 -53 c 2,82,-1
 125 -61 l 2,83,84
 125 -63 125 -63 123 -67 c 0,0,1
EndSplineSet
EndChar

StartChar: bar
Encoding: 124 124 95
Width: 110
GlyphClass: 2
Flags: W
LayerCount: 2
Back
Fore
SplineSet
57 0 m 2,0,-1
 50 0 l 2,1,2
 47 0 47 0 46 1 c 0,3,4
 44 5 44 5 44 7 c 0,5,6
 43 8 43 8 43 9 c 2,7,-1
 43 410 l 2,8,9
 43 415 43 415 45 419 c 0,10,11
 47 421 47 421 50 421 c 2,12,-1
 57 421 l 2,13,14
 61 421 61 421 62.5 419.5 c 128,-1,15
 64 418 64 418 64 410 c 2,16,-1
 64 9 l 2,17,18
 64 3 64 3 62.5 1.5 c 128,-1,19
 61 0 61 0 57 0 c 2,0,-1
EndSplineSet
EndChar

StartChar: braceright
Encoding: 125 125 96
Width: 165
GlyphClass: 2
Flags: W
LayerCount: 2
Back
Fore
SplineSet
120 173 m 0,0,1
 119 171 119 171 117 171 c 0,2,3
 111 172 111 172 105.5 169 c 128,-1,4
 100 166 100 166 96 161 c 256,5,6
 92 156 92 156 90.5 146.5 c 128,-1,7
 89 137 89 137 89 126 c 2,8,-1
 89 15 l 2,9,10
 89 -17 89 -17 76 -48 c 0,11,12
 67 -69 67 -69 40 -69 c 2,13,-1
 38 -69 l 1,14,-1
 37 -69 l 2,15,16
 36 -69 36 -69 34 -67 c 0,17,18
 32 -63 32 -63 32 -61 c 2,19,-1
 32 -53 l 2,20,21
 32 -49 32 -49 35 -44 c 0,22,23
 35 -43 35 -43 38 -43 c 2,24,-1
 40 -43 l 2,25,26
 56 -43 56 -43 65 -29 c 0,27,28
 69 -23 69 -23 70.5 -11 c 128,-1,29
 72 1 72 1 72 15 c 2,30,-1
 72 127 l 2,31,32
 72 129 72 129 75 156 c 0,33,34
 76 160 76 160 78 166 c 128,-1,35
 80 172 80 172 88 183 c 1,36,37
 80 194 80 194 78 200 c 128,-1,38
 76 206 76 206 75 210 c 0,39,40
 72 229 72 229 72 240 c 2,41,-1
 72 349 l 2,42,43
 72 365 72 365 70.5 377 c 128,-1,44
 69 389 69 389 64 396 c 0,45,46
 59 401 59 401 53.5 404.5 c 128,-1,47
 48 408 48 408 40 408 c 2,48,-1
 38 408 l 1,49,50
 38 408 38 408 34 410 c 0,51,52
 32 412 32 412 32 418 c 2,53,-1
 32 425 l 2,54,55
 32 430 32 430 34 433 c 2,56,-1
 35 435 l 1,57,-1
 36 435 l 1,58,-1
 38 435 l 1,59,-1
 40 435 l 2,60,61
 53 435 53 435 62 429 c 0,62,63
 68 424 68 424 71 419.5 c 128,-1,64
 74 415 74 415 76 413 c 0,65,66
 79 405 79 405 81.5 399 c 128,-1,67
 84 393 84 393 86 385 c 0,68,69
 89 364 89 364 89 350 c 2,70,-1
 89 240 l 2,71,72
 89 229 89 229 90.5 219 c 128,-1,73
 92 209 92 209 97 204 c 0,74,75
 105 196 105 196 117 196 c 0,76,77
 121 196 121 196 121 194 c 1,78,79
 123 194 123 194 123 186 c 2,80,-1
 123 179 l 2,81,82
 123 174 123 174 120 173 c 0,0,1
EndSplineSet
EndChar

StartChar: asciitilde
Encoding: 126 126 97
Width: 311
GlyphClass: 2
Flags: W
LayerCount: 2
Back
Fore
SplineSet
207 171 m 0,0,1
 190 171 190 171 152 179 c 0,2,3
 120 185 120 185 108 185 c 0,4,5
 102 185 102 185 92 182 c 0,6,7
 87 180 87 180 80 178 c 128,-1,8
 73 176 73 176 65 174 c 2,9,-1
 61 175 l 2,10,11
 60 175 60 175 59 175.5 c 128,-1,12
 58 176 58 176 57 176 c 0,13,14
 55 178 55 178 55 181 c 2,15,-1
 55 200 l 2,16,17
 55 205 55 205 70 209.5 c 128,-1,18
 85 214 85 214 104 214 c 0,19,20
 114 214 114 214 127.5 213 c 128,-1,21
 141 212 141 212 159 208 c 0,22,23
 174 204 174 204 185 202 c 0,24,25
 191 200 191 200 195.5 200 c 128,-1,26
 200 200 200 200 203 200 c 0,27,28
 210 200 210 200 219 203 c 2,29,-1
 247 211 l 2,30,31
 251 211 251 211 253 210 c 0,32,33
 254 209 254 209 254.5 208.5 c 128,-1,34
 255 208 255 208 255 204 c 2,35,-1
 255 185 l 2,36,37
 255 177 255 177 240.5 174 c 128,-1,38
 226 171 226 171 207 171 c 0,0,1
EndSplineSet
EndChar

StartChar: cent
Encoding: 162 162 98
Width: 248
GlyphClass: 2
Flags: W
LayerCount: 2
Back
Fore
SplineSet
207 -1 m 2,0,-1
 164 -1 l 1,1,-1
 164 -45 l 2,2,3
 164 -49 164 -49 162 -51.5 c 128,-1,4
 160 -54 160 -54 158 -54 c 2,5,-1
 150 -54 l 2,6,7
 143 -54 143 -54 143 -45 c 2,8,-1
 143 -1 l 1,9,-1
 126 -1 l 2,10,11
 94 -1 94 -1 74.5 21 c 128,-1,12
 55 43 55 43 55 85 c 2,13,-1
 55 225 l 2,14,15
 55 268 55 268 74.5 289.5 c 128,-1,16
 94 311 94 311 126 311 c 2,17,-1
 143 311 l 1,18,-1
 143 364 l 2,19,20
 143 373 143 373 150 373 c 2,21,-1
 158 373 l 2,22,23
 160 373 160 373 162 371 c 128,-1,24
 164 369 164 369 164 364 c 2,25,-1
 164 311 l 1,26,-1
 207 311 l 2,27,28
 211 311 211 311 213 309.5 c 128,-1,29
 215 308 215 308 215 301 c 2,30,-1
 215 294 l 2,31,32
 215 285 215 285 207 285 c 2,33,-1
 126 285 l 2,34,35
 101 285 101 285 88.5 269.5 c 128,-1,36
 76 254 76 254 76 225 c 2,37,-1
 76 86 l 2,38,39
 76 57 76 57 88.5 41.5 c 128,-1,40
 101 26 101 26 126 26 c 2,41,-1
 207 26 l 2,42,43
 215 26 215 26 215 14 c 2,44,-1
 215 8 l 2,45,46
 215 4 215 4 212 1.5 c 128,-1,47
 209 -1 209 -1 207 -1 c 2,0,-1
EndSplineSet
EndChar

StartChar: copyright
Encoding: 169 169 99
Width: 441
GlyphClass: 2
Flags: W
LayerCount: 2
Back
Fore
SplineSet
306 0 m 2,0,-1
 136 0 l 2,1,2
 100 0 100 0 79 22.5 c 128,-1,3
 58 45 58 45 58 86 c 2,4,-1
 58 305 l 2,5,6
 58 345 58 345 79 368 c 128,-1,7
 100 391 100 391 136 391 c 2,8,-1
 306 391 l 2,9,10
 341 391 341 391 362.5 368 c 128,-1,11
 384 345 384 345 384 305 c 2,12,-1
 384 86 l 2,13,14
 384 45 384 45 362.5 22.5 c 128,-1,15
 341 0 341 0 306 0 c 2,0,-1
359 304 m 2,16,17
 359 365 359 365 306 365 c 2,18,-1
 136 365 l 2,19,20
 83 365 83 365 83 304 c 2,21,-1
 83 87 l 2,22,23
 83 26 83 26 136 26 c 2,24,-1
 306 26 l 2,25,26
 359 26 359 26 359 87 c 2,27,-1
 359 304 l 2,16,17
279 88 m 0,28,29
 258 69 258 69 225 69 c 2,30,-1
 213 69 l 2,31,32
 180 69 180 69 159 88 c 0,33,34
 141 104 141 104 141 143 c 2,35,-1
 141 242 l 2,36,37
 141 283 141 283 159 299 c 0,38,39
 167 307 167 307 180 311.5 c 128,-1,40
 193 316 193 316 213 316 c 2,41,-1
 225 316 l 2,42,43
 245 316 245 316 258 311.5 c 128,-1,44
 271 307 271 307 279 299 c 0,45,46
 297 283 297 283 297 242 c 2,47,-1
 297 239 l 2,48,49
 297 228 297 228 288 228 c 2,50,-1
 281 228 l 2,51,52
 276 228 276 228 276 230 c 0,53,54
 273 236 273 236 273 239 c 2,55,-1
 273 242 l 2,56,57
 273 268 273 268 262 279 c 0,58,59
 257 285 257 285 246.5 287.5 c 128,-1,60
 236 290 236 290 225 290 c 2,61,-1
 213 290 l 2,62,63
 202 290 202 290 191.5 287.5 c 128,-1,64
 181 285 181 285 176 279 c 0,65,66
 170 273 170 273 168 263.5 c 128,-1,67
 166 254 166 254 166 242 c 2,68,-1
 166 144 l 2,69,70
 166 115 166 115 176 105 c 128,-1,71
 186 95 186 95 213 95 c 2,72,-1
 225 95 l 2,73,74
 236 95 236 95 246.5 97.5 c 128,-1,75
 257 100 257 100 263 107 c 0,76,77
 273 118 273 118 273 144 c 2,78,-1
 273 145 l 2,79,80
 273 150 273 150 276 153 c 0,81,82
 276 154 276 154 281 154 c 2,83,-1
 288 154 l 2,84,85
 297 154 297 154 297 145 c 2,86,-1
 297 143 l 2,87,88
 297 104 297 104 279 88 c 0,28,29
EndSplineSet
EndChar

StartChar: registered
Encoding: 174 174 100
Width: 447
GlyphClass: 2
Flags: W
LayerCount: 2
Back
Fore
SplineSet
306 0 m 2,0,-1
 136 0 l 2,1,2
 100 0 100 0 79 22.5 c 128,-1,3
 58 45 58 45 58 86 c 2,4,-1
 58 305 l 2,5,6
 58 345 58 345 79 368 c 128,-1,7
 100 391 100 391 136 391 c 2,8,-1
 306 391 l 2,9,10
 341 391 341 391 362.5 368 c 128,-1,11
 384 345 384 345 384 305 c 2,12,-1
 384 86 l 2,13,14
 384 45 384 45 362.5 22.5 c 128,-1,15
 341 0 341 0 306 0 c 2,0,-1
359 304 m 2,16,17
 359 365 359 365 306 365 c 2,18,-1
 136 365 l 2,19,20
 83 365 83 365 83 304 c 2,21,-1
 83 87 l 2,22,23
 83 26 83 26 136 26 c 2,24,-1
 306 26 l 2,25,26
 359 26 359 26 359 87 c 2,27,-1
 359 304 l 2,16,17
304 78 m 2,28,-1
 290 78 l 2,29,30
 284 78 284 78 281 82 c 2,31,-1
 223 172 l 1,32,-1
 161 172 l 1,33,-1
 161 83 l 2,34,35
 161 78 161 78 154 78 c 2,36,-1
 145 78 l 2,37,38
 140 78 140 78 139.5 79 c 128,-1,39
 139 80 139 80 139 83 c 2,40,-1
 139 306 l 2,41,42
 139 311 139 311 142 311 c 128,-1,43
 145 311 145 311 150 311 c 2,44,-1
 234 311 l 2,45,46
 301 311 301 311 301 245 c 2,47,-1
 301 240 l 2,48,49
 301 217 301 217 289 200.5 c 128,-1,50
 277 184 277 184 246 171 c 1,51,-1
 307 81 l 2,52,53
 307 78 307 78 304 78 c 2,28,-1
279 244 m 2,54,55
 279 294 279 294 233 294 c 2,56,-1
 161 294 l 1,57,-1
 161 191 l 1,58,-1
 233 191 l 2,59,60
 279 191 279 191 279 240 c 2,61,-1
 279 244 l 2,54,55
EndSplineSet
EndChar

StartChar: onequarter
Encoding: 188 188 101
Width: 518
GlyphClass: 2
Flags: W
LayerCount: 2
Back
Fore
SplineSet
472 56 m 1,0,-1
 472 -7 l 1,1,-1
 457 -7 l 1,2,-1
 457 56 l 1,3,-1
 338 56 l 1,4,-1
 338 71 l 1,5,-1
 453 233 l 1,6,-1
 472 233 l 1,7,-1
 472 68 l 1,8,-1
 508 68 l 1,9,-1
 508 56 l 1,10,-1
 472 56 l 1,0,-1
141 -21 m 1,11,-1
 119 -21 l 1,12,-1
 393 442 l 1,13,-1
 414 442 l 1,14,-1
 141 -21 l 1,11,-1
49 386 m 1,15,16
 78 387 78 387 94.5 397 c 128,-1,17
 111 407 111 407 118 436 c 1,18,-1
 133 436 l 1,19,-1
 133 188 l 1,20,-1
 117 188 l 1,21,-1
 117 400 l 1,22,23
 107 390 107 390 98 387 c 128,-1,24
 89 384 89 384 78 382 c 0,25,26
 69 381 69 381 61 380.5 c 128,-1,27
 53 380 53 380 49 380 c 1,28,-1
 49 386 l 1,15,16
457 222 m 1,29,-1
 348 68 l 1,30,-1
 457 68 l 1,31,-1
 457 222 l 1,29,-1
EndSplineSet
EndChar

StartChar: onehalf
Encoding: 189 189 102
Width: 518
GlyphClass: 2
Flags: W
LayerCount: 2
Back
Fore
SplineSet
337 -7 m 1,0,-1
 337 -5 l 2,1,2
 337 22 337 22 351.5 42 c 128,-1,3
 366 62 366 62 401 83 c 2,4,-1
 426 98 l 2,5,6
 435 103 435 103 441.5 106.5 c 128,-1,7
 448 110 448 110 453 114 c 0,8,9
 459 117 459 117 463 120 c 128,-1,10
 467 123 467 123 472 127 c 0,11,12
 480 138 480 138 484.5 146.5 c 128,-1,13
 489 155 489 155 489 169 c 0,14,15
 489 198 489 198 472.5 213.5 c 128,-1,16
 456 229 456 229 427 229 c 0,17,18
 367 229 367 229 360 165 c 1,19,-1
 344 165 l 1,20,21
 349 206 349 206 369.5 223 c 128,-1,22
 390 240 390 240 428 240 c 0,23,24
 465 240 465 240 485 220.5 c 128,-1,25
 505 201 505 201 505 169 c 0,26,27
 505 142 505 142 484 121 c 0,28,29
 479 116 479 116 467 108 c 128,-1,30
 455 100 455 100 435 88 c 0,31,32
 425 83 425 83 412.5 76 c 128,-1,33
 400 69 400 69 389 60 c 0,34,35
 377 52 377 52 366.5 39 c 128,-1,36
 356 26 356 26 351 3 c 1,37,-1
 505 3 l 1,38,-1
 505 -7 l 1,39,-1
 337 -7 l 1,0,-1
141 -21 m 1,40,-1
 119 -21 l 1,41,-1
 393 442 l 1,42,-1
 414 442 l 1,43,-1
 141 -21 l 1,40,-1
49 386 m 1,44,45
 78 387 78 387 94.5 397 c 128,-1,46
 111 407 111 407 118 436 c 1,47,-1
 133 436 l 1,48,-1
 133 188 l 1,49,-1
 117 188 l 1,50,-1
 117 400 l 1,51,52
 107 390 107 390 98 387 c 128,-1,53
 89 384 89 384 78 382 c 0,54,55
 69 381 69 381 61 380.5 c 128,-1,56
 53 380 53 380 49 380 c 1,57,-1
 49 386 l 1,44,45
EndSplineSet
EndChar

StartChar: threequarters
Encoding: 190 190 103
Width: 518
GlyphClass: 2
Flags: W
LayerCount: 2
Back
Fore
SplineSet
472 56 m 1,0,-1
 472 -7 l 1,1,-1
 457 -7 l 1,2,-1
 457 56 l 1,3,-1
 338 56 l 1,4,-1
 338 71 l 1,5,-1
 452 233 l 1,6,-1
 472 233 l 1,7,-1
 472 68 l 1,8,-1
 508 68 l 1,9,-1
 508 56 l 1,10,-1
 472 56 l 1,0,-1
141 -21 m 1,11,-1
 119 -21 l 1,12,-1
 393 442 l 1,13,-1
 415 442 l 1,14,-1
 141 -21 l 1,11,-1
96 312 m 2,15,-1
 96 321 l 1,16,-1
 101 321 l 2,17,18
 132 321 132 321 150.5 334 c 128,-1,19
 169 347 169 347 169 375 c 0,20,21
 169 399 169 399 152 412 c 128,-1,22
 135 425 135 425 112 425 c 0,23,24
 86 425 86 425 69.5 412.5 c 128,-1,25
 53 400 53 400 51 369 c 1,26,-1
 35 369 l 1,27,28
 40 404 40 404 59.5 420 c 128,-1,29
 79 436 79 436 112 436 c 0,30,31
 147 436 147 436 165.5 419 c 128,-1,32
 184 402 184 402 184 375 c 0,33,34
 184 362 184 362 182 355 c 128,-1,35
 180 348 180 348 178 343 c 0,36,37
 174 337 174 337 171 334 c 0,38,39
 169 332 169 332 166.5 330 c 128,-1,40
 164 328 164 328 159 323 c 1,41,42
 165 316 165 316 168 313.5 c 128,-1,43
 171 311 171 311 173 309 c 0,44,45
 194 288 194 288 194 254 c 0,46,47
 194 222 194 222 172.5 202 c 128,-1,48
 151 182 151 182 109 182 c 0,49,50
 69 182 69 182 48.5 201 c 128,-1,51
 28 220 28 220 26 254 c 1,52,-1
 44 254 l 1,53,54
 48 221 48 221 64 206.5 c 128,-1,55
 80 192 80 192 109 192 c 0,56,57
 176 192 176 192 176 254 c 0,58,59
 176 284 176 284 156 298.5 c 128,-1,60
 136 313 136 313 102 313 c 0,61,62
 98 313 98 313 96 312 c 2,15,-1
457 222 m 1,63,-1
 348 68 l 1,64,-1
 457 68 l 1,65,-1
 457 222 l 1,63,-1
EndSplineSet
EndChar

StartChar: multiply
Encoding: 215 215 104
Width: 356
GlyphClass: 2
Flags: W
LayerCount: 2
Back
Fore
SplineSet
315 327 m 2,0,1
 314 324 314 324 313.5 323 c 128,-1,2
 313 322 313 322 312 320 c 2,3,-1
 194 193 l 1,4,-1
 313 66 l 2,5,6
 313 65 313 65 313.5 63 c 128,-1,7
 314 61 314 61 315 56 c 0,8,9
 315 55 315 55 313 52 c 2,10,-1
 304 43 l 2,11,12
 303 41 303 41 299 39 c 1,13,-1
 176 173 l 1,14,-1
 58 44 l 2,15,16
 58 42 58 42 53 41 c 2,17,-1
 52 41 l 2,18,19
 49 41 49 41 48 42 c 0,20,21
 47 44 47 44 45.5 46 c 128,-1,22
 44 48 44 48 42 50 c 0,23,24
 39 55 39 55 39 56 c 0,25,26
 40 61 40 61 40.5 62 c 128,-1,27
 41 63 41 63 41 64 c 2,28,-1
 158 192 l 1,29,-1
 41 320 l 2,30,31
 40 321 40 321 40 322 c 2,32,33
 40 322 40 322 38 328 c 1,34,-1
 39 330 l 1,35,-1
 42 333 l 1,36,-1
 49 341 l 2,37,38
 50 343 50 343 53 343 c 2,39,-1
 55 343 l 2,40,41
 56 343 56 343 60 341 c 2,42,-1
 177 212 l 1,43,-1
 293 340 l 2,44,45
 298 345 298 345 305 339 c 0,46,47
 307 337 307 337 308.5 335.5 c 128,-1,48
 310 334 310 334 312 332 c 2,49,-1
 314 331 l 1,50,-1
 315 330 l 1,51,-1
 315 327 l 2,0,1
EndSplineSet
EndChar

StartChar: divide
Encoding: 247 247 105
Width: 353
GlyphClass: 2
Flags: W
LayerCount: 2
Back
Fore
SplineSet
156 296 m 1,0,-1
 156 312 l 1,1,-1
 174 312 l 1,2,-1
 174 296 l 1,3,-1
 156 296 l 1,0,-1
12 168 m 1,4,-1
 12 188 l 1,5,-1
 309 188 l 1,6,-1
 309 168 l 1,7,-1
 12 168 l 1,4,-1
158 28 m 1,8,-1
 158 45 l 1,9,-1
 177 45 l 1,10,-1
 177 28 l 1,11,-1
 158 28 l 1,8,-1
EndSplineSet
EndChar

StartChar: uni0950
Encoding: 2384 2384 106
Width: 568
GlyphClass: 2
Flags: W
LayerCount: 2
Back
Fore
SplineSet
392 425 m 2,0,-1
 380 425 l 2,1,2
 373 425 373 425 373 433 c 2,3,-1
 373 452 l 2,4,5
 373 461 373 461 380 461 c 2,6,-1
 392 461 l 2,7,8
 400 461 400 461 400 452 c 2,9,-1
 400 433 l 2,10,11
 400 425 400 425 392 425 c 2,0,-1
405 347 m 2,12,-1
 366 347 l 2,13,14
 288 347 288 347 288 431 c 2,15,-1
 288 435 l 2,16,17
 288 443 288 443 296 443 c 2,18,-1
 305 443 l 2,19,20
 312 443 312 443 312 435 c 2,21,-1
 312 431 l 2,22,23
 312 399 312 399 322 385 c 128,-1,24
 332 371 332 371 366 371 c 2,25,-1
 405 371 l 2,26,27
 439 371 439 371 449 385 c 128,-1,28
 459 399 459 399 459 431 c 2,29,-1
 459 435 l 2,30,31
 459 443 459 443 467 443 c 2,32,-1
 476 443 l 2,33,34
 483 443 483 443 483 435 c 2,35,-1
 483 431 l 2,36,37
 483 347 483 347 405 347 c 2,12,-1
414 27 m 2,38,-1
 405 27 l 2,39,40
 364 27 364 27 344 47 c 128,-1,41
 324 67 324 67 324 111 c 2,42,-1
 324 175 l 1,43,-1
 246 175 l 1,44,-1
 246 121 l 2,45,46
 246 77 246 77 223.5 52 c 128,-1,47
 201 27 201 27 160 27 c 2,48,-1
 137 27 l 2,49,50
 96 27 96 27 73 50.5 c 128,-1,51
 50 74 50 74 50 121 c 2,52,-1
 50 147 l 2,53,54
 50 157 50 157 57 157 c 2,55,-1
 66 157 l 2,56,57
 74 157 74 157 74 147 c 2,58,-1
 74 122 l 2,59,60
 74 88 74 88 89.5 69.5 c 128,-1,61
 105 51 105 51 137 51 c 2,62,-1
 160 51 l 2,63,64
 192 51 192 51 207.5 69.5 c 128,-1,65
 223 88 223 88 223 122 c 2,66,-1
 223 152 l 2,67,68
 223 219 223 219 160 219 c 2,69,-1
 117 219 l 2,70,71
 113 219 113 219 111.5 220.5 c 128,-1,72
 110 222 110 222 110 228 c 2,73,-1
 110 237 l 2,74,75
 110 244 110 244 117 244 c 2,76,-1
 160 244 l 2,77,78
 191 244 191 244 207 262 c 128,-1,79
 223 280 223 280 223 312 c 2,80,-1
 223 330 l 2,81,82
 223 397 223 397 160 397 c 2,83,-1
 100 397 l 2,84,85
 92 397 92 397 92 406 c 2,86,-1
 92 413 l 2,87,88
 92 420 92 420 100 420 c 2,89,-1
 160 420 l 2,90,91
 201 420 201 420 223.5 397.5 c 128,-1,92
 246 375 246 375 246 330 c 2,93,-1
 246 311 l 2,94,95
 246 287 246 287 237.5 268.5 c 128,-1,96
 229 250 229 250 208 233 c 1,97,98
 221 222 221 222 226 215.5 c 128,-1,99
 231 209 231 209 238 198 c 1,100,-1
 321 198 l 2,101,102
 347 198 347 198 347 170 c 2,103,-1
 347 112 l 2,104,105
 347 77 347 77 359.5 64 c 128,-1,106
 372 51 372 51 405 51 c 2,107,-1
 414 51 l 2,108,109
 446 51 446 51 458.5 64 c 128,-1,110
 471 77 471 77 471 112 c 2,111,-1
 471 215 l 2,112,113
 471 280 471 280 415 280 c 2,114,-1
 341 280 l 2,115,116
 333 280 333 280 333 290 c 2,117,-1
 333 297 l 2,118,119
 333 305 333 305 341 305 c 2,120,-1
 414 305 l 2,121,122
 452 305 452 305 473.5 283.5 c 128,-1,123
 495 262 495 262 495 215 c 2,124,-1
 495 111 l 2,125,126
 495 67 495 67 475 47 c 128,-1,127
 455 27 455 27 414 27 c 2,38,-1
EndSplineSet
EndChar

StartChar: uni0951
Encoding: 2385 2385 107
Width: 0
GlyphClass: 2
Flags: W
LayerCount: 2
Back
Fore
SplineSet
-210 667 m 1,0,-1
 -210 1020 l 1,1,-1
 -187 1020 l 1,2,-1
 -187 667 l 1,3,-1
 -210 667 l 1,0,-1
EndSplineSet
EndChar

StartChar: uni0952
Encoding: 2386 2386 108
Width: 0
GlyphClass: 2
Flags: W
LayerCount: 2
Back
Fore
SplineSet
-493 -362 m 1,0,-1
 -494 -316 l 1,1,-1
 -61 -316 l 1,2,-1
 -60 -362 l 1,3,-1
 -493 -362 l 1,0,-1
EndSplineSet
EndChar

StartChar: uni0964
Encoding: 2404 2404 109
Width: 109
GlyphClass: 2
Flags: W
LayerCount: 2
Back
Fore
SplineSet
13 0 m 1,0,-1
 13 301 l 1,1,-1
 38 301 l 1,2,-1
 38 0 l 1,3,-1
 13 0 l 1,0,-1
EndSplineSet
EndChar

StartChar: uni0965
Encoding: 2405 2405 110
Width: 262
GlyphClass: 2
Flags: W
LayerCount: 2
Back
Fore
SplineSet
153 0 m 1,0,-1
 153 301 l 1,1,-1
 178 301 l 1,2,-1
 178 0 l 1,3,-1
 153 0 l 1,0,-1
43 0 m 1,4,-1
 43 301 l 1,5,-1
 68 301 l 1,6,-1
 68 0 l 1,7,-1
 43 0 l 1,4,-1
EndSplineSet
EndChar

StartChar: uni0C01
Encoding: 3073 3073 111
Width: 214
GlyphClass: 2
Flags: W
LayerCount: 2
Back
Fore
SplineSet
61 0 m 2,0,1
 43 0 43 0 28 15.5 c 128,-1,2
 13 31 13 31 13 58 c 2,3,-1
 13 271 l 2,4,5
 13 296 13 296 28.5 312 c 128,-1,6
 44 328 44 328 61 328 c 2,7,-1
 149 328 l 1,8,-1
 149 303 l 1,9,-1
 64 303 l 2,10,11
 34 303 34 303 34 271 c 2,12,-1
 34 58 l 2,13,14
 34 43 34 43 41.5 34 c 128,-1,15
 49 25 49 25 64 25 c 2,16,-1
 149 25 l 1,17,-1
 149 0 l 1,18,-1
 61 0 l 2,0,1
EndSplineSet
EndChar

StartChar: uni0C02
Encoding: 3074 3074 112
Width: 313
GlyphClass: 2
Flags: W
LayerCount: 2
Back
Fore
SplineSet
204 0 m 2,0,-1
 67 0 l 2,1,2
 49 0 49 0 33.5 15.5 c 128,-1,3
 18 31 18 31 18 58 c 2,4,-1
 18 271 l 2,5,6
 18 296 18 296 33.5 312 c 128,-1,7
 49 328 49 328 67 328 c 2,8,-1
 202 328 l 2,9,10
 220 328 220 328 235.5 312 c 128,-1,11
 251 296 251 296 251 271 c 2,12,-1
 251 58 l 2,13,14
 251 40 251 40 245 29 c 128,-1,15
 239 18 239 18 231 11.5 c 128,-1,16
 223 5 223 5 215.5 2.5 c 128,-1,17
 208 0 208 0 204 0 c 2,0,-1
229 271 m 2,18,19
 229 287 229 287 220.5 295 c 128,-1,20
 212 303 212 303 200 303 c 2,21,-1
 70 303 l 2,22,23
 40 303 40 303 40 271 c 2,24,-1
 40 58 l 2,25,26
 40 43 40 43 47.5 34 c 128,-1,27
 55 25 55 25 70 25 c 2,28,-1
 200 25 l 2,29,30
 213 25 213 25 221 34 c 128,-1,31
 229 43 229 43 229 58 c 2,32,-1
 229 271 l 2,18,19
EndSplineSet
EndChar

StartChar: uni0C03
Encoding: 3075 3075 113
Width: 221
GlyphClass: 2
Flags: W
LayerCount: 2
Back
Fore
SplineSet
100 195 m 2,0,-1
 61 195 l 2,1,2
 44 195 44 195 28.5 210.5 c 128,-1,3
 13 226 13 226 13 252 c 2,4,-1
 13 271 l 2,5,6
 13 296 13 296 28.5 312 c 128,-1,7
 44 328 44 328 61 328 c 2,8,-1
 100 328 l 2,9,10
 119 328 119 328 134 312 c 128,-1,11
 149 296 149 296 149 271 c 2,12,-1
 149 252 l 2,13,14
 149 226 149 226 134 210.5 c 128,-1,15
 119 195 119 195 100 195 c 2,0,-1
100 0 m 2,16,-1
 61 0 l 2,17,18
 43 0 43 0 28 15.5 c 128,-1,19
 13 31 13 31 13 58 c 2,20,-1
 13 75 l 2,21,22
 13 100 13 100 28 115.5 c 128,-1,23
 43 131 43 131 61 131 c 2,24,-1
 100 131 l 2,25,26
 120 131 120 131 134.5 115.5 c 128,-1,27
 149 100 149 100 149 75 c 2,28,-1
 149 58 l 2,29,30
 149 31 149 31 134.5 15.5 c 128,-1,31
 120 0 120 0 100 0 c 2,16,-1
128 271 m 2,32,33
 128 303 128 303 98 303 c 2,34,-1
 64 303 l 2,35,36
 34 303 34 303 34 271 c 2,37,-1
 34 252 l 2,38,39
 34 219 34 219 64 219 c 2,40,-1
 98 219 l 2,41,42
 128 219 128 219 128 252 c 2,43,-1
 128 271 l 2,32,33
128 75 m 2,44,45
 128 108 128 108 98 108 c 2,46,-1
 64 108 l 2,47,48
 34 108 34 108 34 75 c 2,49,-1
 34 58 l 2,50,51
 34 43 34 43 41.5 34 c 128,-1,52
 49 25 49 25 64 25 c 2,53,-1
 98 25 l 2,54,55
 113 25 113 25 120.5 34 c 128,-1,56
 128 43 128 43 128 58 c 2,57,-1
 128 75 l 2,44,45
EndSplineSet
EndChar

StartChar: uni0C05
Encoding: 3077 3077 114
Width: 384
GlyphClass: 2
Flags: W
LayerCount: 2
Back
Fore
SplineSet
276 0 m 2,0,-1
 63 0 l 2,1,2
 43 0 43 0 28 15.5 c 128,-1,3
 13 31 13 31 13 58 c 2,4,-1
 13 270 l 2,5,6
 13 297 13 297 28 312.5 c 128,-1,7
 43 328 43 328 63 328 c 2,8,-1
 94 328 l 2,9,10
 112 328 112 328 128 312.5 c 128,-1,11
 144 297 144 297 144 270 c 2,12,-1
 144 238 l 2,13,14
 144 211 144 211 128 195.5 c 128,-1,15
 112 180 112 180 94 180 c 2,16,-1
 35 180 l 1,17,-1
 35 58 l 2,18,19
 35 42 35 42 44 33.5 c 128,-1,20
 53 25 53 25 65 25 c 2,21,-1
 274 25 l 2,22,23
 286 25 286 25 295 33.5 c 128,-1,24
 304 42 304 42 304 58 c 2,25,-1
 304 271 l 2,26,27
 304 303 304 303 274 303 c 2,28,-1
 247 303 l 2,29,30
 236 303 236 303 226.5 295.5 c 128,-1,31
 217 288 217 288 217 271 c 2,32,-1
 217 156 l 2,33,34
 217 140 217 140 209 124 c 128,-1,35
 201 108 201 108 184 108 c 2,36,-1
 83 108 l 1,37,-1
 83 132 l 1,38,-1
 158 132 l 2,39,40
 182 132 182 132 188.5 146 c 128,-1,41
 195 160 195 160 195 174 c 2,42,-1
 195 270 l 2,43,44
 195 297 195 297 211 312.5 c 128,-1,45
 227 328 227 328 245 328 c 2,46,-1
 276 328 l 2,47,48
 296 328 296 328 311 312.5 c 128,-1,49
 326 297 326 297 326 270 c 2,50,-1
 326 58 l 2,51,52
 326 31 326 31 311 15.5 c 128,-1,53
 296 0 296 0 276 0 c 2,0,-1
121 271 m 2,54,55
 121 303 121 303 92 303 c 2,56,-1
 65 303 l 2,57,58
 35 303 35 303 35 271 c 2,59,-1
 35 204 l 1,60,-1
 92 204 l 2,61,62
 106 204 106 204 113.5 213 c 128,-1,63
 121 222 121 222 121 237 c 2,64,-1
 121 271 l 2,54,55
EndSplineSet
EndChar

StartChar: uni0C06
Encoding: 3078 3078 115
Width: 375
GlyphClass: 2
Flags: W
LayerCount: 2
Back
Fore
SplineSet
264 0 m 2,0,-1
 63 0 l 2,1,2
 43 0 43 0 28 15.5 c 128,-1,3
 13 31 13 31 13 58 c 2,4,-1
 13 270 l 2,5,6
 13 297 13 297 28 312.5 c 128,-1,7
 43 328 43 328 63 328 c 2,8,-1
 94 328 l 2,9,10
 112 328 112 328 128 312.5 c 128,-1,11
 144 297 144 297 144 270 c 2,12,-1
 144 238 l 2,13,14
 144 211 144 211 128 195.5 c 128,-1,15
 112 180 112 180 94 180 c 2,16,-1
 35 180 l 1,17,-1
 35 58 l 2,18,19
 35 44 35 44 41.5 34.5 c 128,-1,20
 48 25 48 25 63 25 c 2,21,-1
 262 25 l 2,22,23
 274 25 274 25 283 33.5 c 128,-1,24
 292 42 292 42 292 58 c 2,25,-1
 292 75 l 2,26,27
 292 108 292 108 262 108 c 2,28,-1
 86 108 l 1,29,-1
 86 132 l 1,30,-1
 215 132 l 2,31,32
 207 132 207 132 200 140 c 128,-1,33
 193 148 193 148 193 172 c 2,34,-1
 193 270 l 2,35,36
 193 297 193 297 209 312.5 c 128,-1,37
 225 328 225 328 243 328 c 2,38,-1
 264 328 l 2,39,40
 282 328 282 328 298 312.5 c 128,-1,41
 314 297 314 297 314 270 c 2,42,-1
 314 173 l 2,43,44
 314 150 314 150 301.5 136.5 c 128,-1,45
 289 123 289 123 278 123 c 1,46,47
 286 123 286 123 293 118.5 c 128,-1,48
 300 114 300 114 304.5 108 c 128,-1,49
 309 102 309 102 311.5 96 c 128,-1,50
 314 90 314 90 314 87 c 2,51,-1
 314 58 l 2,52,53
 314 31 314 31 298 15.5 c 128,-1,54
 282 0 282 0 264 0 c 2,0,-1
292 271 m 2,55,56
 292 303 292 303 262 303 c 2,57,-1
 245 303 l 2,58,59
 234 303 234 303 224.5 295.5 c 128,-1,60
 215 288 215 288 215 271 c 2,61,-1
 215 169 l 2,62,63
 215 153 215 153 224.5 145 c 128,-1,64
 234 137 234 137 245 137 c 2,65,-1
 262 137 l 2,66,67
 274 137 274 137 283 146 c 128,-1,68
 292 155 292 155 292 169 c 2,69,-1
 292 271 l 2,55,56
121 271 m 2,70,71
 121 303 121 303 92 303 c 2,72,-1
 65 303 l 2,73,74
 35 303 35 303 35 271 c 2,75,-1
 35 204 l 1,76,-1
 92 204 l 2,77,78
 106 204 106 204 113.5 213 c 128,-1,79
 121 222 121 222 121 237 c 2,80,-1
 121 271 l 2,70,71
EndSplineSet
EndChar

StartChar: uni0C07
Encoding: 3079 3079 116
Width: 411
GlyphClass: 2
Flags: W
LayerCount: 2
Back
Fore
SplineSet
329 -1 m 1,0,-1
 329 119 l 2,1,2
 329 135 329 135 320 144 c 128,-1,3
 311 153 311 153 299 153 c 2,4,-1
 273 153 l 1,5,-1
 273 57 l 2,6,7
 273 30 273 30 257.5 14.5 c 128,-1,8
 242 -1 242 -1 224 -1 c 2,9,-1
 62 -1 l 2,10,11
 44 -1 44 -1 28.5 14.5 c 128,-1,12
 13 30 13 30 13 57 c 2,13,-1
 13 119 l 2,14,15
 13 146 13 146 28.5 162 c 128,-1,16
 44 178 44 178 62 178 c 2,17,-1
 251 178 l 1,18,-1
 251 270 l 2,19,20
 251 286 251 286 242.5 294.5 c 128,-1,21
 234 303 234 303 222 303 c 2,22,-1
 183 303 l 2,23,24
 168 303 168 303 160.5 294 c 128,-1,25
 153 285 153 285 153 270 c 2,26,-1
 153 260 l 1,27,-1
 132 260 l 1,28,-1
 132 270 l 2,29,30
 132 286 132 286 122.5 294.5 c 128,-1,31
 113 303 113 303 101 303 c 2,32,-1
 65 303 l 2,33,34
 50 303 50 303 42.5 294 c 128,-1,35
 35 285 35 285 35 270 c 2,36,-1
 35 239 l 1,37,-1
 13 239 l 1,38,-1
 13 270 l 2,39,40
 13 297 13 297 28.5 312.5 c 128,-1,41
 44 328 44 328 62 328 c 2,42,-1
 103 328 l 2,43,44
 107 328 107 328 113 327.5 c 128,-1,45
 119 327 119 327 125 324.5 c 128,-1,46
 131 322 131 322 136 316 c 128,-1,47
 141 310 141 310 143 299 c 1,48,49
 146 322 146 322 155.5 325 c 128,-1,50
 165 328 165 328 171 328 c 2,51,-1
 224 328 l 2,52,53
 242 328 242 328 257.5 312.5 c 128,-1,54
 273 297 273 297 273 270 c 2,55,-1
 273 178 l 1,56,-1
 305 178 l 2,57,58
 323 178 323 178 336.5 164 c 128,-1,59
 350 150 350 150 350 123 c 2,60,-1
 350 -1 l 1,61,-1
 329 -1 l 1,0,-1
251 153 m 1,62,-1
 65 153 l 2,63,64
 53 153 53 153 44 144 c 128,-1,65
 35 135 35 135 35 119 c 2,66,-1
 35 57 l 2,67,68
 35 41 35 41 44 32.5 c 128,-1,69
 53 24 53 24 65 24 c 2,70,-1
 223 24 l 2,71,72
 238 24 238 24 244.5 33.5 c 128,-1,73
 251 43 251 43 251 57 c 2,74,-1
 251 153 l 1,62,-1
EndSplineSet
EndChar

StartChar: uni0C08
Encoding: 3080 3080 117
Width: 521
GlyphClass: 2
Flags: W
LayerCount: 2
Back
Fore
SplineSet
455 134 m 1,0,-1
 455 49 l 2,1,2
 455 25 455 25 442.5 12.5 c 128,-1,3
 430 0 430 0 415 0 c 2,4,-1
 376 0 l 2,5,6
 359 0 359 0 345.5 13.5 c 128,-1,7
 332 27 332 27 332 49 c 2,8,-1
 332 147 l 1,9,-1
 332 148 l 2,10,11
 334 150 334 150 335 154.5 c 128,-1,12
 336 159 336 159 341 170 c 1,13,-1
 272 170 l 1,14,-1
 272 49 l 2,15,16
 272 27 272 27 259 13.5 c 128,-1,17
 246 0 246 0 229 0 c 2,18,-1
 96 0 l 2,19,20
 79 0 79 0 67 12.5 c 128,-1,21
 55 25 55 25 55 49 c 2,22,-1
 55 170 l 1,23,-1
 13 170 l 1,24,-1
 13 194 l 1,25,-1
 55 194 l 1,26,-1
 55 274 l 2,27,28
 55 283 55 283 59.5 292.5 c 128,-1,29
 64 302 64 302 78 316 c 1,30,31
 69 330 69 330 66 338 c 128,-1,32
 63 346 63 346 63 351 c 2,33,-1
 63 391 l 1,34,-1
 85 391 l 1,35,-1
 85 356 l 2,36,37
 85 338 85 338 94.5 332 c 128,-1,38
 104 326 104 326 115 324 c 2,39,-1
 165 324 l 1,40,-1
 165 382 l 2,41,42
 165 404 165 404 178.5 418 c 128,-1,43
 192 432 192 432 209 432 c 2,44,-1
 270 432 l 1,45,-1
 270 408 l 1,46,-1
 215 408 l 2,47,48
 201 408 201 408 195 398 c 128,-1,49
 189 388 189 388 189 377 c 2,50,-1
 189 324 l 1,51,-1
 229 324 l 2,52,53
 246 324 246 324 259 310.5 c 128,-1,54
 272 297 272 297 272 274 c 2,55,-1
 272 194 l 1,56,-1
 406 194 l 2,57,58
 432 194 432 194 432 223 c 2,59,-1
 432 270 l 2,60,61
 432 299 432 299 406 299 c 2,62,-1
 383 299 l 2,63,64
 370 299 370 299 362 292 c 128,-1,65
 354 285 354 285 354 270 c 2,66,-1
 354 262 l 1,67,-1
 332 262 l 1,68,-1
 332 274 l 2,69,70
 332 305 332 305 341 314.5 c 128,-1,71
 350 324 350 324 373 324 c 2,72,-1
 415 324 l 2,73,74
 455 324 455 324 455 274 c 2,75,-1
 455 219 l 2,76,77
 455 212 455 212 452 203.5 c 128,-1,78
 449 195 449 195 434 179 c 1,79,80
 443 171 443 171 445.5 168 c 128,-1,81
 448 165 448 165 449 163 c 0,82,83
 451 161 451 161 451.5 157.5 c 128,-1,84
 452 154 452 154 453 151 c 2,85,-1
 455 134 l 1,0,-1
432 141 m 2,86,87
 432 169 432 169 406 169 c 2,88,-1
 381 169 l 2,89,90
 354 169 354 169 354 141 c 2,91,-1
 354 52 l 2,92,93
 354 24 354 24 381 24 c 2,94,-1
 406 24 l 2,95,96
 432 24 432 24 432 52 c 2,97,-1
 432 141 l 2,86,87
250 270 m 2,98,99
 250 284 250 284 242 291.5 c 128,-1,100
 234 299 234 299 222 299 c 2,101,-1
 107 299 l 2,102,103
 93 299 93 299 85 292 c 128,-1,104
 77 285 77 285 77 270 c 2,105,-1
 77 194 l 1,106,-1
 250 194 l 1,107,-1
 250 270 l 2,98,99
250 170 m 1,108,-1
 77 170 l 1,109,-1
 77 52 l 2,110,111
 77 38 77 38 86.5 31 c 128,-1,112
 96 24 96 24 107 24 c 2,113,-1
 222 24 l 2,114,115
 233 24 233 24 241.5 31 c 128,-1,116
 250 38 250 38 250 52 c 2,117,-1
 250 170 l 1,108,-1
EndSplineSet
EndChar

StartChar: uni0C09
Encoding: 3081 3081 118
Width: 359
GlyphClass: 2
Flags: W
LayerCount: 2
Back
Fore
SplineSet
248 0 m 2,0,-1
 199 0 l 2,1,2
 197 -1 197 -1 189 1.5 c 128,-1,3
 181 4 181 4 163 21 c 1,4,5
 151 9 151 9 141.5 4.5 c 128,-1,6
 132 0 132 0 122 0 c 2,7,-1
 74 0 l 2,8,9
 59 0 59 0 45.5 14 c 128,-1,10
 32 28 32 28 32 48 c 2,11,-1
 32 171 l 1,12,-1
 13 171 l 1,13,-1
 13 195 l 1,14,-1
 32 195 l 1,15,-1
 32 277 l 2,16,17
 32 299 32 299 45.5 312 c 128,-1,18
 59 325 59 325 74 325 c 2,19,-1
 149 325 l 1,20,-1
 149 390 l 1,21,-1
 171 390 l 1,22,-1
 171 325 l 1,23,-1
 248 325 l 2,24,25
 265 325 265 325 278.5 312 c 128,-1,26
 292 299 292 299 292 277 c 2,27,-1
 292 259 l 1,28,-1
 270 259 l 1,29,-1
 270 273 l 2,30,31
 270 284 270 284 264.5 292.5 c 128,-1,32
 259 301 259 301 245 301 c 2,33,-1
 80 301 l 2,34,35
 53 301 53 301 53 273 c 2,36,-1
 53 195 l 1,37,-1
 162 195 l 1,38,-1
 162 171 l 1,39,-1
 53 171 l 1,40,-1
 53 55 l 2,41,42
 53 41 53 41 59.5 32.5 c 128,-1,43
 66 24 66 24 80 24 c 2,44,-1
 123 24 l 2,45,46
 139 24 139 24 145 33 c 128,-1,47
 151 42 151 42 151 54 c 2,48,-1
 151 77 l 1,49,-1
 173 77 l 1,50,-1
 173 55 l 2,51,52
 173 41 173 41 179.5 32.5 c 128,-1,53
 186 24 186 24 200 24 c 2,54,-1
 245 24 l 2,55,56
 259 24 259 24 264.5 34.5 c 128,-1,57
 270 45 270 45 270 56 c 2,58,-1
 270 141 l 2,59,60
 270 153 270 153 264.5 162 c 128,-1,61
 259 171 259 171 245 171 c 2,62,-1
 232 171 l 1,63,-1
 232 195 l 1,64,-1
 248 195 l 2,65,66
 265 195 265 195 278.5 182 c 128,-1,67
 292 169 292 169 292 147 c 2,68,-1
 292 50 l 2,69,70
 292 28 292 28 278.5 14 c 128,-1,71
 265 0 265 0 248 0 c 2,0,-1
EndSplineSet
EndChar

StartChar: uni0C0A
Encoding: 3082 3082 119
Width: 534
GlyphClass: 2
Flags: W
LayerCount: 2
Back
Fore
SplineSet
468 135 m 2,0,-1
 468 47 l 2,1,2
 468 25 468 25 455 12.5 c 128,-1,3
 442 0 442 0 425 0 c 2,4,-1
 389 0 l 2,5,6
 372 0 372 0 359 12.5 c 128,-1,7
 346 25 346 25 346 47 c 2,8,-1
 346 130 l 2,9,10
 346 136 346 136 347.5 143.5 c 128,-1,11
 349 151 349 151 354 168 c 1,12,-1
 307 168 l 1,13,-1
 307 192 l 1,14,-1
 420 192 l 2,15,16
 431 192 431 192 438.5 198 c 128,-1,17
 446 204 446 204 446 217 c 2,18,-1
 446 272 l 2,19,20
 446 301 446 301 420 301 c 2,21,-1
 391 301 l 2,22,23
 377 301 377 301 371.5 290.5 c 128,-1,24
 366 280 366 280 366 272 c 2,25,-1
 366 247 l 1,26,-1
 343 247 l 1,27,-1
 343 276 l 2,28,29
 343 297 343 297 356 311 c 128,-1,30
 369 325 369 325 386 325 c 2,31,-1
 425 325 l 2,32,33
 442 325 442 325 455 311 c 128,-1,34
 468 297 468 297 468 276 c 2,35,-1
 468 218 l 2,36,37
 468 203 468 203 464.5 196.5 c 128,-1,38
 461 190 461 190 447 176 c 1,39,40
 468 165 468 165 468 135 c 2,0,-1
248 0 m 2,41,-1
 199 0 l 2,42,43
 197 -1 197 -1 189 1.5 c 128,-1,44
 181 4 181 4 163 21 c 1,45,46
 151 9 151 9 141.5 4.5 c 128,-1,47
 132 0 132 0 122 0 c 2,48,-1
 74 0 l 2,49,50
 59 0 59 0 45.5 14 c 128,-1,51
 32 28 32 28 32 48 c 2,52,-1
 32 171 l 1,53,-1
 13 171 l 1,54,-1
 13 195 l 1,55,-1
 32 195 l 1,56,-1
 32 277 l 2,57,58
 32 299 32 299 45.5 312 c 128,-1,59
 59 325 59 325 74 325 c 2,60,-1
 111 325 l 1,61,-1
 111 388 l 1,62,-1
 134 388 l 1,63,-1
 134 325 l 1,64,-1
 192 325 l 1,65,-1
 192 388 l 1,66,-1
 215 388 l 1,67,-1
 215 325 l 1,68,-1
 248 325 l 2,69,70
 265 325 265 325 278.5 312 c 128,-1,71
 292 299 292 299 292 277 c 2,72,-1
 292 259 l 1,73,-1
 270 259 l 1,74,-1
 270 273 l 2,75,76
 270 284 270 284 264.5 292.5 c 128,-1,77
 259 301 259 301 245 301 c 2,78,-1
 80 301 l 2,79,80
 53 301 53 301 53 273 c 2,81,-1
 53 195 l 1,82,-1
 162 195 l 1,83,-1
 162 171 l 1,84,-1
 53 171 l 1,85,-1
 53 55 l 2,86,87
 53 41 53 41 59.5 32.5 c 128,-1,88
 66 24 66 24 80 24 c 2,89,-1
 123 24 l 2,90,91
 139 24 139 24 145 33.5 c 128,-1,92
 151 43 151 43 151 54 c 2,93,-1
 151 77 l 1,94,-1
 173 77 l 1,95,-1
 173 55 l 2,96,97
 173 41 173 41 179.5 32.5 c 128,-1,98
 186 24 186 24 200 24 c 2,99,-1
 245 24 l 2,100,101
 259 24 259 24 264.5 34.5 c 128,-1,102
 270 45 270 45 270 56 c 2,103,-1
 270 141 l 2,104,105
 270 153 270 153 264.5 162 c 128,-1,106
 259 171 259 171 245 171 c 2,107,-1
 232 171 l 1,108,-1
 232 195 l 1,109,-1
 248 195 l 2,110,111
 265 195 265 195 278.5 182 c 128,-1,112
 292 169 292 169 292 147 c 2,113,-1
 292 50 l 2,114,115
 292 28 292 28 278.5 14 c 128,-1,116
 265 0 265 0 248 0 c 2,41,-1
446 135 m 2,117,118
 446 149 446 149 439.5 157 c 128,-1,119
 433 165 433 165 420 165 c 2,120,-1
 394 165 l 2,121,122
 380 165 380 165 374.5 156.5 c 128,-1,123
 369 148 369 148 369 135 c 2,124,-1
 369 49 l 2,125,126
 369 24 369 24 394 24 c 2,127,-1
 420 24 l 2,128,129
 431 24 431 24 438.5 30.5 c 128,-1,130
 446 37 446 37 446 49 c 2,131,-1
 446 135 l 2,117,118
EndSplineSet
EndChar

StartChar: uni0C0B
Encoding: 3083 3083 120
Width: 608
GlyphClass: 2
Flags: W
LayerCount: 2
Back
Fore
SplineSet
500 0 m 2,0,-1
 450 0 l 2,1,2
 441 0 441 0 430.5 5 c 128,-1,3
 420 10 420 10 408 27 c 1,4,5
 392 11 392 11 382.5 5.5 c 128,-1,6
 373 0 373 0 364 0 c 2,7,-1
 314 0 l 2,8,9
 306 0 306 0 295 5.5 c 128,-1,10
 284 11 284 11 272 28 c 1,11,12
 256 11 256 11 246 5.5 c 128,-1,13
 236 0 236 0 227 0 c 2,14,-1
 179 0 l 2,15,16
 173 0 173 0 164.5 4.5 c 128,-1,17
 156 9 156 9 144 26 c 1,18,19
 134 8 134 8 125 4 c 128,-1,20
 116 0 116 0 105 0 c 2,21,-1
 63 0 l 2,22,23
 43 0 43 0 28 15.5 c 128,-1,24
 13 31 13 31 13 58 c 2,25,-1
 13 140 l 2,26,27
 13 167 13 167 28 182.5 c 128,-1,28
 43 198 43 198 63 198 c 2,29,-1
 102 198 l 2,30,31
 133 198 133 198 133 231 c 2,32,-1
 133 271 l 2,33,34
 133 303 133 303 102 303 c 2,35,-1
 65 303 l 2,36,37
 35 303 35 303 35 271 c 2,38,-1
 35 260 l 1,39,-1
 13 260 l 1,40,-1
 13 270 l 2,41,42
 13 297 13 297 28 312.5 c 128,-1,43
 43 328 43 328 63 328 c 2,44,-1
 104 328 l 2,45,46
 124 328 124 328 139 312.5 c 128,-1,47
 154 297 154 297 154 270 c 2,48,-1
 154 232 l 2,49,50
 154 204 154 204 139 188.5 c 128,-1,51
 124 173 124 173 104 173 c 2,52,-1
 65 173 l 2,53,54
 53 173 53 173 44 164.5 c 128,-1,55
 35 156 35 156 35 140 c 2,56,-1
 35 58 l 2,57,58
 35 42 35 42 44 33.5 c 128,-1,59
 53 25 53 25 65 25 c 2,60,-1
 102 25 l 2,61,62
 118 25 118 25 125.5 34 c 128,-1,63
 133 43 133 43 133 58 c 2,64,-1
 133 78 l 1,65,-1
 154 78 l 1,66,-1
 154 58 l 2,67,68
 154 43 154 43 161.5 34 c 128,-1,69
 169 25 169 25 185 25 c 2,70,-1
 225 25 l 2,71,72
 237 25 237 25 246 33.5 c 128,-1,73
 255 42 255 42 255 58 c 2,74,-1
 255 271 l 2,75,76
 255 303 255 303 225 303 c 2,77,-1
 214 303 l 1,78,-1
 214 328 l 1,79,-1
 227 328 l 2,80,81
 245 328 245 328 261 312.5 c 128,-1,82
 277 297 277 297 277 270 c 2,83,-1
 277 77 l 2,84,85
 277 53 277 53 288 39.5 c 128,-1,86
 299 26 299 26 316 26 c 2,87,-1
 362 26 l 2,88,89
 374 26 374 26 383 34.5 c 128,-1,90
 392 43 392 43 392 59 c 2,91,-1
 392 272 l 2,92,93
 392 304 392 304 362 304 c 2,94,-1
 360 304 l 1,95,-1
 360 329 l 1,96,-1
 364 329 l 2,97,98
 382 329 382 329 397.5 313.5 c 128,-1,99
 413 298 413 298 413 271 c 2,100,-1
 413 76 l 2,101,102
 413 52 413 52 424 38.5 c 128,-1,103
 435 25 435 25 452 25 c 2,104,-1
 498 25 l 2,105,106
 510 25 510 25 519 33.5 c 128,-1,107
 528 42 528 42 528 58 c 2,108,-1
 528 271 l 2,109,110
 528 303 528 303 498 303 c 2,111,-1
 496 303 l 1,112,-1
 496 328 l 1,113,-1
 500 328 l 2,114,115
 518 328 518 328 533.5 312.5 c 128,-1,116
 549 297 549 297 549 270 c 2,117,-1
 549 58 l 2,118,119
 549 31 549 31 533.5 15.5 c 128,-1,120
 518 0 518 0 500 0 c 2,0,-1
EndSplineSet
EndChar

StartChar: uni0C0C
Encoding: 3084 3084 121
Width: 362
GlyphClass: 2
Flags: W
LayerCount: 2
Back
Fore
SplineSet
64 175 m 1,0,-1
 64 154 l 1,1,-1
 63 154 l 2,2,3
 43 154 43 154 28.5 169.5 c 128,-1,4
 14 185 14 185 14 211 c 2,5,-1
 14 270 l 2,6,7
 14 297 14 297 29 312.5 c 128,-1,8
 44 328 44 328 63 328 c 2,9,-1
 110 328 l 2,10,11
 117 328 117 328 125 325 c 128,-1,12
 133 322 133 322 146 311 c 1,13,14
 160 322 160 322 169 325 c 128,-1,15
 178 328 178 328 185 328 c 2,16,-1
 229 328 l 2,17,18
 248 328 248 328 263 312.5 c 128,-1,19
 278 297 278 297 278 270 c 2,20,-1
 278 189 l 2,21,22
 278 162 278 162 262 148.5 c 128,-1,23
 246 135 246 135 229 130 c 2,24,-1
 154 110 l 2,25,26
 142 107 142 107 131.5 95.5 c 128,-1,27
 121 84 121 84 121 67 c 2,28,-1
 121 -84 l 2,29,30
 121 -118 121 -118 153 -118 c 2,31,-1
 226 -118 l 2,32,33
 258 -118 258 -118 258 -84 c 2,34,-1
 258 30 l 1,35,-1
 278 30 l 1,36,-1
 278 -84 l 2,37,38
 278 -110 278 -110 263 -125.5 c 128,-1,39
 248 -141 248 -141 229 -141 c 2,40,-1
 151 -141 l 2,41,42
 131 -141 131 -141 116 -125.5 c 128,-1,43
 101 -110 101 -110 101 -83 c 2,44,-1
 101 75 l 2,45,46
 101 101 101 101 116.5 114.5 c 128,-1,47
 132 128 132 128 151 133 c 2,48,-1
 225 153 l 2,49,50
 239 157 239 157 248.5 165.5 c 128,-1,51
 258 174 258 174 258 189 c 2,52,-1
 258 270 l 2,53,54
 258 305 258 305 226 305 c 2,55,-1
 189 305 l 2,56,57
 157 305 157 305 157 270 c 2,58,-1
 157 260 l 1,59,-1
 137 260 l 1,60,-1
 137 270 l 2,61,62
 137 287 137 287 127.5 296 c 128,-1,63
 118 305 118 305 106 305 c 2,64,-1
 65 305 l 2,65,66
 33 305 33 305 33 270 c 2,67,-1
 33 210 l 2,68,69
 33 177 33 177 64 175 c 1,0,-1
EndSplineSet
EndChar

StartChar: uni0C0E
Encoding: 3086 3086 122
Width: 348
GlyphClass: 2
Flags: W
LayerCount: 2
Back
Fore
SplineSet
226 0 m 2,0,-1
 182 0 l 2,1,2
 176 0 176 0 168 4 c 128,-1,3
 160 8 160 8 146 20 c 1,4,5
 132 8 132 8 123 4 c 128,-1,6
 114 0 114 0 106 0 c 2,7,-1
 63 0 l 2,8,9
 43 0 43 0 28 16 c 128,-1,10
 13 32 13 32 13 58 c 2,11,-1
 13 151 l 2,12,13
 13 178 13 178 28 194 c 128,-1,14
 43 210 43 210 63 210 c 2,15,-1
 106 210 l 2,16,17
 124 210 124 210 140 194 c 128,-1,18
 156 178 156 178 156 151 c 2,19,-1
 156 58 l 1,20,-1
 156 46 l 1,21,22
 167 24 167 24 187 24 c 2,23,-1
 224 24 l 2,24,25
 237 24 237 24 245 33.5 c 128,-1,26
 253 43 253 43 253 58 c 2,27,-1
 253 293 l 2,28,29
 253 325 253 325 224 325 c 2,30,-1
 154 325 l 1,31,-1
 154 351 l 1,32,-1
 226 351 l 2,33,34
 244 351 244 351 260 335 c 128,-1,35
 276 319 276 319 276 292 c 2,36,-1
 276 58 l 2,37,38
 276 32 276 32 260 16 c 128,-1,39
 244 0 244 0 226 0 c 2,0,-1
134 152 m 2,40,41
 134 168 134 168 125 176.5 c 128,-1,42
 116 185 116 185 104 185 c 2,43,-1
 65 185 l 2,44,45
 50 185 50 185 42.5 176 c 128,-1,46
 35 167 35 167 35 152 c 2,47,-1
 35 58 l 2,48,49
 35 42 35 42 44 33 c 128,-1,50
 53 24 53 24 65 24 c 2,51,-1
 104 24 l 2,52,53
 116 24 116 24 125 33 c 128,-1,54
 134 42 134 42 134 58 c 2,55,-1
 134 152 l 2,40,41
EndSplineSet
EndChar

StartChar: uni0C0F
Encoding: 3087 3087 123
Width: 348
GlyphClass: 2
Flags: W
LayerCount: 2
Back
Fore
SplineSet
82 402 m 2,0,1
 51 402 51 402 51 370 c 2,2,-1
 51 317 l 1,3,-1
 30 317 l 1,4,-1
 30 368 l 2,5,6
 30 394 30 394 45 410 c 128,-1,7
 60 426 60 426 80 426 c 2,8,-1
 142 426 l 1,9,-1
 142 402 l 1,10,-1
 82 402 l 2,0,1
226 0 m 2,11,-1
 182 0 l 2,12,13
 176 0 176 0 168 3.5 c 128,-1,14
 160 7 160 7 146 18 c 1,15,16
 133 7 133 7 123.5 3.5 c 128,-1,17
 114 0 114 0 106 0 c 2,18,-1
 63 0 l 2,19,20
 43 0 43 0 28 16 c 128,-1,21
 13 32 13 32 13 57 c 2,22,-1
 13 149 l 2,23,24
 13 175 13 175 28 191 c 128,-1,25
 43 207 43 207 63 207 c 2,26,-1
 106 207 l 2,27,28
 124 207 124 207 140 191 c 128,-1,29
 156 175 156 175 156 149 c 2,30,-1
 156 57 l 1,31,-1
 156 46 l 1,32,33
 167 24 167 24 187 24 c 2,34,-1
 224 24 l 2,35,36
 237 24 237 24 245 33 c 128,-1,37
 253 42 253 42 253 57 c 2,38,-1
 253 288 l 2,39,40
 253 303 253 303 245.5 312 c 128,-1,41
 238 321 238 321 224 321 c 2,42,-1
 154 321 l 1,43,-1
 154 347 l 1,44,-1
 226 347 l 2,45,46
 244 347 244 347 260 330.5 c 128,-1,47
 276 314 276 314 276 287 c 2,48,-1
 276 57 l 2,49,50
 276 32 276 32 260 16 c 128,-1,51
 244 0 244 0 226 0 c 2,11,-1
134 150 m 2,52,53
 134 167 134 167 124.5 175 c 128,-1,54
 115 183 115 183 104 183 c 2,55,-1
 65 183 l 2,56,57
 35 183 35 183 35 150 c 2,58,-1
 35 57 l 2,59,60
 35 42 35 42 44 33 c 128,-1,61
 53 24 53 24 65 24 c 2,62,-1
 104 24 l 2,63,64
 116 24 116 24 125 33 c 128,-1,65
 134 42 134 42 134 57 c 2,66,-1
 134 150 l 2,52,53
EndSplineSet
EndChar

StartChar: uni0C10
Encoding: 3088 3088 124
Width: 347
GlyphClass: 2
Flags: W
LayerCount: 2
Back
Fore
SplineSet
225 0 m 2,0,-1
 177 0 l 2,1,2
 171 0 171 0 164 3.5 c 128,-1,3
 157 7 157 7 143 18 c 1,4,5
 130 7 130 7 121 3.5 c 128,-1,6
 112 0 112 0 104 0 c 2,7,-1
 62 0 l 2,8,9
 44 0 44 0 28.5 15.5 c 128,-1,10
 13 31 13 31 13 58 c 2,11,-1
 13 139 l 2,12,13
 13 166 13 166 28.5 181 c 128,-1,14
 44 196 44 196 62 196 c 2,15,-1
 104 196 l 2,16,17
 124 196 124 196 139 181 c 128,-1,18
 154 166 154 166 154 139 c 2,19,-1
 154 58 l 1,20,-1
 154 47 l 1,21,22
 166 25 166 25 187 25 c 2,23,-1
 223 25 l 2,24,25
 236 25 236 25 244 34 c 128,-1,26
 252 43 252 43 252 58 c 2,27,-1
 252 271 l 2,28,29
 252 303 252 303 223 303 c 2,30,-1
 183 303 l 2,31,32
 153 303 153 303 153 271 c 2,33,-1
 153 260 l 1,34,-1
 132 260 l 1,35,-1
 132 271 l 2,36,37
 132 288 132 288 122 295.5 c 128,-1,38
 112 303 112 303 101 303 c 2,39,-1
 65 303 l 2,40,41
 35 303 35 303 35 271 c 2,42,-1
 35 250 l 1,43,-1
 13 250 l 1,44,-1
 13 271 l 2,45,46
 13 296 13 296 28.5 312 c 128,-1,47
 44 328 44 328 62 328 c 2,48,-1
 104 328 l 2,49,50
 112 328 112 328 121.5 323.5 c 128,-1,51
 131 319 131 319 146 306 c 1,52,53
 155 320 155 320 162.5 324 c 128,-1,54
 170 328 170 328 172 328 c 2,55,-1
 225 328 l 2,56,57
 243 328 243 328 258.5 313 c 128,-1,58
 274 298 274 298 274 271 c 2,59,-1
 274 58 l 2,60,61
 274 31 274 31 258.5 15.5 c 128,-1,62
 243 0 243 0 225 0 c 2,0,-1
133 139 m 2,63,64
 133 171 133 171 102 171 c 2,65,-1
 65 171 l 2,66,67
 35 171 35 171 35 139 c 2,68,-1
 35 58 l 2,69,70
 35 42 35 42 44 33.5 c 128,-1,71
 53 25 53 25 65 25 c 2,72,-1
 102 25 l 2,73,74
 118 25 118 25 125.5 34 c 128,-1,75
 133 43 133 43 133 58 c 2,76,-1
 133 139 l 2,63,64
EndSplineSet
EndChar

StartChar: uni0C12
Encoding: 3090 3090 125
Width: 318
GlyphClass: 2
Flags: W
LayerCount: 2
Back
Fore
SplineSet
207 0 m 2,0,-1
 170 0 l 2,1,2
 154 0 154 0 138 18 c 1,3,4
 128 13 128 13 122.5 9.5 c 128,-1,5
 117 6 117 6 112 4 c 0,6,7
 104 0 104 0 95 0 c 2,8,-1
 63 0 l 2,9,10
 43 0 43 0 28 15.5 c 128,-1,11
 13 31 13 31 13 58 c 2,12,-1
 13 140 l 2,13,14
 13 167 13 167 28 182.5 c 128,-1,15
 43 198 43 198 63 198 c 2,16,-1
 102 198 l 2,17,18
 133 198 133 198 133 231 c 2,19,-1
 133 271 l 2,20,21
 133 303 133 303 102 303 c 2,22,-1
 65 303 l 2,23,24
 35 303 35 303 35 271 c 2,25,-1
 35 250 l 1,26,-1
 13 250 l 1,27,-1
 13 270 l 2,28,29
 13 297 13 297 28 312.5 c 128,-1,30
 43 328 43 328 63 328 c 2,31,-1
 104 328 l 2,32,33
 124 328 124 328 139 312.5 c 128,-1,34
 154 297 154 297 154 270 c 2,35,-1
 154 232 l 2,36,37
 154 204 154 204 139 188.5 c 128,-1,38
 124 173 124 173 104 173 c 2,39,-1
 65 173 l 2,40,41
 53 173 53 173 44 164.5 c 128,-1,42
 35 156 35 156 35 140 c 2,43,-1
 35 58 l 2,44,45
 35 42 35 42 44 33.5 c 128,-1,46
 53 25 53 25 65 25 c 2,47,-1
 92 25 l 2,48,49
 108 25 108 25 115.5 34 c 128,-1,50
 123 43 123 43 123 58 c 2,51,-1
 123 78 l 1,52,-1
 144 78 l 1,53,-1
 144 58 l 2,54,55
 144 43 144 43 151.5 34 c 128,-1,56
 159 25 159 25 175 25 c 2,57,-1
 205 25 l 2,58,59
 217 25 217 25 226 33.5 c 128,-1,60
 235 42 235 42 235 58 c 2,61,-1
 235 103 l 1,62,-1
 257 103 l 1,63,-1
 257 58 l 2,64,65
 257 31 257 31 241 15.5 c 128,-1,66
 225 0 225 0 207 0 c 2,0,-1
EndSplineSet
EndChar

StartChar: uni0C13
Encoding: 3091 3091 126
Width: 318
GlyphClass: 2
Flags: W
LayerCount: 2
Back
Fore
SplineSet
207 0 m 2,0,-1
 170 0 l 2,1,2
 154 0 154 0 138 18 c 1,3,4
 128 13 128 13 122.5 9.5 c 128,-1,5
 117 6 117 6 112 4 c 0,6,7
 104 0 104 0 95 0 c 2,8,-1
 63 0 l 2,9,10
 43 0 43 0 28 15.5 c 128,-1,11
 13 31 13 31 13 56 c 2,12,-1
 13 138 l 2,13,14
 13 164 13 164 28 179 c 128,-1,15
 43 194 43 194 63 194 c 2,16,-1
 102 194 l 2,17,18
 133 194 133 194 133 226 c 2,19,-1
 133 266 l 2,20,21
 133 297 133 297 102 297 c 2,22,-1
 65 297 l 2,23,24
 35 297 35 297 35 266 c 2,25,-1
 35 244 l 1,26,-1
 13 244 l 1,27,-1
 13 265 l 2,28,29
 13 291 13 291 29 306 c 128,-1,30
 45 321 45 321 70 322 c 1,31,-1
 70 376 l 2,32,33
 70 426 70 426 112 426 c 2,34,-1
 144 426 l 2,35,36
 166 426 166 426 175.5 416.5 c 128,-1,37
 185 407 185 407 185 377 c 2,38,-1
 185 364 l 1,39,-1
 163 364 l 1,40,-1
 163 372 l 2,41,42
 163 402 163 402 133 402 c 2,43,-1
 119 402 l 2,44,45
 105 402 105 402 98.5 393 c 128,-1,46
 92 384 92 384 92 372 c 2,47,-1
 92 322 l 1,48,-1
 104 322 l 2,49,50
 124 322 124 322 139 306.5 c 128,-1,51
 154 291 154 291 154 265 c 2,52,-1
 154 227 l 2,53,54
 154 201 154 201 139 185.5 c 128,-1,55
 124 170 124 170 104 170 c 2,56,-1
 65 170 l 2,57,58
 54 170 54 170 44.5 162 c 128,-1,59
 35 154 35 154 35 138 c 2,60,-1
 35 56 l 2,61,62
 35 40 35 40 44.5 32 c 128,-1,63
 54 24 54 24 65 24 c 2,64,-1
 92 24 l 2,65,66
 123 24 123 24 123 56 c 2,67,-1
 123 77 l 1,68,-1
 144 77 l 1,69,-1
 144 56 l 2,70,71
 144 24 144 24 175 24 c 2,72,-1
 205 24 l 2,73,74
 216 24 216 24 225.5 32 c 128,-1,75
 235 40 235 40 235 56 c 2,76,-1
 235 100 l 1,77,-1
 257 100 l 1,78,-1
 257 56 l 2,79,80
 257 31 257 31 241 15.5 c 128,-1,81
 225 0 225 0 207 0 c 2,0,-1
EndSplineSet
EndChar

StartChar: uni0C14
Encoding: 3092 3092 127
Width: 416
GlyphClass: 2
Flags: W
LayerCount: 2
Back
Fore
SplineSet
302 177 m 2,0,-1
 276 177 l 2,1,2
 257 177 257 177 242 193 c 128,-1,3
 227 209 227 209 227 235 c 2,4,-1
 227 272 l 2,5,6
 227 299 227 299 241.5 313.5 c 128,-1,7
 256 328 256 328 276 328 c 2,8,-1
 329 328 l 1,9,-1
 329 368 l 2,10,11
 329 401 329 401 298 401 c 2,12,-1
 150 401 l 1,13,14
 155 384 155 384 156.5 379 c 128,-1,15
 158 374 158 374 158 372 c 2,16,-1
 158 340 l 2,17,18
 158 333 158 333 154.5 325.5 c 128,-1,19
 151 318 151 318 140 306 c 1,20,21
 148 292 148 292 151 282.5 c 128,-1,22
 154 273 154 273 154 265 c 2,23,-1
 154 227 l 2,24,25
 154 201 154 201 139 185.5 c 128,-1,26
 124 170 124 170 104 170 c 2,27,-1
 65 170 l 2,28,29
 54 170 54 170 44.5 162 c 128,-1,30
 35 154 35 154 35 138 c 2,31,-1
 35 56 l 2,32,33
 35 40 35 40 44.5 32 c 128,-1,34
 54 24 54 24 65 24 c 2,35,-1
 92 24 l 2,36,37
 123 24 123 24 123 56 c 2,38,-1
 123 77 l 1,39,-1
 144 77 l 1,40,-1
 144 56 l 2,41,42
 144 24 144 24 175 24 c 2,43,-1
 205 24 l 2,44,45
 216 24 216 24 225.5 32 c 128,-1,46
 235 40 235 40 235 56 c 2,47,-1
 235 100 l 1,48,-1
 257 100 l 1,49,-1
 257 56 l 2,50,51
 257 31 257 31 241 15.5 c 128,-1,52
 225 0 225 0 207 0 c 2,53,-1
 170 0 l 2,54,55
 154 0 154 0 138 18 c 1,56,57
 128 13 128 13 122.5 9.5 c 128,-1,58
 117 6 117 6 112 4 c 0,59,60
 104 0 104 0 95 0 c 2,61,-1
 63 0 l 2,62,63
 43 0 43 0 28 15.5 c 128,-1,64
 13 31 13 31 13 56 c 2,65,-1
 13 138 l 2,66,67
 13 164 13 164 28 179 c 128,-1,68
 43 194 43 194 63 194 c 2,69,-1
 102 194 l 2,70,71
 133 194 133 194 133 226 c 2,72,-1
 133 266 l 2,73,74
 133 297 133 297 102 297 c 2,75,-1
 65 297 l 2,76,77
 35 297 35 297 35 266 c 2,78,-1
 35 244 l 1,79,-1
 13 244 l 1,80,-1
 13 265 l 2,81,82
 13 291 13 291 28 306.5 c 128,-1,83
 43 322 43 322 63 322 c 2,84,-1
 112 322 l 2,85,86
 127 322 127 322 131 331 c 128,-1,87
 135 340 135 340 135 348 c 2,88,-1
 135 371 l 2,89,90
 135 391 135 391 115 401 c 1,91,-1
 13 401 l 1,92,-1
 13 426 l 1,93,-1
 302 426 l 2,94,95
 321 426 321 426 336 410 c 128,-1,96
 351 394 351 394 351 368 c 2,97,-1
 351 235 l 2,98,99
 351 209 351 209 336 193 c 128,-1,100
 321 177 321 177 302 177 c 2,0,-1
329 304 m 1,101,-1
 280 304 l 2,102,103
 268 304 268 304 259 295.5 c 128,-1,104
 250 287 250 287 250 270 c 2,105,-1
 250 235 l 2,106,107
 250 219 250 219 259.5 211 c 128,-1,108
 269 203 269 203 280 203 c 2,109,-1
 298 203 l 2,110,111
 329 203 329 203 329 235 c 2,112,-1
 329 304 l 1,101,-1
EndSplineSet
EndChar

StartChar: uni0C15
Encoding: 3093 3093 128
Width: 303
GlyphClass: 2
Flags: W
LayerCount: 2
Back
Fore
SplineSet
184 430 m 2,0,1
 173 430 173 430 164 423.5 c 128,-1,2
 155 417 155 417 155 400 c 2,3,-1
 155 321 l 1,4,-1
 181 321 l 2,5,6
 199 321 199 321 214.5 305.5 c 128,-1,7
 230 290 230 290 230 265 c 2,8,-1
 230 233 l 1,9,-1
 209 233 l 1,10,-1
 209 266 l 2,11,12
 209 282 209 282 199.5 289.5 c 128,-1,13
 190 297 190 297 179 297 c 2,14,-1
 65 297 l 2,15,16
 34 297 34 297 34 266 c 2,17,-1
 34 207 l 2,18,19
 34 175 34 175 65 175 c 2,20,-1
 181 175 l 2,21,22
 199 175 199 175 214.5 160 c 128,-1,23
 230 145 230 145 230 119 c 2,24,-1
 230 56 l 2,25,26
 230 31 230 31 214.5 15.5 c 128,-1,27
 199 0 199 0 181 0 c 2,28,-1
 63 0 l 2,29,30
 43 0 43 0 28 15.5 c 128,-1,31
 13 31 13 31 13 56 c 2,32,-1
 13 86 l 1,33,-1
 34 86 l 1,34,-1
 34 56 l 2,35,36
 34 24 34 24 65 24 c 2,37,-1
 179 24 l 2,38,39
 190 24 190 24 199.5 32 c 128,-1,40
 209 40 209 40 209 56 c 2,41,-1
 209 119 l 2,42,43
 209 134 209 134 200.5 143.5 c 128,-1,44
 192 153 192 153 179 153 c 2,45,-1
 63 153 l 2,46,47
 43 153 43 153 28 168.5 c 128,-1,48
 13 184 13 184 13 208 c 2,49,-1
 13 265 l 2,50,51
 13 274 13 274 16 283.5 c 128,-1,52
 19 293 19 293 28 306 c 1,53,54
 20 319 20 319 16.5 330.5 c 128,-1,55
 13 342 13 342 13 356 c 2,56,-1
 13 376 l 1,57,-1
 35 376 l 1,58,-1
 35 360 l 2,59,60
 35 320 35 320 68 320 c 2,61,-1
 81 320 l 1,62,-1
 132 321 l 1,63,-1
 133 406 l 2,64,65
 133 426 133 426 147 439 c 128,-1,66
 161 452 161 452 176 452 c 2,67,-1
 232 452 l 1,68,-1
 232 430 l 1,69,-1
 184 430 l 2,0,1
EndSplineSet
Substitution2: "Single Substitution lookup 21 subtable" uni0C15_uni0C4D.abvs
EndChar

StartChar: uni0C16
Encoding: 3094 3094 129
Width: 364
GlyphClass: 2
Flags: W
LayerCount: 2
Back
Fore
SplineSet
236 6 m 2,0,-1
 179 6 l 2,1,2
 173 6 173 6 164.5 10 c 128,-1,3
 156 14 156 14 148 23 c 1,4,5
 132 14 132 14 122.5 10 c 128,-1,6
 113 6 113 6 104 6 c 2,7,-1
 63 6 l 2,8,9
 43 6 43 6 28 21 c 128,-1,10
 13 36 13 36 13 62 c 2,11,-1
 13 152 l 2,12,13
 13 178 13 178 28 193.5 c 128,-1,14
 43 209 43 209 63 209 c 2,15,-1
 104 209 l 2,16,17
 107 209 107 209 111.5 208.5 c 128,-1,18
 116 208 116 208 132 203 c 1,19,-1
 132 272 l 2,20,21
 132 289 132 289 122.5 296.5 c 128,-1,22
 113 304 113 304 102 304 c 2,23,-1
 65 304 l 2,24,25
 35 304 35 304 35 272 c 2,26,-1
 35 259 l 1,27,-1
 13 259 l 1,28,-1
 13 270 l 2,29,30
 13 296 13 296 28 312 c 128,-1,31
 43 328 43 328 63 328 c 2,32,-1
 104 328 l 2,33,34
 122 328 122 328 138 312 c 128,-1,35
 154 296 154 296 154 270 c 2,36,-1
 154 62 l 2,37,38
 154 45 154 45 163.5 37 c 128,-1,39
 173 29 173 29 184 29 c 2,40,-1
 234 29 l 2,41,42
 246 29 246 29 254.5 37.5 c 128,-1,43
 263 46 263 46 263 62 c 2,44,-1
 263 272 l 2,45,46
 263 304 263 304 234 304 c 2,47,-1
 232 304 l 1,48,-1
 232 328 l 1,49,-1
 236 328 l 2,50,51
 254 328 254 328 270 312 c 128,-1,52
 286 296 286 296 286 270 c 2,53,-1
 286 62 l 2,54,55
 286 36 286 36 270 21 c 128,-1,56
 254 6 254 6 236 6 c 2,0,-1
134 -92 m 1,57,-1
 134 -33 l 2,58,59
 137 -31 137 -31 139.5 -29 c 128,-1,60
 142 -27 142 -27 145 -25 c 0,61,62
 147 -27 147 -27 150 -29 c 128,-1,63
 153 -31 153 -31 155 -33 c 2,64,-1
 155 -92 l 1,65,-1
 134 -92 l 1,57,-1
132 154 m 2,66,67
 132 170 132 170 122.5 177.5 c 128,-1,68
 113 185 113 185 102 185 c 2,69,-1
 65 185 l 2,70,71
 35 185 35 185 35 154 c 2,72,-1
 35 62 l 2,73,74
 35 45 35 45 44.5 37 c 128,-1,75
 54 29 54 29 65 29 c 2,76,-1
 102 29 l 2,77,78
 113 29 113 29 122.5 37 c 128,-1,79
 132 45 132 45 132 62 c 2,80,-1
 132 154 l 2,66,67
EndSplineSet
Substitution2: "Single Substitution lookup 21 subtable" uni0C16_uni0C4D.abvs
EndChar

StartChar: uni0C17
Encoding: 3095 3095 130
Width: 306
GlyphClass: 2
Flags: W
LayerCount: 2
Back
Fore
SplineSet
203 430 m 2,0,1
 192 430 192 430 183 423.5 c 128,-1,2
 174 417 174 417 174 400 c 2,3,-1
 173 321 l 1,4,-1
 187 321 l 2,5,6
 205 321 205 321 220.5 305.5 c 128,-1,7
 236 290 236 290 236 265 c 2,8,-1
 236 0 l 1,9,-1
 215 0 l 1,10,-1
 215 266 l 2,11,12
 215 294 215 294 190 295 c 0,13,14
 187 296 187 296 181 296 c 2,15,-1
 77 297 l 1,16,-1
 65 297 l 2,17,18
 34 297 34 297 34 266 c 2,19,-1
 34 0 l 1,20,-1
 13 0 l 1,21,-1
 13 265 l 2,22,23
 13 279 13 279 20 291.5 c 128,-1,24
 27 304 27 304 45 318 c 1,25,26
 37 332 37 332 34.5 343.5 c 128,-1,27
 32 355 32 355 32 367 c 2,28,-1
 32 376 l 1,29,-1
 54 376 l 1,30,-1
 54 371 l 2,31,32
 54 350 54 350 63.5 335.5 c 128,-1,33
 73 321 73 321 94 321 c 2,34,-1
 151 321 l 1,35,-1
 152 406 l 2,36,37
 152 426 152 426 166 439 c 128,-1,38
 180 452 180 452 195 452 c 2,39,-1
 241 452 l 1,40,-1
 241 430 l 1,41,-1
 203 430 l 2,0,1
EndSplineSet
Substitution2: "Single Substitution lookup 21 subtable" uni0C17_uni0C4D.abvs
EndChar

StartChar: uni0C18
Encoding: 3096 3096 131
Width: 499
GlyphClass: 2
Flags: W
LayerCount: 2
Back
Fore
SplineSet
166 428 m 2,0,1
 153 428 153 428 147 420 c 128,-1,2
 141 412 141 412 141 400 c 2,3,-1
 141 348 l 2,4,5
 141 322 141 322 129 309.5 c 128,-1,6
 117 297 117 297 98 297 c 2,7,-1
 14 297 l 1,8,-1
 14 321 l 1,9,-1
 91 321 l 2,10,11
 119 321 119 321 119 348 c 2,12,-1
 119 398 l 2,13,14
 119 425 119 425 132.5 438.5 c 128,-1,15
 146 452 146 452 163 452 c 2,16,-1
 232 452 l 1,17,-1
 232 428 l 1,18,-1
 166 428 l 2,0,1
377 4 m 2,19,-1
 327 4 l 2,20,21
 319 4 319 4 308.5 9 c 128,-1,22
 298 14 298 14 284 28 c 1,23,24
 270 14 270 14 260.5 9 c 128,-1,25
 251 4 251 4 242 4 c 2,26,-1
 191 4 l 2,27,28
 185 4 185 4 175.5 8 c 128,-1,29
 166 12 166 12 152 26 c 1,30,31
 139 13 139 13 130.5 8.5 c 128,-1,32
 122 4 122 4 116 4 c 2,33,-1
 63 4 l 2,34,35
 43 4 43 4 28 19 c 128,-1,36
 13 34 13 34 13 60 c 2,37,-1
 13 163 l 2,38,39
 13 188 13 188 28 202.5 c 128,-1,40
 43 217 43 217 63 217 c 2,41,-1
 112 217 l 2,42,43
 132 217 132 217 147 202.5 c 128,-1,44
 162 188 162 188 162 163 c 2,45,-1
 162 60 l 2,46,47
 162 28 162 28 193 28 c 2,48,-1
 240 28 l 2,49,50
 252 28 252 28 260.5 36 c 128,-1,51
 269 44 269 44 269 60 c 2,52,-1
 269 267 l 2,53,54
 269 299 269 299 240 299 c 2,55,-1
 238 299 l 1,56,-1
 238 322 l 1,57,-1
 242 322 l 2,58,59
 260 322 260 322 275.5 307 c 128,-1,60
 291 292 291 292 291 266 c 2,61,-1
 291 77 l 2,62,63
 291 57 291 57 300 42.5 c 128,-1,64
 309 28 309 28 329 28 c 2,65,-1
 375 28 l 2,66,67
 405 28 405 28 405 60 c 2,68,-1
 405 267 l 2,69,70
 405 299 405 299 375 299 c 2,71,-1
 373 299 l 1,72,-1
 373 322 l 1,73,-1
 377 322 l 2,74,75
 397 322 397 322 411.5 307 c 128,-1,76
 426 292 426 292 426 266 c 2,77,-1
 426 60 l 2,78,79
 426 34 426 34 411.5 19 c 128,-1,80
 397 4 397 4 377 4 c 2,19,-1
157 -43 m 2,81,-1
 157 -83 l 1,82,-1
 142 -83 l 1,83,-1
 142 -44 l 2,84,85
 145 -43 145 -43 151 -39 c 1,86,-1
 153 -40 l 2,87,88
 154 -41 154 -41 155 -41.5 c 128,-1,89
 156 -42 156 -42 157 -43 c 2,81,-1
141 162 m 2,90,91
 141 194 141 194 110 194 c 2,92,-1
 65 194 l 2,93,94
 35 194 35 194 35 162 c 2,95,-1
 35 60 l 2,96,97
 35 44 35 44 44.5 36 c 128,-1,98
 54 28 54 28 65 28 c 2,99,-1
 110 28 l 2,100,101
 141 28 141 28 141 60 c 2,102,-1
 141 162 l 2,90,91
EndSplineSet
Substitution2: "Single Substitution lookup 21 subtable" uni0C18_uni0C4D.abvs
EndChar

StartChar: uni0C19
Encoding: 3097 3097 132
Width: 348
GlyphClass: 2
Flags: W
LayerCount: 2
Back
Fore
SplineSet
154 237 m 1,0,-1
 154 217 l 2,1,2
 154 199 154 199 141.5 185.5 c 128,-1,3
 129 172 129 172 112 172 c 2,4,-1
 61 172 l 2,5,6
 47 172 47 172 41 163.5 c 128,-1,7
 35 155 35 155 35 141 c 2,8,-1
 35 54 l 2,9,10
 35 25 35 25 61 25 c 2,11,-1
 103 25 l 2,12,13
 117 25 117 25 124.5 33.5 c 128,-1,14
 132 42 132 42 132 53 c 2,15,-1
 132 78 l 1,16,-1
 153 78 l 1,17,-1
 153 53 l 2,18,19
 153 25 153 25 181 25 c 2,20,-1
 226 25 l 2,21,22
 252 25 252 25 252 54 c 2,23,-1
 252 111 l 1,24,-1
 274 111 l 1,25,-1
 274 50 l 2,26,27
 274 27 274 27 261 13.5 c 128,-1,28
 248 0 248 0 231 0 c 2,29,-1
 181 0 l 2,30,31
 179 0 179 0 170 3 c 128,-1,32
 161 6 161 6 142 21 c 1,33,34
 131 9 131 9 122.5 4.5 c 128,-1,35
 114 0 114 0 102 0 c 2,36,-1
 56 0 l 2,37,38
 39 0 39 0 26 13.5 c 128,-1,39
 13 27 13 27 13 50 c 2,40,-1
 13 146 l 2,41,42
 13 169 13 169 26 182.5 c 128,-1,43
 39 196 39 196 56 196 c 2,44,-1
 105 196 l 2,45,46
 117 196 117 196 125 204.5 c 128,-1,47
 133 213 133 213 133 225 c 2,48,-1
 133 274 l 2,49,50
 133 291 133 291 124.5 297 c 128,-1,51
 116 303 116 303 105 303 c 2,52,-1
 61 303 l 2,53,54
 35 303 35 303 35 274 c 2,55,-1
 35 259 l 1,56,-1
 13 259 l 1,57,-1
 13 278 l 2,58,59
 13 301 13 301 26 314.5 c 128,-1,60
 39 328 39 328 56 328 c 2,61,-1
 112 328 l 2,62,63
 127 328 127 328 140.5 314.5 c 128,-1,64
 154 301 154 301 154 278 c 2,65,-1
 154 261 l 1,66,-1
 218 261 l 1,67,-1
 218 317 l 1,68,-1
 241 317 l 1,69,-1
 241 261 l 1,70,-1
 281 261 l 1,71,-1
 281 237 l 1,72,-1
 154 237 l 1,0,-1
EndSplineSet
Substitution2: "Single Substitution lookup 21 subtable" uni0C19_uni0C4D.abvs
EndChar

StartChar: uni0C1A
Encoding: 3098 3098 133
Width: 388
GlyphClass: 2
Flags: W
LayerCount: 2
Back
Fore
SplineSet
273 0 m 2,0,-1
 223 0 l 1,1,-1
 218 0 l 2,2,3
 211 0 211 0 204 4.5 c 128,-1,4
 197 9 197 9 183 20 c 1,5,6
 172 8 172 8 163.5 4 c 128,-1,7
 155 0 155 0 144 0 c 2,8,-1
 96 0 l 2,9,10
 79 0 79 0 66 14 c 128,-1,11
 53 28 53 28 53 48 c 2,12,-1
 53 167 l 2,13,14
 53 169 53 169 53.5 172 c 128,-1,15
 54 175 54 175 59 189 c 1,16,-1
 13 189 l 1,17,-1
 13 213 l 1,18,-1
 106 213 l 1,19,-1
 106 189 l 1,20,-1
 103 189 l 2,21,22
 91 189 91 189 83 181 c 128,-1,23
 75 173 75 173 75 160 c 2,24,-1
 75 52 l 2,25,26
 75 24 75 24 103 24 c 2,27,-1
 145 24 l 2,28,29
 161 24 161 24 167 33 c 128,-1,30
 173 42 173 42 173 52 c 2,31,-1
 173 87 l 1,32,-1
 195 87 l 1,33,-1
 195 51 l 2,34,35
 195 24 195 24 223 24 c 2,36,-1
 266 24 l 2,37,38
 276 24 276 24 284.5 30 c 128,-1,39
 293 36 293 36 293 53 c 2,40,-1
 293 269 l 2,41,42
 293 297 293 297 266 297 c 2,43,-1
 198 297 l 1,44,-1
 130 297 l 1,45,-1
 112 297 l 2,46,47
 95 297 95 297 79 310 c 128,-1,48
 63 323 63 323 63 343 c 2,49,-1
 63 366 l 1,50,-1
 87 366 l 1,51,-1
 87 360 l 2,52,53
 87 342 87 342 96 331.5 c 128,-1,54
 105 321 105 321 124 321 c 2,55,-1
 130 321 l 1,56,-1
 162 321 l 1,57,-1
 163 406 l 2,58,59
 163 426 163 426 177 439 c 128,-1,60
 191 452 191 452 206 452 c 2,61,-1
 315 452 l 1,62,-1
 315 430 l 1,63,-1
 214 430 l 2,64,65
 203 430 203 430 194 423.5 c 128,-1,66
 185 417 185 417 185 400 c 2,67,-1
 185 321 l 1,68,-1
 273 321 l 2,69,70
 290 321 290 321 302.5 308 c 128,-1,71
 315 295 315 295 315 273 c 2,72,-1
 315 48 l 2,73,74
 315 27 315 27 302.5 13.5 c 128,-1,75
 290 0 290 0 273 0 c 2,0,-1
EndSplineSet
Substitution2: "Single Substitution lookup 21 subtable" uni0C1A_uni0C4D.abvs
EndChar

StartChar: uni0C1B
Encoding: 3099 3099 134
Width: 387
GlyphClass: 2
Flags: W
LayerCount: 2
Back
Fore
SplineSet
53 168 m 1,0,-1
 54 170 l 1,1,-1
 58 192 l 1,2,-1
 13 192 l 1,3,-1
 13 215 l 1,4,-1
 106 215 l 1,5,-1
 106 192 l 1,6,-1
 103 192 l 2,7,8
 91 192 91 192 83 184 c 128,-1,9
 75 176 75 176 75 163 c 2,10,-1
 75 56 l 2,11,12
 75 28 75 28 103 28 c 2,13,-1
 145 28 l 2,14,15
 161 28 161 28 167 37 c 128,-1,16
 173 46 173 46 173 56 c 2,17,-1
 173 90 l 1,18,-1
 195 90 l 1,19,-1
 195 55 l 2,20,21
 195 28 195 28 223 28 c 2,22,-1
 266 28 l 2,23,24
 276 28 276 28 284.5 34 c 128,-1,25
 293 40 293 40 293 57 c 2,26,-1
 293 270 l 2,27,28
 293 299 293 299 266 299 c 2,29,-1
 198 299 l 1,30,-1
 130 299 l 1,31,-1
 112 299 l 2,32,33
 94 299 94 299 78.5 311.5 c 128,-1,34
 63 324 63 324 63 343 c 2,35,-1
 63 366 l 1,36,-1
 87 366 l 1,37,-1
 87 362 l 2,38,39
 87 322 87 322 124 322 c 2,40,-1
 130 322 l 1,41,-1
 162 322 l 1,42,-1
 163 406 l 2,43,44
 163 426 163 426 177 439 c 128,-1,45
 191 452 191 452 206 452 c 2,46,-1
 315 452 l 1,47,-1
 315 430 l 1,48,-1
 214 430 l 2,49,50
 203 430 203 430 194 423.5 c 128,-1,51
 185 417 185 417 185 400 c 2,52,-1
 185 322 l 1,53,-1
 273 322 l 2,54,55
 290 322 290 322 302.5 309.5 c 128,-1,56
 315 297 315 297 315 274 c 2,57,-1
 315 52 l 2,58,59
 315 31 315 31 302.5 17.5 c 128,-1,60
 290 4 290 4 273 4 c 2,61,-1
 223 4 l 1,62,-1
 218 4 l 2,63,64
 211 4 211 4 203.5 8 c 128,-1,65
 196 12 196 12 184 24 c 1,66,67
 172 12 172 12 163.5 8 c 128,-1,68
 155 4 155 4 144 4 c 2,69,-1
 96 4 l 2,70,71
 79 4 79 4 66 17.5 c 128,-1,72
 53 31 53 31 53 52 c 2,73,-1
 53 168 l 1,0,-1
187 -44 m 2,74,-1
 187 -84 l 1,75,-1
 172 -84 l 1,76,-1
 172 -45 l 2,77,78
 175 -44 175 -44 181 -40 c 1,79,-1
 183 -41 l 2,80,81
 184 -42 184 -42 185 -42.5 c 128,-1,82
 186 -43 186 -43 187 -44 c 2,74,-1
EndSplineSet
Substitution2: "Single Substitution lookup 21 subtable" uni0C1B_uni0C4D.abvs
EndChar

StartChar: uni0C1C
Encoding: 3100 3100 135
Width: 347
GlyphClass: 2
Flags: W
LayerCount: 2
Back
Fore
SplineSet
231 0 m 2,0,-1
 181 0 l 2,1,2
 179 0 179 0 170 3 c 128,-1,3
 161 6 161 6 142 21 c 1,4,5
 131 9 131 9 122.5 4.5 c 128,-1,6
 114 0 114 0 102 0 c 2,7,-1
 56 0 l 2,8,9
 39 0 39 0 26 13.5 c 128,-1,10
 13 27 13 27 13 50 c 2,11,-1
 13 146 l 2,12,13
 13 169 13 169 26 182.5 c 128,-1,14
 39 196 39 196 56 196 c 2,15,-1
 105 196 l 2,16,17
 117 196 117 196 125 204.5 c 128,-1,18
 133 213 133 213 133 225 c 2,19,-1
 133 274 l 2,20,21
 133 291 133 291 124.5 297 c 128,-1,22
 116 303 116 303 105 303 c 2,23,-1
 61 303 l 2,24,25
 35 303 35 303 35 274 c 2,26,-1
 35 259 l 1,27,-1
 13 259 l 1,28,-1
 13 278 l 2,29,30
 13 301 13 301 26 314.5 c 128,-1,31
 39 328 39 328 56 328 c 2,32,-1
 112 328 l 2,33,34
 127 328 127 328 140.5 314.5 c 128,-1,35
 154 301 154 301 154 278 c 2,36,-1
 154 227 l 2,37,38
 154 213 154 213 162.5 205.5 c 128,-1,39
 171 198 171 198 181 198 c 2,40,-1
 224 198 l 2,41,42
 251 198 251 198 251 227 c 2,43,-1
 251 274 l 2,44,45
 251 288 251 288 242.5 295.5 c 128,-1,46
 234 303 234 303 224 303 c 2,47,-1
 220 303 l 1,48,-1
 220 328 l 1,49,-1
 230 328 l 2,50,51
 247 328 247 328 260 314.5 c 128,-1,52
 273 301 273 301 273 278 c 2,53,-1
 273 224 l 2,54,55
 273 201 273 201 260 187.5 c 128,-1,56
 247 174 247 174 230 174 c 2,57,-1
 182 174 l 1,58,-1
 177 174 l 2,59,60
 170 174 170 174 163 178.5 c 128,-1,61
 156 183 156 183 143 194 c 1,62,63
 130 183 130 183 121.5 177.5 c 128,-1,64
 113 172 113 172 102 172 c 2,65,-1
 61 172 l 2,66,67
 47 172 47 172 41 163.5 c 128,-1,68
 35 155 35 155 35 141 c 2,69,-1
 35 54 l 2,70,71
 35 25 35 25 61 25 c 2,72,-1
 103 25 l 2,73,74
 117 25 117 25 124.5 33.5 c 128,-1,75
 132 42 132 42 132 53 c 2,76,-1
 132 68 l 1,77,-1
 153 68 l 1,78,-1
 153 53 l 2,79,80
 153 25 153 25 181 25 c 2,81,-1
 226 25 l 2,82,83
 252 25 252 25 252 54 c 2,84,-1
 252 111 l 1,85,-1
 274 111 l 1,86,-1
 274 50 l 2,87,88
 274 27 274 27 261 13.5 c 128,-1,89
 248 0 248 0 231 0 c 2,0,-1
EndSplineSet
Substitution2: "Single Substitution lookup 21 subtable" uni0C1C_uni0C4D.abvs
EndChar

StartChar: uni0C1D
Encoding: 3101 3101 136
Width: 571
GlyphClass: 2
Flags: W
LayerCount: 2
Back
Fore
SplineSet
456 4 m 2,0,-1
 406 4 l 2,1,2
 398 4 398 4 387.5 9.5 c 128,-1,3
 377 15 377 15 364 29 c 1,4,5
 350 15 350 15 340.5 9.5 c 128,-1,6
 331 4 331 4 322 4 c 2,7,-1
 272 4 l 2,8,9
 264 4 264 4 253.5 9.5 c 128,-1,10
 243 15 243 15 230 29 c 1,11,12
 214 13 214 13 203.5 8.5 c 128,-1,13
 193 4 193 4 189 4 c 2,14,-1
 62 4 l 2,15,16
 44 4 44 4 28.5 19.5 c 128,-1,17
 13 35 13 35 13 60 c 2,18,-1
 13 267 l 2,19,20
 13 281 13 281 19.5 293 c 128,-1,21
 26 305 26 305 45 320 c 1,22,23
 36 331 36 331 33.5 338 c 128,-1,24
 31 345 31 345 31 350 c 2,25,-1
 31 377 l 1,26,-1
 52 377 l 1,27,-1
 52 354 l 2,28,29
 52 329 52 329 77 324 c 2,30,-1
 89 322 l 1,31,-1
 138 322 l 1,32,-1
 138 404 l 2,33,34
 138 426 138 426 151 439 c 128,-1,35
 164 452 164 452 181 452 c 2,36,-1
 236 452 l 1,37,-1
 236 428 l 1,38,-1
 187 428 l 2,39,40
 176 428 176 428 167.5 422 c 128,-1,41
 159 416 159 416 159 399 c 2,42,-1
 159 322 l 1,43,-1
 187 322 l 2,44,45
 205 322 205 322 220.5 306.5 c 128,-1,46
 236 291 236 291 236 267 c 2,47,-1
 236 76 l 1,48,49
 242 56 242 56 249.5 42 c 128,-1,50
 257 28 257 28 274 28 c 2,51,-1
 320 28 l 2,52,53
 350 28 350 28 350 60 c 2,54,-1
 350 267 l 2,55,56
 350 299 350 299 320 299 c 2,57,-1
 318 299 l 1,58,-1
 318 322 l 1,59,-1
 322 322 l 2,60,61
 342 322 342 322 356.5 307 c 128,-1,62
 371 292 371 292 371 266 c 2,63,-1
 371 69 l 1,64,65
 376 53 376 53 383.5 40.5 c 128,-1,66
 391 28 391 28 408 28 c 2,67,-1
 454 28 l 2,68,69
 465 28 465 28 474.5 36 c 128,-1,70
 484 44 484 44 484 60 c 2,71,-1
 484 267 l 2,72,73
 484 299 484 299 454 299 c 2,74,-1
 452 299 l 1,75,-1
 452 322 l 1,76,-1
 456 322 l 2,77,78
 474 322 474 322 489.5 307 c 128,-1,79
 505 292 505 292 505 266 c 2,80,-1
 505 60 l 2,81,82
 505 35 505 35 489.5 19.5 c 128,-1,83
 474 4 474 4 456 4 c 2,0,-1
369 -41 m 2,84,-1
 369 -92 l 1,85,-1
 354 -92 l 1,86,-1
 354 -43 l 1,87,88
 358 -42 358 -42 363 -37 c 1,89,-1
 365 -39 l 2,90,91
 366 -40 366 -40 367 -40 c 128,-1,92
 368 -40 368 -40 369 -41 c 2,84,-1
214 267 m 2,93,94
 214 282 214 282 205.5 290.5 c 128,-1,95
 197 299 197 299 185 299 c 2,96,-1
 65 299 l 2,97,98
 35 299 35 299 35 267 c 2,99,-1
 35 60 l 2,100,101
 35 28 35 28 65 28 c 2,102,-1
 185 28 l 2,103,104
 197 28 197 28 205.5 36.5 c 128,-1,105
 214 45 214 45 214 60 c 2,106,-1
 214 267 l 2,93,94
EndSplineSet
Substitution2: "Single Substitution lookup 21 subtable" uni0C1D_uni0C4D.abvs
EndChar

StartChar: uni0C1E
Encoding: 3102 3102 137
Width: 463
GlyphClass: 2
Flags: W
LayerCount: 2
Back
Fore
SplineSet
273 236 m 1,0,-1
 273 178 l 1,1,-1
 305 178 l 2,2,3
 323 178 323 178 336.5 164 c 128,-1,4
 350 150 350 150 350 123 c 2,5,-1
 350 -1 l 1,6,-1
 329 -1 l 1,7,-1
 329 119 l 2,8,9
 329 135 329 135 320 144 c 128,-1,10
 311 153 311 153 299 153 c 2,11,-1
 273 153 l 1,12,-1
 273 57 l 2,13,14
 273 30 273 30 257.5 14.5 c 128,-1,15
 242 -1 242 -1 224 -1 c 2,16,-1
 62 -1 l 2,17,18
 44 -1 44 -1 28.5 14.5 c 128,-1,19
 13 30 13 30 13 57 c 2,20,-1
 13 119 l 2,21,22
 13 146 13 146 28.5 162 c 128,-1,23
 44 178 44 178 62 178 c 2,24,-1
 251 178 l 1,25,-1
 251 270 l 2,26,27
 251 286 251 286 242.5 294.5 c 128,-1,28
 234 303 234 303 222 303 c 2,29,-1
 183 303 l 2,30,31
 168 303 168 303 160.5 294 c 128,-1,32
 153 285 153 285 153 270 c 2,33,-1
 153 260 l 1,34,-1
 132 260 l 1,35,-1
 132 270 l 2,36,37
 132 286 132 286 122.5 294.5 c 128,-1,38
 113 303 113 303 101 303 c 2,39,-1
 65 303 l 2,40,41
 50 303 50 303 42.5 294 c 128,-1,42
 35 285 35 285 35 270 c 2,43,-1
 35 239 l 1,44,-1
 13 239 l 1,45,-1
 13 270 l 2,46,47
 13 297 13 297 28.5 312.5 c 128,-1,48
 44 328 44 328 62 328 c 2,49,-1
 103 328 l 2,50,51
 111 328 111 328 124 321 c 128,-1,52
 137 314 137 314 143 296 c 1,53,54
 146 314 146 314 155.5 321 c 128,-1,55
 165 328 165 328 171 328 c 2,56,-1
 224 328 l 2,57,58
 241 328 241 328 256 312 c 128,-1,59
 271 296 271 296 274 260 c 1,60,-1
 343 260 l 1,61,-1
 343 317 l 1,62,-1
 366 317 l 1,63,-1
 366 260 l 1,64,-1
 405 260 l 1,65,-1
 405 236 l 1,66,-1
 273 236 l 1,0,-1
251 153 m 1,67,-1
 65 153 l 2,68,69
 53 153 53 153 44 144 c 128,-1,70
 35 135 35 135 35 119 c 2,71,-1
 35 57 l 2,72,73
 35 41 35 41 44 32.5 c 128,-1,74
 53 24 53 24 65 24 c 2,75,-1
 223 24 l 2,76,77
 238 24 238 24 244.5 33.5 c 128,-1,78
 251 43 251 43 251 57 c 2,79,-1
 251 153 l 1,67,-1
EndSplineSet
Substitution2: "Single Substitution lookup 21 subtable" uni0C1E_uni0C4D.abvs
EndChar

StartChar: uni0C1F
Encoding: 3103 3103 138
Width: 364
GlyphClass: 2
Flags: W
LayerCount: 2
Back
Fore
SplineSet
247 0 m 2,0,-1
 187 0 l 2,1,2
 179 0 179 0 172.5 3.5 c 128,-1,3
 166 7 166 7 155 18 c 1,4,5
 144 7 144 7 137 3.5 c 128,-1,6
 130 0 130 0 127 0 c 2,7,-1
 63 0 l 2,8,9
 43 0 43 0 28 16 c 128,-1,10
 13 32 13 32 13 58 c 2,11,-1
 13 267 l 2,12,13
 13 292 13 292 29 308 c 128,-1,14
 45 324 45 324 73 325 c 1,15,-1
 73 391 l 1,16,-1
 95 391 l 1,17,-1
 95 326 l 1,18,19
 123 323 123 323 138.5 307.5 c 128,-1,20
 154 292 154 292 154 267 c 2,21,-1
 154 207 l 2,22,23
 154 181 154 181 139 165 c 128,-1,24
 124 149 124 149 104 149 c 2,25,-1
 35 149 l 1,26,-1
 35 58 l 2,27,28
 35 42 35 42 44 33 c 128,-1,29
 53 24 53 24 65 24 c 2,30,-1
 112 24 l 2,31,32
 128 24 128 24 135.5 33.5 c 128,-1,33
 143 43 143 43 143 58 c 2,34,-1
 143 87 l 1,35,-1
 164 87 l 1,36,-1
 164 58 l 2,37,38
 164 43 164 43 171.5 33.5 c 128,-1,39
 179 24 179 24 195 24 c 2,40,-1
 245 24 l 2,41,42
 257 24 257 24 266 33 c 128,-1,43
 275 42 275 42 275 58 c 2,44,-1
 275 268 l 2,45,46
 275 301 275 301 245 301 c 2,47,-1
 244 301 l 1,48,-1
 244 325 l 1,49,-1
 247 325 l 2,50,51
 265 325 265 325 281 309.5 c 128,-1,52
 297 294 297 294 297 267 c 2,53,-1
 297 58 l 2,54,55
 297 32 297 32 281 16 c 128,-1,56
 265 0 265 0 247 0 c 2,0,-1
133 268 m 2,57,58
 133 301 133 301 102 301 c 2,59,-1
 65 301 l 2,60,61
 35 301 35 301 35 268 c 2,62,-1
 35 172 l 1,63,-1
 102 172 l 2,64,65
 118 172 118 172 125.5 181 c 128,-1,66
 133 190 133 190 133 205 c 2,67,-1
 133 268 l 2,57,58
EndSplineSet
Substitution2: "Single Substitution lookup 21 subtable" uni0C1F_uni0C4D.abvs
EndChar

StartChar: uni0C20
Encoding: 3104 3104 139
Width: 312
GlyphClass: 2
Flags: W
LayerCount: 2
Back
Fore
SplineSet
189 0 m 2,0,-1
 62 0 l 2,1,2
 44 0 44 0 28.5 15.5 c 128,-1,3
 13 31 13 31 13 56 c 2,4,-1
 13 266 l 2,5,6
 13 280 13 280 19.5 292 c 128,-1,7
 26 304 26 304 45 319 c 1,8,9
 36 330 36 330 33.5 337 c 128,-1,10
 31 344 31 344 31 349 c 2,11,-1
 31 376 l 1,12,-1
 52 376 l 1,13,-1
 52 353 l 2,14,15
 52 328 52 328 77 323 c 2,16,-1
 89 321 l 1,17,-1
 138 321 l 1,18,-1
 138 404 l 2,19,20
 138 426 138 426 151 439 c 128,-1,21
 164 452 164 452 181 452 c 2,22,-1
 236 452 l 1,23,-1
 236 428 l 1,24,-1
 187 428 l 2,25,26
 176 428 176 428 167.5 422 c 128,-1,27
 159 416 159 416 159 399 c 2,28,-1
 159 321 l 1,29,-1
 187 321 l 2,30,31
 205 321 205 321 220.5 305 c 128,-1,32
 236 289 236 289 236 266 c 2,33,-1
 236 56 l 2,34,35
 236 39 236 39 230 28 c 128,-1,36
 224 17 224 17 216 11 c 128,-1,37
 208 5 208 5 200.5 2.5 c 128,-1,38
 193 0 193 0 189 0 c 2,0,-1
214 266 m 2,39,40
 214 282 214 282 205 289.5 c 128,-1,41
 196 297 196 297 185 297 c 2,42,-1
 65 297 l 2,43,44
 35 297 35 297 35 266 c 2,45,-1
 35 56 l 2,46,47
 35 24 35 24 65 24 c 2,48,-1
 185 24 l 2,49,50
 197 24 197 24 205.5 32.5 c 128,-1,51
 214 41 214 41 214 56 c 2,52,-1
 214 266 l 2,39,40
118 144 m 1,53,-1
 118 168 l 1,54,-1
 133 168 l 1,55,-1
 133 144 l 1,56,-1
 118 144 l 1,53,-1
EndSplineSet
Substitution2: "Single Substitution lookup 21 subtable" uni0C20_uni0C4D.abvs
EndChar

StartChar: uni0C21
Encoding: 3105 3105 140
Width: 353
GlyphClass: 2
Flags: W
LayerCount: 2
Back
Fore
SplineSet
250 0 m 2,0,-1
 192 0 l 1,1,-1
 188 0 l 2,2,3
 177 0 177 0 167 9 c 0,4,5
 165 11 165 11 162.5 13 c 128,-1,6
 160 15 160 15 153 21 c 1,7,8
 142 9 142 9 132.5 4.5 c 128,-1,9
 123 0 123 0 113 0 c 2,10,-1
 55 0 l 2,11,12
 40 0 40 0 26.5 14 c 128,-1,13
 13 28 13 28 13 48 c 2,14,-1
 13 273 l 2,15,16
 13 282 13 282 17.5 292 c 128,-1,17
 22 302 22 302 34 317 c 1,18,19
 21 328 21 328 17 334 c 128,-1,20
 13 340 13 340 13 349 c 2,21,-1
 13 397 l 1,22,-1
 34 397 l 1,23,-1
 34 353 l 2,24,25
 34 328 34 328 59 323 c 2,26,-1
 71 321 l 1,27,-1
 140 321 l 1,28,-1
 140 399 l 2,29,30
 140 421 140 421 153 434 c 128,-1,31
 166 447 166 447 183 447 c 2,32,-1
 288 447 l 1,33,-1
 288 425 l 1,34,-1
 189 425 l 2,35,36
 178 425 178 425 169.5 419 c 128,-1,37
 161 413 161 413 161 396 c 2,38,-1
 161 321 l 1,39,-1
 240 321 l 2,40,41
 257 321 257 321 270 308 c 128,-1,42
 283 295 283 295 283 273 c 2,43,-1
 283 255 l 1,44,-1
 261 255 l 1,45,-1
 261 269 l 2,46,47
 261 281 261 281 255 289 c 128,-1,48
 249 297 249 297 236 297 c 2,49,-1
 61 297 l 2,50,51
 35 297 35 297 35 269 c 2,52,-1
 35 53 l 2,53,54
 35 24 35 24 61 24 c 2,55,-1
 114 24 l 2,56,57
 128 24 128 24 135.5 32.5 c 128,-1,58
 143 41 143 41 143 52 c 2,59,-1
 143 87 l 1,60,-1
 164 87 l 1,61,-1
 164 53 l 2,62,63
 164 42 164 42 170.5 33 c 128,-1,64
 177 24 177 24 191 24 c 2,65,-1
 246 24 l 2,66,67
 260 24 260 24 265.5 33 c 128,-1,68
 271 42 271 42 271 54 c 2,69,-1
 271 139 l 2,70,71
 271 151 271 151 265.5 160 c 128,-1,72
 260 169 260 169 246 169 c 2,73,-1
 223 169 l 1,74,-1
 223 193 l 1,75,-1
 250 193 l 2,76,77
 267 193 267 193 280 180 c 128,-1,78
 293 167 293 167 293 145 c 2,79,-1
 293 50 l 2,80,81
 293 27 293 27 280 13.5 c 128,-1,82
 267 0 267 0 250 0 c 2,0,-1
EndSplineSet
Substitution2: "Single Substitution lookup 21 subtable" uni0C21_uni0C4D.abvs
EndChar

StartChar: uni0C22
Encoding: 3106 3106 141
Width: 353
GlyphClass: 2
Flags: W
LayerCount: 2
Back
Fore
SplineSet
250 4 m 2,0,-1
 192 4 l 1,1,-1
 188 4 l 2,2,3
 177 4 177 4 167 13 c 0,4,5
 165 15 165 15 162.5 17 c 128,-1,6
 160 19 160 19 153 25 c 1,7,8
 142 13 142 13 132.5 8.5 c 128,-1,9
 123 4 123 4 113 4 c 2,10,-1
 55 4 l 2,11,12
 40 4 40 4 26.5 18 c 128,-1,13
 13 32 13 32 13 52 c 2,14,-1
 13 274 l 2,15,16
 13 284 13 284 17.5 293.5 c 128,-1,17
 22 303 22 303 34 318 c 1,18,19
 21 329 21 329 17 335 c 128,-1,20
 13 341 13 341 13 350 c 2,21,-1
 13 397 l 1,22,-1
 34 397 l 1,23,-1
 34 355 l 2,24,25
 34 329 34 329 59 324 c 2,26,-1
 71 322 l 1,27,-1
 140 322 l 1,28,-1
 140 399 l 2,29,30
 140 421 140 421 153 434 c 128,-1,31
 166 447 166 447 183 447 c 2,32,-1
 288 447 l 1,33,-1
 288 425 l 1,34,-1
 189 425 l 2,35,36
 178 425 178 425 169.5 419 c 128,-1,37
 161 413 161 413 161 396 c 2,38,-1
 161 322 l 1,39,-1
 240 322 l 2,40,41
 257 322 257 322 270 309.5 c 128,-1,42
 283 297 283 297 283 274 c 2,43,-1
 283 258 l 1,44,-1
 261 258 l 1,45,-1
 261 270 l 2,46,47
 261 283 261 283 255 291 c 128,-1,48
 249 299 249 299 236 299 c 2,49,-1
 61 299 l 2,50,51
 35 299 35 299 35 270 c 2,52,-1
 35 57 l 2,53,54
 35 28 35 28 61 28 c 2,55,-1
 114 28 l 2,56,57
 128 28 128 28 135.5 36.5 c 128,-1,58
 143 45 143 45 143 56 c 2,59,-1
 143 90 l 1,60,-1
 164 90 l 1,61,-1
 164 57 l 2,62,63
 164 48 164 48 170.5 38 c 128,-1,64
 177 28 177 28 191 28 c 2,65,-1
 246 28 l 2,66,67
 260 28 260 28 265.5 37 c 128,-1,68
 271 46 271 46 271 58 c 2,69,-1
 271 142 l 2,70,71
 271 154 271 154 265.5 163 c 128,-1,72
 260 172 260 172 246 172 c 2,73,-1
 223 172 l 1,74,-1
 223 195 l 1,75,-1
 250 195 l 2,76,77
 267 195 267 195 280 182.5 c 128,-1,78
 293 170 293 170 293 148 c 2,79,-1
 293 54 l 2,80,81
 293 31 293 31 280 17.5 c 128,-1,82
 267 4 267 4 250 4 c 2,0,-1
158 -44 m 2,83,-1
 158 -95 l 1,84,-1
 143 -95 l 1,85,-1
 143 -46 l 1,86,87
 147 -45 147 -45 152 -40 c 1,88,-1
 154 -42 l 2,89,90
 155 -43 155 -43 156 -43 c 128,-1,91
 157 -43 157 -43 158 -44 c 2,83,-1
EndSplineSet
Substitution2: "Single Substitution lookup 21 subtable" uni0C22_uni0C4D.abvs
EndChar

StartChar: uni0C23
Encoding: 3107 3107 142
Width: 363
GlyphClass: 2
Flags: W
LayerCount: 2
Back
Fore
SplineSet
244 0 m 2,0,-1
 191 0 l 2,1,2
 173 0 173 0 157.5 15.5 c 128,-1,3
 142 31 142 31 142 58 c 2,4,-1
 142 117 l 2,5,6
 142 145 142 145 157.5 160 c 128,-1,7
 173 175 173 175 191 175 c 0,8,9
 207 175 207 175 222.5 176 c 128,-1,10
 238 177 238 177 253 174 c 0,11,12
 255 174 255 174 258 173.5 c 128,-1,13
 261 173 261 173 272 171 c 1,14,-1
 272 271 l 2,15,16
 272 303 272 303 242 303 c 2,17,-1
 193 303 l 2,18,19
 182 303 182 303 172.5 295.5 c 128,-1,20
 163 288 163 288 163 271 c 2,21,-1
 163 259 l 1,22,-1
 142 259 l 1,23,-1
 142 271 l 2,24,25
 142 288 142 288 132 295.5 c 128,-1,26
 122 303 122 303 111 303 c 2,27,-1
 65 303 l 2,28,29
 35 303 35 303 35 271 c 2,30,-1
 35 207 l 2,31,32
 35 175 35 175 65 175 c 2,33,-1
 75 175 l 1,34,-1
 75 151 l 1,35,-1
 65 151 l 2,36,37
 35 151 35 151 35 119 c 2,38,-1
 35 58 l 2,39,40
 35 42 35 42 44 33.5 c 128,-1,41
 53 25 53 25 65 25 c 2,42,-1
 75 25 l 1,43,-1
 75 0 l 1,44,-1
 63 0 l 2,45,46
 43 0 43 0 28 15.5 c 128,-1,47
 13 31 13 31 13 58 c 2,48,-1
 13 119 l 2,49,50
 13 135 13 135 17.5 143.5 c 128,-1,51
 22 152 22 152 35 167 c 1,52,53
 21 177 21 177 17 183 c 128,-1,54
 13 189 13 189 13 203 c 2,55,-1
 13 270 l 2,56,57
 13 297 13 297 28 312.5 c 128,-1,58
 43 328 43 328 63 328 c 2,59,-1
 114 328 l 2,60,61
 131 328 131 328 138.5 324 c 128,-1,62
 146 320 146 320 154 306 c 1,63,64
 159 320 159 320 167.5 324 c 128,-1,65
 176 328 176 328 183 328 c 2,66,-1
 244 328 l 2,67,68
 264 328 264 328 279 312.5 c 128,-1,69
 294 297 294 297 294 270 c 2,70,-1
 294 58 l 2,71,72
 294 31 294 31 279 15.5 c 128,-1,73
 264 0 264 0 244 0 c 2,0,-1
272 125 m 1,74,75
 264 151 264 151 241 151 c 2,76,-1
 193 151 l 2,77,78
 182 151 182 151 172.5 143 c 128,-1,79
 163 135 163 135 163 119 c 2,80,-1
 163 58 l 2,81,82
 163 42 163 42 172 33.5 c 128,-1,83
 181 25 181 25 193 25 c 2,84,-1
 242 25 l 2,85,86
 254 25 254 25 263 33.5 c 128,-1,87
 272 42 272 42 272 58 c 2,88,-1
 272 125 l 1,74,75
EndSplineSet
Substitution2: "Single Substitution lookup 21 subtable" uni0C23_uni0C4D.abvs
EndChar

StartChar: uni0C24
Encoding: 3108 3108 143
Width: 365
GlyphClass: 2
Flags: W
LayerCount: 2
Back
Fore
SplineSet
256 0 m 2,0,-1
 63 0 l 2,1,2
 43 0 43 0 28 15.5 c 128,-1,3
 13 31 13 31 13 56 c 2,4,-1
 13 168 l 2,5,6
 13 194 13 194 24.5 208.5 c 128,-1,7
 36 223 36 223 54 223 c 2,8,-1
 91 223 l 2,9,10
 109 223 109 223 124.5 208 c 128,-1,11
 140 193 140 193 140 168 c 2,12,-1
 140 149 l 2,13,14
 140 122 140 122 124.5 107.5 c 128,-1,15
 109 93 109 93 91 93 c 2,16,-1
 35 93 l 1,17,-1
 35 56 l 2,18,19
 35 40 35 40 44.5 32 c 128,-1,20
 54 24 54 24 65 24 c 2,21,-1
 254 24 l 2,22,23
 265 24 265 24 274.5 32 c 128,-1,24
 284 40 284 40 284 56 c 2,25,-1
 284 93 l 1,26,-1
 228 93 l 2,27,28
 210 93 210 93 194 108.5 c 128,-1,29
 178 124 178 124 178 150 c 2,30,-1
 178 168 l 2,31,32
 178 193 178 193 194 208 c 128,-1,33
 210 223 210 223 228 223 c 2,34,-1
 255 223 l 2,35,36
 261 225 261 225 263.5 233 c 128,-1,37
 266 241 266 241 266 243 c 2,38,-1
 266 266 l 2,39,40
 266 280 266 280 262.5 288.5 c 128,-1,41
 259 297 259 297 242 297 c 2,42,-1
 63 297 l 1,43,-1
 63 321 l 1,44,-1
 149 321 l 1,45,-1
 149 403 l 2,46,47
 149 423 149 423 162 436 c 128,-1,48
 175 449 175 449 190 449 c 2,49,-1
 304 449 l 1,50,-1
 304 427 l 1,51,-1
 197 427 l 2,52,53
 187 427 187 427 178.5 420 c 128,-1,54
 170 413 170 413 170 399 c 2,55,-1
 170 321 l 1,56,-1
 241 321 l 2,57,58
 262 321 262 321 274.5 310 c 128,-1,59
 287 299 287 299 287 271 c 2,60,-1
 287 238 l 2,61,62
 287 234 287 234 286 229.5 c 128,-1,63
 285 225 285 225 281 217 c 1,64,65
 295 203 295 203 300.5 191.5 c 128,-1,66
 306 180 306 180 306 167 c 2,67,-1
 306 56 l 2,68,69
 306 31 306 31 290 15.5 c 128,-1,70
 274 0 274 0 256 0 c 2,0,-1
284 167 m 2,71,72
 284 183 284 183 274.5 191 c 128,-1,73
 265 199 265 199 254 199 c 2,74,-1
 230 199 l 2,75,76
 218 199 218 199 209.5 190.5 c 128,-1,77
 201 182 201 182 201 167 c 2,78,-1
 201 149 l 2,79,80
 201 134 201 134 209 125 c 128,-1,81
 217 116 217 116 230 116 c 2,82,-1
 284 116 l 1,83,-1
 284 167 l 2,71,72
118 167 m 2,84,85
 118 183 118 183 108.5 191 c 128,-1,86
 99 199 99 199 88 199 c 2,87,-1
 56 199 l 2,88,89
 39 199 39 199 36 183 c 0,90,91
 35 179 35 179 35 174.5 c 128,-1,92
 35 170 35 170 35 167 c 2,93,-1
 35 116 l 1,94,-1
 88 116 l 2,95,96
 100 116 100 116 109 124.5 c 128,-1,97
 118 133 118 133 118 149 c 2,98,-1
 118 167 l 2,84,85
EndSplineSet
Substitution2: "Single Substitution lookup 21 subtable" uni0C24_uni0C4D.abvs
EndChar

StartChar: uni0C25
Encoding: 3109 3109 144
Width: 367
GlyphClass: 2
Flags: W
LayerCount: 2
Back
Fore
SplineSet
241 429 m 2,0,1
 230 429 230 429 221.5 423 c 128,-1,2
 213 417 213 417 213 400 c 2,3,-1
 212 322 l 1,4,-1
 252 322 l 2,5,6
 269 322 269 322 282 309.5 c 128,-1,7
 295 297 295 297 295 274 c 2,8,-1
 295 52 l 2,9,10
 295 30 295 30 282 17 c 128,-1,11
 269 4 269 4 252 4 c 2,12,-1
 179 4 l 2,13,14
 177 4 177 4 172.5 7 c 128,-1,15
 168 10 168 10 154 24 c 1,16,17
 141 12 141 12 132 8 c 128,-1,18
 123 4 123 4 114 4 c 2,19,-1
 55 4 l 2,20,21
 38 4 38 4 25.5 17 c 128,-1,22
 13 30 13 30 13 52 c 2,23,-1
 13 274 l 2,24,25
 13 312 13 312 59 325 c 1,26,27
 56 338 56 338 55 342.5 c 128,-1,28
 54 347 54 347 54 349 c 2,29,-1
 54 396 l 1,30,-1
 75 396 l 1,31,-1
 75 353 l 2,32,33
 75 336 75 336 85.5 330 c 128,-1,34
 96 324 96 324 107 322 c 2,35,-1
 191 322 l 1,36,-1
 192 404 l 2,37,38
 192 426 192 426 205 438.5 c 128,-1,39
 218 451 218 451 235 451 c 2,40,-1
 296 451 l 1,41,-1
 296 429 l 1,42,-1
 241 429 l 2,0,1
158 -45 m 2,43,-1
 158 -96 l 1,44,-1
 143 -96 l 1,45,-1
 143 -47 l 1,46,47
 147 -46 147 -46 152 -41 c 1,48,-1
 154 -43 l 2,49,50
 155 -44 155 -44 156 -44 c 128,-1,51
 157 -44 157 -44 158 -45 c 2,43,-1
273 269 m 2,52,53
 273 282 273 282 266.5 290.5 c 128,-1,54
 260 299 260 299 246 299 c 2,55,-1
 60 299 l 2,56,57
 46 299 46 299 40.5 290 c 128,-1,58
 35 281 35 281 35 268 c 2,59,-1
 35 55 l 2,60,61
 35 43 35 43 41 35.5 c 128,-1,62
 47 28 47 28 60 28 c 2,63,-1
 115 28 l 2,64,65
 143 28 143 28 143 55 c 2,66,-1
 143 90 l 1,67,-1
 164 90 l 1,68,-1
 164 55 l 2,69,70
 164 28 164 28 191 28 c 2,71,-1
 246 28 l 2,72,73
 273 28 273 28 273 55 c 2,74,-1
 273 269 l 2,52,53
142 169 m 1,75,-1
 142 203 l 1,76,-1
 166 203 l 1,77,-1
 166 169 l 1,78,-1
 142 169 l 1,75,-1
EndSplineSet
Substitution2: "Single Substitution lookup 21 subtable" uni0C25_uni0C4D.abvs
EndChar

StartChar: uni0C26
Encoding: 3110 3110 145
Width: 367
GlyphClass: 2
Flags: W
LayerCount: 2
Back
Fore
SplineSet
241 429 m 2,0,1
 230 429 230 429 221.5 423 c 128,-1,2
 213 417 213 417 213 400 c 2,3,-1
 212 321 l 1,4,-1
 252 321 l 2,5,6
 269 321 269 321 282 308.5 c 128,-1,7
 295 296 295 296 295 273 c 2,8,-1
 295 49 l 2,9,10
 295 27 295 27 282 14 c 128,-1,11
 269 1 269 1 252 1 c 2,12,-1
 179 1 l 2,13,14
 177 1 177 1 172.5 4 c 128,-1,15
 168 7 168 7 154 21 c 1,16,17
 141 9 141 9 132 5 c 128,-1,18
 123 1 123 1 114 1 c 2,19,-1
 55 1 l 2,20,21
 38 1 38 1 25.5 13.5 c 128,-1,22
 13 26 13 26 13 49 c 2,23,-1
 13 273 l 2,24,25
 13 311 13 311 59 324 c 1,26,27
 56 337 56 337 55 341.5 c 128,-1,28
 54 346 54 346 54 348 c 2,29,-1
 54 396 l 1,30,-1
 75 396 l 1,31,-1
 75 352 l 2,32,33
 75 335 75 335 85.5 329.5 c 128,-1,34
 96 324 96 324 107 321 c 2,35,-1
 191 321 l 1,36,-1
 192 404 l 2,37,38
 192 426 192 426 205 438.5 c 128,-1,39
 218 451 218 451 235 451 c 2,40,-1
 296 451 l 1,41,-1
 296 429 l 1,42,-1
 241 429 l 2,0,1
273 268 m 2,43,44
 273 281 273 281 266.5 289.5 c 128,-1,45
 260 298 260 298 246 298 c 2,46,-1
 60 298 l 2,47,48
 46 298 46 298 40.5 288.5 c 128,-1,49
 35 279 35 279 35 267 c 2,50,-1
 35 52 l 2,51,52
 35 40 35 40 41 32.5 c 128,-1,53
 47 25 47 25 60 25 c 2,54,-1
 115 25 l 2,55,56
 143 25 143 25 143 52 c 2,57,-1
 143 88 l 1,58,-1
 164 88 l 1,59,-1
 164 52 l 2,60,61
 164 25 164 25 191 25 c 2,62,-1
 246 25 l 2,63,64
 273 25 273 25 273 52 c 2,65,-1
 273 268 l 2,43,44
EndSplineSet
Substitution2: "Single Substitution lookup 21 subtable" uni0C26_uni0C4D.abvs
EndChar

StartChar: uni0C27
Encoding: 3111 3111 146
Width: 367
GlyphClass: 2
Flags: W
LayerCount: 2
Back
Fore
SplineSet
241 429 m 2,0,1
 230 429 230 429 221.5 423 c 128,-1,2
 213 417 213 417 213 400 c 2,3,-1
 212 322 l 1,4,-1
 252 322 l 2,5,6
 269 322 269 322 282 309.5 c 128,-1,7
 295 297 295 297 295 274 c 2,8,-1
 295 52 l 2,9,10
 295 30 295 30 282 17 c 128,-1,11
 269 4 269 4 252 4 c 2,12,-1
 179 4 l 2,13,14
 177 4 177 4 172.5 7 c 128,-1,15
 168 10 168 10 154 24 c 1,16,17
 141 12 141 12 132 8 c 128,-1,18
 123 4 123 4 114 4 c 2,19,-1
 55 4 l 2,20,21
 38 4 38 4 25.5 17 c 128,-1,22
 13 30 13 30 13 52 c 2,23,-1
 13 274 l 2,24,25
 13 312 13 312 59 325 c 1,26,27
 56 338 56 338 55 342.5 c 128,-1,28
 54 347 54 347 54 349 c 2,29,-1
 54 396 l 1,30,-1
 75 396 l 1,31,-1
 75 353 l 2,32,33
 75 336 75 336 85.5 330 c 128,-1,34
 96 324 96 324 107 322 c 2,35,-1
 191 322 l 1,36,-1
 192 404 l 2,37,38
 192 426 192 426 205 438.5 c 128,-1,39
 218 451 218 451 235 451 c 2,40,-1
 296 451 l 1,41,-1
 296 429 l 1,42,-1
 241 429 l 2,0,1
158 -45 m 2,43,-1
 158 -96 l 1,44,-1
 143 -96 l 1,45,-1
 143 -47 l 1,46,47
 147 -46 147 -46 152 -41 c 1,48,-1
 154 -43 l 2,49,50
 155 -44 155 -44 156 -44 c 128,-1,51
 157 -44 157 -44 158 -45 c 2,43,-1
273 269 m 2,52,53
 273 282 273 282 266.5 290.5 c 128,-1,54
 260 299 260 299 246 299 c 2,55,-1
 60 299 l 2,56,57
 46 299 46 299 40.5 290 c 128,-1,58
 35 281 35 281 35 268 c 2,59,-1
 35 55 l 2,60,61
 35 43 35 43 41 35.5 c 128,-1,62
 47 28 47 28 60 28 c 2,63,-1
 115 28 l 2,64,65
 143 28 143 28 143 55 c 2,66,-1
 143 90 l 1,67,-1
 164 90 l 1,68,-1
 164 55 l 2,69,70
 164 28 164 28 191 28 c 2,71,-1
 246 28 l 2,72,73
 273 28 273 28 273 55 c 2,74,-1
 273 269 l 2,52,53
EndSplineSet
Substitution2: "Single Substitution lookup 21 subtable" uni0C27_uni0C4D.abvs
EndChar

StartChar: uni0C28
Encoding: 3112 3112 147
Width: 364
GlyphClass: 2
Flags: W
LayerCount: 2
Back
Fore
SplineSet
244 0 m 2,0,-1
 192 0 l 2,1,2
 174 0 174 0 158 15.5 c 128,-1,3
 142 31 142 31 142 56 c 2,4,-1
 142 149 l 2,5,6
 142 166 142 166 132.5 173 c 128,-1,7
 123 180 123 180 112 181 c 2,8,-1
 65 181 l 2,9,10
 35 181 35 181 35 149 c 2,11,-1
 35 0 l 1,12,-1
 13 0 l 1,13,-1
 13 150 l 2,14,15
 13 175 13 175 28 189.5 c 128,-1,16
 43 204 43 204 63 204 c 2,17,-1
 114 204 l 2,18,19
 132 204 132 204 148 189.5 c 128,-1,20
 164 175 164 175 164 150 c 2,21,-1
 164 56 l 2,22,23
 164 40 164 40 173.5 32 c 128,-1,24
 183 24 183 24 194 24 c 2,25,-1
 242 24 l 2,26,27
 254 24 254 24 262.5 32.5 c 128,-1,28
 271 41 271 41 271 56 c 2,29,-1
 271 265 l 2,30,31
 271 282 271 282 262 289.5 c 128,-1,32
 253 297 253 297 242 297 c 2,33,-1
 47 297 l 1,34,-1
 47 321 l 1,35,-1
 129 321 l 1,36,-1
 129 409 l 2,37,38
 129 429 129 429 142 442 c 128,-1,39
 155 455 155 455 170 455 c 2,40,-1
 293 455 l 1,41,-1
 293 433 l 1,42,-1
 177 433 l 2,43,44
 167 433 167 433 158.5 426 c 128,-1,45
 150 419 150 419 150 405 c 2,46,-1
 150 321 l 1,47,-1
 244 321 l 2,48,49
 262 321 262 321 277.5 305 c 128,-1,50
 293 289 293 289 293 265 c 2,51,-1
 293 56 l 2,52,53
 293 30 293 30 277.5 15 c 128,-1,54
 262 0 262 0 244 0 c 2,0,-1
EndSplineSet
Substitution2: "Single Substitution lookup 21 subtable" uni0C28_uni0C4D.abvs
EndChar

StartChar: uni0C2A
Encoding: 3114 3114 148
Width: 360
GlyphClass: 2
Flags: W
LayerCount: 2
Back
Fore
SplineSet
166 428 m 2,0,1
 153 428 153 428 147 420 c 128,-1,2
 141 412 141 412 141 400 c 2,3,-1
 141 348 l 2,4,5
 141 321 141 321 129 308.5 c 128,-1,6
 117 296 117 296 98 296 c 2,7,-1
 14 296 l 1,8,-1
 14 320 l 1,9,-1
 91 320 l 2,10,11
 119 320 119 320 119 348 c 2,12,-1
 119 398 l 2,13,14
 119 425 119 425 132.5 438.5 c 128,-1,15
 146 452 146 452 163 452 c 2,16,-1
 232 452 l 1,17,-1
 232 428 l 1,18,-1
 166 428 l 2,0,1
242 0 m 2,19,-1
 191 0 l 2,20,21
 185 0 185 0 175.5 4.5 c 128,-1,22
 166 9 166 9 152 23 c 1,23,24
 139 9 139 9 130.5 4.5 c 128,-1,25
 122 0 122 0 116 0 c 2,26,-1
 63 0 l 2,27,28
 43 0 43 0 28 15.5 c 128,-1,29
 13 31 13 31 13 56 c 2,30,-1
 13 160 l 2,31,32
 13 186 13 186 28 200.5 c 128,-1,33
 43 215 43 215 63 215 c 2,34,-1
 112 215 l 2,35,36
 132 215 132 215 147 200.5 c 128,-1,37
 162 186 162 186 162 160 c 2,38,-1
 162 56 l 2,39,40
 162 24 162 24 193 24 c 2,41,-1
 240 24 l 2,42,43
 252 24 252 24 260.5 32.5 c 128,-1,44
 269 41 269 41 269 56 c 2,45,-1
 269 266 l 2,46,47
 269 297 269 297 240 297 c 2,48,-1
 238 297 l 1,49,-1
 238 321 l 1,50,-1
 242 321 l 2,51,52
 260 321 260 321 275.5 305.5 c 128,-1,53
 291 290 291 290 291 265 c 2,54,-1
 291 56 l 2,55,56
 291 31 291 31 275.5 15.5 c 128,-1,57
 260 0 260 0 242 0 c 2,19,-1
141 159 m 2,58,59
 141 192 141 192 110 192 c 2,60,-1
 65 192 l 2,61,62
 35 192 35 192 35 159 c 2,63,-1
 35 56 l 2,64,65
 35 40 35 40 44.5 32 c 128,-1,66
 54 24 54 24 65 24 c 2,67,-1
 110 24 l 2,68,69
 141 24 141 24 141 56 c 2,70,-1
 141 159 l 2,58,59
EndSplineSet
Substitution2: "Single Substitution lookup 21 subtable" uni0C2A_uni0C4D.abvs
EndChar

StartChar: uni0C2B
Encoding: 3115 3115 149
Width: 360
GlyphClass: 2
Flags: W
LayerCount: 2
Back
Fore
SplineSet
166 428 m 2,0,1
 153 428 153 428 147 420 c 128,-1,2
 141 412 141 412 141 400 c 2,3,-1
 141 348 l 2,4,5
 141 322 141 322 129 309.5 c 128,-1,6
 117 297 117 297 98 297 c 2,7,-1
 14 297 l 1,8,-1
 14 321 l 1,9,-1
 91 321 l 2,10,11
 119 321 119 321 119 348 c 2,12,-1
 119 398 l 2,13,14
 119 425 119 425 132.5 438.5 c 128,-1,15
 146 452 146 452 163 452 c 2,16,-1
 232 452 l 1,17,-1
 232 428 l 1,18,-1
 166 428 l 2,0,1
242 4 m 2,19,-1
 191 4 l 2,20,21
 185 4 185 4 175.5 8 c 128,-1,22
 166 12 166 12 152 26 c 1,23,24
 139 13 139 13 130.5 8.5 c 128,-1,25
 122 4 122 4 116 4 c 2,26,-1
 63 4 l 2,27,28
 43 4 43 4 28 19 c 128,-1,29
 13 34 13 34 13 60 c 2,30,-1
 13 163 l 2,31,32
 13 188 13 188 28 202.5 c 128,-1,33
 43 217 43 217 63 217 c 2,34,-1
 112 217 l 2,35,36
 132 217 132 217 147 202.5 c 128,-1,37
 162 188 162 188 162 163 c 2,38,-1
 162 60 l 2,39,40
 162 28 162 28 193 28 c 2,41,-1
 240 28 l 2,42,43
 252 28 252 28 260.5 36 c 128,-1,44
 269 44 269 44 269 60 c 2,45,-1
 269 267 l 2,46,47
 269 299 269 299 240 299 c 2,48,-1
 238 299 l 1,49,-1
 238 322 l 1,50,-1
 242 322 l 2,51,52
 260 322 260 322 275.5 307 c 128,-1,53
 291 292 291 292 291 266 c 2,54,-1
 291 60 l 2,55,56
 291 34 291 34 275.5 19 c 128,-1,57
 260 4 260 4 242 4 c 2,19,-1
157 -43 m 2,58,-1
 157 -83 l 1,59,-1
 142 -83 l 1,60,-1
 142 -44 l 2,61,62
 145 -43 145 -43 151 -39 c 1,63,-1
 153 -40 l 2,64,65
 154 -41 154 -41 155 -41.5 c 128,-1,66
 156 -42 156 -42 157 -43 c 2,58,-1
141 162 m 2,67,68
 141 194 141 194 110 194 c 2,69,-1
 65 194 l 2,70,71
 35 194 35 194 35 162 c 2,72,-1
 35 60 l 2,73,74
 35 44 35 44 44.5 36 c 128,-1,75
 54 28 54 28 65 28 c 2,76,-1
 110 28 l 2,77,78
 141 28 141 28 141 60 c 2,79,-1
 141 162 l 2,67,68
EndSplineSet
Substitution2: "Single Substitution lookup 21 subtable" uni0C2B_uni0C4D.abvs
EndChar

StartChar: uni0C2C
Encoding: 3116 3116 150
Width: 350
GlyphClass: 2
Flags: W
LayerCount: 2
Back
Fore
SplineSet
227 0 m 2,0,-1
 179 0 l 2,1,2
 169 0 169 0 145 18 c 1,3,4
 131 9 131 9 122.5 4.5 c 128,-1,5
 114 0 114 0 105 0 c 2,6,-1
 63 0 l 2,7,8
 43 0 43 0 28 15.5 c 128,-1,9
 13 31 13 31 13 58 c 2,10,-1
 13 140 l 2,11,12
 13 167 13 167 28 182.5 c 128,-1,13
 43 198 43 198 63 198 c 2,14,-1
 102 198 l 2,15,16
 133 198 133 198 133 231 c 2,17,-1
 133 271 l 2,18,19
 133 303 133 303 102 303 c 2,20,-1
 65 303 l 2,21,22
 35 303 35 303 35 271 c 2,23,-1
 35 250 l 1,24,-1
 13 250 l 1,25,-1
 13 270 l 2,26,27
 13 297 13 297 28 312.5 c 128,-1,28
 43 328 43 328 63 328 c 2,29,-1
 104 328 l 2,30,31
 124 328 124 328 139 312.5 c 128,-1,32
 154 297 154 297 154 270 c 2,33,-1
 154 232 l 2,34,35
 154 204 154 204 139 188.5 c 128,-1,36
 124 173 124 173 104 173 c 2,37,-1
 65 173 l 2,38,39
 53 173 53 173 44 164.5 c 128,-1,40
 35 156 35 156 35 140 c 2,41,-1
 35 58 l 2,42,43
 35 42 35 42 44 33.5 c 128,-1,44
 53 25 53 25 65 25 c 2,45,-1
 102 25 l 2,46,47
 118 25 118 25 125.5 34 c 128,-1,48
 133 43 133 43 133 58 c 2,49,-1
 133 89 l 1,50,-1
 154 89 l 1,51,-1
 154 58 l 2,52,53
 154 43 154 43 161.5 34 c 128,-1,54
 169 25 169 25 185 25 c 2,55,-1
 225 25 l 2,56,57
 237 25 237 25 246 33.5 c 128,-1,58
 255 42 255 42 255 58 c 2,59,-1
 255 271 l 2,60,61
 255 303 255 303 225 303 c 2,62,-1
 224 303 l 1,63,-1
 224 328 l 1,64,-1
 227 328 l 2,65,66
 245 328 245 328 261 312.5 c 128,-1,67
 277 297 277 297 277 270 c 2,68,-1
 277 58 l 2,69,70
 277 31 277 31 261 15.5 c 128,-1,71
 245 0 245 0 227 0 c 2,0,-1
EndSplineSet
Substitution2: "Single Substitution lookup 21 subtable" uni0C2C_uni0C4D.abvs
EndChar

StartChar: uni0C2D
Encoding: 3117 3117 151
Width: 350
GlyphClass: 2
Flags: W
LayerCount: 2
Back
Fore
SplineSet
264 430 m 2,0,1
 237 430 237 430 237 401 c 2,2,-1
 238 321 l 1,3,4
 277 301 277 301 277 266 c 2,5,-1
 277 60 l 2,6,7
 277 35 277 35 261 19.5 c 128,-1,8
 245 4 245 4 227 4 c 2,9,-1
 179 4 l 2,10,11
 173 4 173 4 165.5 8 c 128,-1,12
 158 12 158 12 145 23 c 1,13,14
 131 13 131 13 122.5 8.5 c 128,-1,15
 114 4 114 4 105 4 c 2,16,-1
 63 4 l 2,17,18
 43 4 43 4 28 19 c 128,-1,19
 13 34 13 34 13 60 c 2,20,-1
 13 119 l 2,21,22
 13 144 13 144 28 159.5 c 128,-1,23
 43 175 43 175 63 175 c 2,24,-1
 102 175 l 2,25,26
 133 175 133 175 133 206 c 2,27,-1
 133 236 l 2,28,29
 133 267 133 267 102 267 c 2,30,-1
 65 267 l 2,31,32
 35 267 35 267 35 236 c 2,33,-1
 35 221 l 1,34,-1
 13 221 l 1,35,-1
 13 235 l 2,36,37
 13 260 13 260 28 275.5 c 128,-1,38
 43 291 43 291 63 291 c 2,39,-1
 104 291 l 2,40,41
 124 291 124 291 139 275.5 c 128,-1,42
 154 260 154 260 154 235 c 2,43,-1
 154 207 l 2,44,45
 154 181 154 181 139 166 c 128,-1,46
 124 151 124 151 104 151 c 2,47,-1
 65 151 l 2,48,49
 54 151 54 151 44.5 143 c 128,-1,50
 35 135 35 135 35 119 c 2,51,-1
 35 60 l 2,52,53
 35 44 35 44 44.5 36 c 128,-1,54
 54 28 54 28 65 28 c 2,55,-1
 102 28 l 2,56,57
 133 28 133 28 133 60 c 2,58,-1
 133 91 l 1,59,-1
 154 91 l 1,60,-1
 154 60 l 2,61,62
 154 28 154 28 185 28 c 2,63,-1
 225 28 l 2,64,65
 236 28 236 28 245.5 36 c 128,-1,66
 255 44 255 44 255 60 c 2,67,-1
 255 267 l 2,68,69
 255 299 255 299 225 299 c 2,70,-1
 211 299 l 1,71,-1
 196 299 l 2,72,73
 195 299 195 299 185.5 299.5 c 128,-1,74
 176 300 176 300 165.5 304 c 128,-1,75
 155 308 155 308 146.5 316 c 128,-1,76
 138 324 138 324 138 339 c 2,77,-1
 138 356 l 1,78,-1
 159 356 l 1,79,-1
 159 354 l 2,80,81
 159 343 159 343 162 335.5 c 128,-1,82
 165 328 165 328 176 324 c 0,83,84
 182 322 182 322 186 322 c 2,85,-1
 215 322 l 1,86,-1
 215 405 l 2,87,88
 215 427 215 427 228 439.5 c 128,-1,89
 241 452 241 452 258 452 c 2,90,-1
 290 452 l 1,91,-1
 290 430 l 1,92,-1
 264 430 l 2,0,1
149 -46 m 2,93,-1
 149 -86 l 1,94,-1
 134 -86 l 1,95,-1
 134 -47 l 2,96,97
 137 -46 137 -46 143 -42 c 1,98,-1
 145 -43 l 2,99,100
 146 -44 146 -44 147 -44.5 c 128,-1,101
 148 -45 148 -45 149 -46 c 2,93,-1
EndSplineSet
Substitution2: "Single Substitution lookup 21 subtable" uni0C2D_uni0C4D.abvs
EndChar

StartChar: uni0C2E
Encoding: 3118 3118 152
Width: 484
GlyphClass: 2
Flags: W
LayerCount: 2
Back
Fore
SplineSet
369 0 m 2,0,-1
 309 0 l 2,1,2
 301 0 301 0 290 5 c 128,-1,3
 279 10 279 10 267 27 c 1,4,5
 252 10 252 10 242.5 5 c 128,-1,6
 233 0 233 0 224 0 c 2,7,-1
 182 0 l 2,8,9
 173 0 173 0 163.5 4.5 c 128,-1,10
 154 9 154 9 141 23 c 1,11,12
 128 9 128 9 119.5 4.5 c 128,-1,13
 111 0 111 0 106 0 c 2,14,-1
 61 0 l 2,15,16
 43 0 43 0 27.5 15.5 c 128,-1,17
 12 31 12 31 12 57 c 2,18,-1
 12 160 l 2,19,20
 12 184 12 184 27.5 200.5 c 128,-1,21
 43 217 43 217 61 217 c 2,22,-1
 102 217 l 2,23,24
 120 217 120 217 135.5 200.5 c 128,-1,25
 151 184 151 184 151 160 c 2,26,-1
 151 57 l 2,27,28
 151 24 151 24 184 24 c 2,29,-1
 222 24 l 2,30,31
 235 24 235 24 243 33 c 128,-1,32
 251 42 251 42 251 57 c 2,33,-1
 251 267 l 2,34,35
 251 299 251 299 222 299 c 2,36,-1
 13 299 l 1,37,-1
 13 323 l 1,38,-1
 90 323 l 1,39,-1
 90 395 l 2,40,41
 90 421 90 421 105 436.5 c 128,-1,42
 120 452 120 452 140 452 c 2,43,-1
 243 452 l 1,44,-1
 243 428 l 1,45,-1
 142 428 l 2,46,47
 127 428 127 428 119.5 418.5 c 128,-1,48
 112 409 112 409 112 395 c 2,49,-1
 112 323 l 1,50,-1
 224 323 l 2,51,52
 242 323 242 323 257.5 307 c 128,-1,53
 273 291 273 291 273 266 c 2,54,-1
 273 74 l 2,55,56
 273 47 273 47 283.5 35.5 c 128,-1,57
 294 24 294 24 311 24 c 2,58,-1
 367 24 l 2,59,60
 397 24 397 24 397 56 c 2,61,-1
 397 266 l 2,62,63
 397 297 397 297 367 297 c 2,64,-1
 365 297 l 1,65,-1
 365 321 l 1,66,-1
 369 321 l 2,67,68
 389 321 389 321 403.5 305.5 c 128,-1,69
 418 290 418 290 418 265 c 2,70,-1
 418 56 l 2,71,72
 418 30 418 30 403.5 15 c 128,-1,73
 389 0 389 0 369 0 c 2,0,-1
130 161 m 2,74,75
 130 178 130 178 120.5 185.5 c 128,-1,76
 111 193 111 193 100 193 c 2,77,-1
 63 193 l 2,78,79
 34 193 34 193 34 161 c 2,80,-1
 34 57 l 2,81,82
 34 42 34 42 42 33 c 128,-1,83
 50 24 50 24 63 24 c 2,84,-1
 100 24 l 2,85,86
 112 24 112 24 121 33 c 128,-1,87
 130 42 130 42 130 57 c 2,88,-1
 130 161 l 2,74,75
EndSplineSet
Substitution2: "Single Substitution lookup 21 subtable" uni0C2E_uni0C4D.abvs
EndChar

StartChar: uni0C2F
Encoding: 3119 3119 153
Width: 623
GlyphClass: 2
Flags: W
LayerCount: 2
Back
Fore
SplineSet
504 0 m 2,0,-1
 444 0 l 2,1,2
 435 0 435 0 424.5 5 c 128,-1,3
 414 10 414 10 402 26 c 1,4,5
 385 9 385 9 374 4.5 c 128,-1,6
 363 0 363 0 359 0 c 2,7,-1
 254 0 l 2,8,9
 243 0 243 0 234 9 c 128,-1,10
 225 18 225 18 215 45 c 1,11,12
 199 17 199 17 191 8.5 c 128,-1,13
 183 0 183 0 173 0 c 2,14,-1
 63 0 l 2,15,16
 43 0 43 0 28 15.5 c 128,-1,17
 13 31 13 31 13 56 c 2,18,-1
 13 266 l 2,19,20
 13 289 13 289 28 305 c 128,-1,21
 43 321 43 321 63 321 c 2,22,-1
 174 321 l 2,23,24
 192 321 192 321 208 305 c 128,-1,25
 224 289 224 289 224 266 c 2,26,-1
 224 56 l 2,27,28
 224 41 224 41 232.5 32.5 c 128,-1,29
 241 24 241 24 253 24 c 2,30,-1
 355 24 l 2,31,32
 385 24 385 24 385 56 c 2,33,-1
 385 266 l 2,34,35
 385 297 385 297 355 297 c 2,36,-1
 284 297 l 1,37,-1
 284 321 l 1,38,-1
 301 321 l 1,39,-1
 301 406 l 2,40,41
 301 426 301 426 314 439 c 128,-1,42
 327 452 327 452 342 452 c 2,43,-1
 406 452 l 1,44,-1
 406 429 l 1,45,-1
 349 429 l 2,46,47
 339 429 339 429 330.5 422 c 128,-1,48
 322 415 322 415 322 401 c 2,49,-1
 322 321 l 1,50,-1
 357 321 l 2,51,52
 377 321 377 321 392 305 c 128,-1,53
 407 289 407 289 407 266 c 2,54,-1
 407 66 l 2,55,56
 407 39 407 39 419.5 31.5 c 128,-1,57
 432 24 432 24 446 24 c 2,58,-1
 502 24 l 2,59,60
 513 24 513 24 522.5 32 c 128,-1,61
 532 40 532 40 532 56 c 2,62,-1
 532 266 l 2,63,64
 532 297 532 297 502 297 c 2,65,-1
 500 297 l 1,66,-1
 500 321 l 1,67,-1
 504 321 l 2,68,69
 522 321 522 321 537.5 305.5 c 128,-1,70
 553 290 553 290 553 265 c 2,71,-1
 553 56 l 2,72,73
 553 31 553 31 537.5 15.5 c 128,-1,74
 522 0 522 0 504 0 c 2,0,-1
201 266 m 2,75,76
 201 297 201 297 172 297 c 2,77,-1
 66 297 l 2,78,79
 35 297 35 297 35 266 c 2,80,-1
 35 56 l 2,81,82
 35 24 35 24 66 24 c 2,83,-1
 172 24 l 2,84,85
 184 24 184 24 192.5 32.5 c 128,-1,86
 201 41 201 41 201 56 c 2,87,-1
 201 266 l 2,75,76
EndSplineSet
Substitution2: "Single Substitution lookup 21 subtable" uni0C2F_uni0C4D.abvs
EndChar

StartChar: uni0C30
Encoding: 3120 3120 154
Width: 312
GlyphClass: 2
Flags: W
LayerCount: 2
Back
Fore
SplineSet
189 0 m 2,0,-1
 62 0 l 2,1,2
 44 0 44 0 28.5 15.5 c 128,-1,3
 13 31 13 31 13 56 c 2,4,-1
 13 266 l 2,5,6
 13 280 13 280 19.5 292 c 128,-1,7
 26 304 26 304 45 319 c 1,8,9
 36 330 36 330 33.5 337 c 128,-1,10
 31 344 31 344 31 349 c 2,11,-1
 31 376 l 1,12,-1
 52 376 l 1,13,-1
 52 353 l 2,14,15
 52 328 52 328 77 323 c 2,16,-1
 89 321 l 1,17,-1
 138 321 l 1,18,-1
 138 404 l 2,19,20
 138 426 138 426 151 439 c 128,-1,21
 164 452 164 452 181 452 c 2,22,-1
 236 452 l 1,23,-1
 236 428 l 1,24,-1
 187 428 l 2,25,26
 176 428 176 428 167.5 422 c 128,-1,27
 159 416 159 416 159 399 c 2,28,-1
 159 321 l 1,29,-1
 187 321 l 2,30,31
 205 321 205 321 220.5 305 c 128,-1,32
 236 289 236 289 236 266 c 2,33,-1
 236 56 l 2,34,35
 236 39 236 39 230 28 c 128,-1,36
 224 17 224 17 216 11 c 128,-1,37
 208 5 208 5 200.5 2.5 c 128,-1,38
 193 0 193 0 189 0 c 2,0,-1
214 266 m 2,39,40
 214 282 214 282 205 289.5 c 128,-1,41
 196 297 196 297 185 297 c 2,42,-1
 65 297 l 2,43,44
 35 297 35 297 35 266 c 2,45,-1
 35 56 l 2,46,47
 35 24 35 24 65 24 c 2,48,-1
 185 24 l 2,49,50
 197 24 197 24 205.5 32.5 c 128,-1,51
 214 41 214 41 214 56 c 2,52,-1
 214 266 l 2,39,40
EndSplineSet
Substitution2: "Single Substitution lookup 21 subtable" uni0C30_uni0C4D.abvs
EndChar

StartChar: uni0C31
Encoding: 3121 3121 155
Width: 370
GlyphClass: 2
Flags: W
LayerCount: 2
Back
Fore
SplineSet
257 0 m 2,0,-1
 187 0 l 2,1,2
 179 0 179 0 172.5 3.5 c 128,-1,3
 166 7 166 7 155 18 c 1,4,5
 144 7 144 7 137 3.5 c 128,-1,6
 130 0 130 0 127 0 c 2,7,-1
 63 0 l 2,8,9
 43 0 43 0 28 15.5 c 128,-1,10
 13 31 13 31 13 58 c 2,11,-1
 13 270 l 2,12,13
 13 297 13 297 28 312.5 c 128,-1,14
 43 328 43 328 63 328 c 2,15,-1
 89 328 l 2,16,17
 109 328 109 328 124 312.5 c 128,-1,18
 139 297 139 297 139 270 c 2,19,-1
 139 232 l 2,20,21
 139 204 139 204 124 188.5 c 128,-1,22
 109 173 109 173 89 173 c 2,23,-1
 35 173 l 1,24,-1
 35 58 l 2,25,26
 35 42 35 42 44 33.5 c 128,-1,27
 53 25 53 25 65 25 c 2,28,-1
 112 25 l 2,29,30
 128 25 128 25 135.5 34 c 128,-1,31
 143 43 143 43 143 58 c 2,32,-1
 143 64 l 1,33,-1
 165 64 l 1,34,-1
 165 58 l 2,35,36
 165 42 165 42 174 33.5 c 128,-1,37
 183 25 183 25 195 25 c 2,38,-1
 255 25 l 2,39,40
 267 25 267 25 276 33.5 c 128,-1,41
 285 42 285 42 285 58 c 2,42,-1
 285 271 l 2,43,44
 285 303 285 303 255 303 c 2,45,-1
 234 303 l 2,46,47
 205 303 205 303 205 271 c 2,48,-1
 205 141 l 1,49,-1
 221 141 l 1,50,-1
 221 115 l 1,51,-1
 77 115 l 1,52,-1
 77 140 l 1,53,-1
 183 140 l 1,54,-1
 183 270 l 2,55,56
 183 297 183 297 198.5 312.5 c 128,-1,57
 214 328 214 328 232 328 c 2,58,-1
 257 328 l 2,59,60
 277 328 277 328 292 312.5 c 128,-1,61
 307 297 307 297 307 270 c 2,62,-1
 307 58 l 2,63,64
 307 31 307 31 292 15.5 c 128,-1,65
 277 0 277 0 257 0 c 2,0,-1
117 271 m 2,66,67
 117 303 117 303 87 303 c 2,68,-1
 65 303 l 2,69,70
 35 303 35 303 35 271 c 2,71,-1
 35 198 l 1,72,-1
 87 198 l 2,73,74
 102 198 102 198 109.5 207.5 c 128,-1,75
 117 217 117 217 117 232 c 2,76,-1
 117 271 l 2,66,67
EndSplineSet
Substitution2: "Single Substitution lookup 21 subtable" uni0C31_uni0C4D.abvs
EndChar

StartChar: uni0C32
Encoding: 3122 3122 156
Width: 349
GlyphClass: 2
Flags: W
LayerCount: 2
Back
Fore
SplineSet
229 328 m 1,0,1
 246 327 246 327 261.5 312 c 128,-1,2
 277 297 277 297 277 270 c 2,3,-1
 277 58 l 2,4,5
 277 31 277 31 261.5 15.5 c 128,-1,6
 246 0 246 0 228 0 c 2,7,-1
 63 0 l 2,8,9
 43 0 43 0 28 15.5 c 128,-1,10
 13 31 13 31 13 58 c 2,11,-1
 13 270 l 2,12,13
 13 297 13 297 28 312.5 c 128,-1,14
 43 328 43 328 63 328 c 2,15,-1
 106 328 l 2,16,17
 124 328 124 328 140 312.5 c 128,-1,18
 156 297 156 297 156 270 c 2,19,-1
 156 207 l 2,20,21
 156 180 156 180 140 164.5 c 128,-1,22
 124 149 124 149 106 149 c 2,23,-1
 35 149 l 1,24,-1
 35 58 l 2,25,26
 35 42 35 42 44 33.5 c 128,-1,27
 53 25 53 25 65 25 c 2,28,-1
 226 25 l 2,29,30
 239 25 239 25 247 34 c 128,-1,31
 255 43 255 43 255 58 c 2,32,-1
 255 271 l 2,33,34
 255 301 255 301 229 303 c 1,35,-1
 229 328 l 1,0,1
134 271 m 2,36,37
 134 288 134 288 124.5 295.5 c 128,-1,38
 115 303 115 303 104 303 c 2,39,-1
 65 303 l 2,40,41
 35 303 35 303 35 271 c 2,42,-1
 35 173 l 1,43,-1
 104 173 l 2,44,45
 117 173 117 173 125.5 182.5 c 128,-1,46
 134 192 134 192 134 207 c 2,47,-1
 134 271 l 2,36,37
EndSplineSet
Substitution2: "Single Substitution lookup 21 subtable" uni0C32_uni0C4D.abvs
EndChar

StartChar: uni0C33
Encoding: 3123 3123 157
Width: 358
GlyphClass: 2
Flags: W
LayerCount: 2
Back
Fore
SplineSet
243 418 m 2,0,1
 233 418 233 418 224.5 411 c 128,-1,2
 216 404 216 404 216 390 c 2,3,-1
 216 321 l 1,4,-1
 235 321 l 2,5,6
 255 321 255 321 270 306 c 128,-1,7
 285 291 285 291 285 266 c 2,8,-1
 285 182 l 2,9,10
 285 162 285 162 271 148.5 c 128,-1,11
 257 135 257 135 237 127 c 1,12,13
 242 115 242 115 243.5 110.5 c 128,-1,14
 245 106 245 106 245 104 c 2,15,-1
 245 55 l 2,16,17
 245 30 245 30 230.5 15 c 128,-1,18
 216 0 216 0 185 0 c 2,19,-1
 111 0 l 2,20,21
 90 0 90 0 76.5 14 c 128,-1,22
 63 28 63 28 63 55 c 2,23,-1
 63 95 l 1,24,-1
 63 104 l 2,25,26
 64 107 64 107 65 111.5 c 128,-1,27
 66 116 66 116 69 124 c 1,28,29
 50 127 50 127 31.5 145.5 c 128,-1,30
 13 164 13 164 13 199 c 2,31,-1
 13 265 l 2,32,33
 13 291 13 291 28 306 c 128,-1,34
 43 321 43 321 61 321 c 2,35,-1
 88 321 l 2,36,37
 101 321 101 321 110 316 c 128,-1,38
 119 311 119 311 125 304 c 128,-1,39
 131 297 131 297 133.5 289 c 128,-1,40
 136 281 136 281 136 274 c 2,41,-1
 136 245 l 2,42,43
 136 222 136 222 119.5 212 c 128,-1,44
 103 202 103 202 91 202 c 2,45,-1
 37 202 l 1,46,47
 37 171 37 171 45.5 161 c 128,-1,48
 54 151 54 151 67 151 c 2,49,-1
 230 151 l 2,50,51
 241 151 241 151 252 158 c 128,-1,52
 263 165 263 165 263 188 c 2,53,-1
 263 266 l 2,54,55
 263 297 263 297 233 297 c 2,56,-1
 180 297 l 1,57,-1
 180 321 l 1,58,-1
 195 321 l 1,59,-1
 195 394 l 2,60,61
 195 414 195 414 208 427 c 128,-1,62
 221 440 221 440 236 440 c 2,63,-1
 286 440 l 1,64,-1
 286 418 l 1,65,-1
 243 418 l 2,0,1
115 275 m 2,66,67
 115 287 115 287 107 292 c 128,-1,68
 99 297 99 297 91 297 c 2,69,-1
 60 297 l 2,70,71
 35 297 35 297 35 272 c 2,72,-1
 35 254 l 2,73,74
 35 247 35 247 39.5 237.5 c 128,-1,75
 44 228 44 228 61 228 c 2,76,-1
 89 228 l 2,77,78
 100 228 100 228 107.5 234 c 128,-1,79
 115 240 115 240 115 252 c 2,80,-1
 115 275 l 2,66,67
223 92 m 2,81,82
 223 111 223 111 214 119.5 c 128,-1,83
 205 128 205 128 191 128 c 2,84,-1
 116 128 l 2,85,86
 104 128 104 128 94 122 c 128,-1,87
 84 116 84 116 84 95 c 2,88,-1
 84 56 l 2,89,90
 84 36 84 36 93.5 30 c 128,-1,91
 103 24 103 24 115 24 c 2,92,-1
 192 24 l 2,93,94
 208 24 208 24 215.5 33.5 c 128,-1,95
 223 43 223 43 223 60 c 2,96,-1
 223 92 l 2,81,82
EndSplineSet
Substitution2: "Single Substitution lookup 21 subtable" uni0C33_uni0C4D.abvs
EndChar

StartChar: uni0C34
Encoding: 3124 3124 158
Width: 382
GlyphClass: 2
Flags: W
LayerCount: 2
Back
Fore
SplineSet
267 0 m 2,0,-1
 197 0 l 2,1,2
 189 0 189 0 182.5 3.5 c 128,-1,3
 176 7 176 7 165 18 c 1,4,5
 154 7 154 7 147 3.5 c 128,-1,6
 140 0 140 0 137 0 c 2,7,-1
 63 0 l 2,8,9
 43 0 43 0 28 15.5 c 128,-1,10
 13 31 13 31 13 58 c 2,11,-1
 13 270 l 2,12,13
 13 297 13 297 28 312.5 c 128,-1,14
 43 328 43 328 63 328 c 2,15,-1
 89 328 l 2,16,17
 109 328 109 328 124 312.5 c 128,-1,18
 139 297 139 297 139 270 c 2,19,-1
 139 232 l 2,20,21
 139 204 139 204 124 188.5 c 128,-1,22
 109 173 109 173 89 173 c 2,23,-1
 35 173 l 1,24,-1
 35 58 l 2,25,26
 35 42 35 42 44 33.5 c 128,-1,27
 53 25 53 25 65 25 c 2,28,-1
 122 25 l 2,29,30
 138 25 138 25 145.5 34 c 128,-1,31
 153 43 153 43 153 58 c 2,32,-1
 153 85 l 1,33,-1
 175 85 l 1,34,-1
 175 58 l 2,35,36
 175 42 175 42 184 33.5 c 128,-1,37
 193 25 193 25 205 25 c 2,38,-1
 265 25 l 2,39,40
 279 25 279 25 287 37 c 128,-1,41
 295 49 295 49 295 58 c 2,42,-1
 295 174 l 1,43,-1
 241 174 l 2,44,45
 221 174 221 174 206 189.5 c 128,-1,46
 191 205 191 205 191 233 c 2,47,-1
 191 270 l 2,48,49
 191 297 191 297 206 313 c 128,-1,50
 221 329 221 329 241 329 c 2,51,-1
 266 329 l 2,52,53
 286 329 286 329 301.5 313 c 128,-1,54
 317 297 317 297 317 270 c 2,55,-1
 317 59 l 2,56,57
 317 34 317 34 303.5 17 c 128,-1,58
 290 0 290 0 267 0 c 2,0,-1
295 271 m 2,59,60
 295 286 295 286 287.5 295 c 128,-1,61
 280 304 280 304 264 304 c 2,62,-1
 243 304 l 2,63,64
 227 304 227 304 219.5 295 c 128,-1,65
 212 286 212 286 212 271 c 2,66,-1
 212 232 l 2,67,68
 212 199 212 199 243 199 c 2,69,-1
 295 199 l 1,70,-1
 295 271 l 2,59,60
117 271 m 2,71,72
 117 303 117 303 87 303 c 2,73,-1
 65 303 l 2,74,75
 35 303 35 303 35 271 c 2,76,-1
 35 198 l 1,77,-1
 87 198 l 2,78,79
 102 198 102 198 109.5 207.5 c 128,-1,80
 117 217 117 217 117 232 c 2,81,-1
 117 271 l 2,71,72
EndSplineSet
EndChar

StartChar: uni0C35
Encoding: 3125 3125 159
Width: 346
GlyphClass: 2
Flags: W
LayerCount: 2
Back
Fore
SplineSet
224 0 m 2,0,-1
 182 0 l 2,1,2
 173 0 173 0 163.5 4.5 c 128,-1,3
 154 9 154 9 141 23 c 1,4,5
 128 9 128 9 119.5 4.5 c 128,-1,6
 111 0 111 0 106 0 c 2,7,-1
 61 0 l 2,8,9
 43 0 43 0 27.5 15.5 c 128,-1,10
 12 31 12 31 12 57 c 2,11,-1
 12 160 l 2,12,13
 12 184 12 184 27.5 200.5 c 128,-1,14
 43 217 43 217 61 217 c 2,15,-1
 102 217 l 2,16,17
 120 217 120 217 135.5 200.5 c 128,-1,18
 151 184 151 184 151 160 c 2,19,-1
 151 57 l 2,20,21
 151 24 151 24 184 24 c 2,22,-1
 222 24 l 2,23,24
 235 24 235 24 243 33 c 128,-1,25
 251 42 251 42 251 57 c 2,26,-1
 251 267 l 2,27,28
 251 299 251 299 222 299 c 2,29,-1
 13 299 l 1,30,-1
 13 323 l 1,31,-1
 90 323 l 1,32,-1
 90 395 l 2,33,34
 90 421 90 421 105 436.5 c 128,-1,35
 120 452 120 452 140 452 c 2,36,-1
 243 452 l 1,37,-1
 243 428 l 1,38,-1
 142 428 l 2,39,40
 127 428 127 428 119.5 418.5 c 128,-1,41
 112 409 112 409 112 395 c 2,42,-1
 112 323 l 1,43,-1
 224 323 l 2,44,45
 242 323 242 323 257.5 307 c 128,-1,46
 273 291 273 291 273 266 c 2,47,-1
 273 57 l 2,48,49
 273 31 273 31 257.5 15.5 c 128,-1,50
 242 0 242 0 224 0 c 2,0,-1
130 161 m 2,51,52
 130 178 130 178 120.5 185.5 c 128,-1,53
 111 193 111 193 100 193 c 2,54,-1
 63 193 l 2,55,56
 34 193 34 193 34 161 c 2,57,-1
 34 57 l 2,58,59
 34 42 34 42 42 33 c 128,-1,60
 50 24 50 24 63 24 c 2,61,-1
 100 24 l 2,62,63
 112 24 112 24 121 33 c 128,-1,64
 130 42 130 42 130 57 c 2,65,-1
 130 161 l 2,51,52
EndSplineSet
Substitution2: "Single Substitution lookup 21 subtable" uni0C35_uni0C4D.abvs
EndChar

StartChar: uni0C36
Encoding: 3126 3126 160
Width: 348
GlyphClass: 2
Flags: W
LayerCount: 2
Back
Fore
SplineSet
178 417 m 2,0,1
 168 417 168 417 159.5 410 c 128,-1,2
 151 403 151 403 151 389 c 2,3,-1
 151 321 l 1,4,-1
 233 321 l 2,5,6
 250 321 250 321 263 308 c 128,-1,7
 276 295 276 295 276 272 c 2,8,-1
 276 237 l 2,9,10
 276 231 276 231 273 223.5 c 128,-1,11
 270 216 270 216 259 202 c 1,12,13
 269 192 269 192 272.5 184 c 128,-1,14
 276 176 276 176 276 166 c 2,15,-1
 276 50 l 2,16,17
 276 27 276 27 263 13.5 c 128,-1,18
 250 0 250 0 233 0 c 2,19,-1
 156 0 l 2,20,21
 139 0 139 0 126 13.5 c 128,-1,22
 113 27 113 27 113 50 c 2,23,-1
 113 157 l 2,24,25
 113 162 113 162 115 168.5 c 128,-1,26
 117 175 117 175 123 190 c 1,27,-1
 61 190 l 2,28,29
 48 190 48 190 41.5 182 c 128,-1,30
 35 174 35 174 35 161 c 2,31,-1
 35 41 l 1,32,-1
 13 41 l 1,33,-1
 13 166 l 2,34,35
 13 186 13 186 26.5 199.5 c 128,-1,36
 40 213 40 213 55 213 c 2,37,-1
 227 213 l 2,38,39
 245 213 245 213 249.5 225 c 128,-1,40
 254 237 254 237 254 244 c 2,41,-1
 254 269 l 2,42,43
 254 297 254 297 228 297 c 2,44,-1
 93 297 l 1,45,-1
 93 321 l 1,46,-1
 130 321 l 1,47,-1
 130 393 l 2,48,49
 130 413 130 413 143 426 c 128,-1,50
 156 439 156 439 171 439 c 2,51,-1
 279 439 l 1,52,-1
 279 417 l 1,53,-1
 178 417 l 2,0,1
254 161 m 2,54,55
 254 174 254 174 247.5 182 c 128,-1,56
 241 190 241 190 228 190 c 2,57,-1
 163 190 l 2,58,59
 150 190 150 190 142 182.5 c 128,-1,60
 134 175 134 175 134 161 c 2,61,-1
 134 52 l 2,62,63
 134 38 134 38 142 31 c 128,-1,64
 150 24 150 24 163 24 c 2,65,-1
 228 24 l 2,66,67
 254 24 254 24 254 52 c 2,68,-1
 254 161 l 2,54,55
EndSplineSet
Substitution2: "Single Substitution lookup 21 subtable" uni0C36_uni0C4D.abvs
EndChar

StartChar: uni0C37
Encoding: 3127 3127 161
Width: 353
GlyphClass: 2
Flags: W
LayerCount: 2
Back
Fore
SplineSet
166 428 m 2,0,1
 153 428 153 428 147 420 c 128,-1,2
 141 412 141 412 141 400 c 2,3,-1
 141 348 l 2,4,5
 141 322 141 322 129 309 c 128,-1,6
 117 296 117 296 98 296 c 2,7,-1
 14 296 l 1,8,-1
 14 320 l 1,9,-1
 91 320 l 2,10,11
 119 320 119 320 119 348 c 2,12,-1
 119 398 l 2,13,14
 119 425 119 425 132.5 438.5 c 128,-1,15
 146 452 146 452 163 452 c 2,16,-1
 232 452 l 1,17,-1
 232 428 l 1,18,-1
 166 428 l 2,0,1
298 -55 m 2,19,20
 285 -55 285 -55 277 -47.5 c 128,-1,21
 269 -40 269 -40 269 -32 c 2,22,-1
 269 0 l 1,23,-1
 181 0 l 2,24,25
 175 0 175 0 165.5 4 c 128,-1,26
 156 8 156 8 142 22 c 1,27,28
 129 9 129 9 120.5 4.5 c 128,-1,29
 112 0 112 0 106 0 c 2,30,-1
 62 0 l 2,31,32
 44 0 44 0 28.5 15 c 128,-1,33
 13 30 13 30 13 57 c 2,34,-1
 13 160 l 2,35,36
 13 186 13 186 28.5 200 c 128,-1,37
 44 214 44 214 62 214 c 2,38,-1
 102 214 l 2,39,40
 122 214 122 214 137 200 c 128,-1,41
 152 186 152 186 152 160 c 2,42,-1
 152 57 l 2,43,44
 152 41 152 41 161 32 c 128,-1,45
 170 23 170 23 182 23 c 2,46,-1
 239 23 l 2,47,48
 254 23 254 23 261.5 32.5 c 128,-1,49
 269 42 269 42 269 57 c 2,50,-1
 269 265 l 2,51,52
 269 296 269 296 239 296 c 2,53,-1
 230 296 l 1,54,-1
 230 320 l 1,55,-1
 241 320 l 2,56,57
 261 320 261 320 276 304.5 c 128,-1,58
 291 289 291 289 291 265 c 0,59,60
 291 233 291 233 291 189 c 128,-1,61
 291 145 291 145 290.5 104.5 c 128,-1,62
 290 64 290 64 290 34 c 128,-1,63
 290 4 290 4 290 0 c 0,64,65
 290 -10 290 -10 293 -21 c 128,-1,66
 296 -32 296 -32 309 -37 c 1,67,-1
 309 -55 l 1,68,-1
 298 -55 l 2,19,20
130 160 m 2,69,70
 130 192 130 192 101 192 c 2,71,-1
 66 192 l 2,72,73
 35 192 35 192 35 160 c 2,74,-1
 35 57 l 2,75,76
 35 23 35 23 66 23 c 2,77,-1
 101 23 l 2,78,79
 114 23 114 23 122 33 c 128,-1,80
 130 43 130 43 130 57 c 2,81,-1
 130 160 l 2,69,70
EndSplineSet
Substitution2: "Single Substitution lookup 21 subtable" uni0C37_uni0C4D.abvs
EndChar

StartChar: uni0C38
Encoding: 3128 3128 162
Width: 359
GlyphClass: 2
Flags: W
LayerCount: 2
Back
Fore
SplineSet
166 428 m 2,0,1
 153 428 153 428 147 420 c 128,-1,2
 141 412 141 412 141 400 c 2,3,-1
 141 348 l 2,4,5
 141 321 141 321 129 308.5 c 128,-1,6
 117 296 117 296 98 296 c 2,7,-1
 14 296 l 1,8,-1
 14 320 l 1,9,-1
 91 320 l 2,10,11
 119 320 119 320 119 348 c 2,12,-1
 119 398 l 2,13,14
 119 425 119 425 132.5 438.5 c 128,-1,15
 146 452 146 452 163 452 c 2,16,-1
 232 452 l 1,17,-1
 232 428 l 1,18,-1
 166 428 l 2,0,1
240 296 m 1,19,-1
 240 320 l 1,20,-1
 241 320 l 2,21,22
 261 320 261 320 275.5 304.5 c 128,-1,23
 290 289 290 289 290 265 c 2,24,-1
 290 54 l 2,25,26
 290 28 290 28 274.5 12.5 c 128,-1,27
 259 -3 259 -3 241 -3 c 2,28,-1
 179 -3 l 2,29,30
 159 -3 159 -3 144 12.5 c 128,-1,31
 129 28 129 28 129 54 c 2,32,-1
 129 147 l 2,33,34
 129 161 129 161 120 169 c 128,-1,35
 111 177 111 177 101 177 c 2,36,-1
 66 177 l 2,37,38
 35 177 35 177 35 147 c 2,39,-1
 35 -3 l 1,40,-1
 13 -3 l 1,41,-1
 13 148 l 2,42,43
 13 173 13 173 27.5 187.5 c 128,-1,44
 42 202 42 202 62 202 c 2,45,-1
 101 202 l 2,46,47
 119 202 119 202 135 187.5 c 128,-1,48
 151 173 151 173 151 148 c 2,49,-1
 151 54 l 2,50,51
 151 39 151 39 160 30 c 128,-1,52
 169 21 169 21 181 21 c 2,53,-1
 239 21 l 2,54,55
 251 21 251 21 260 30 c 128,-1,56
 269 39 269 39 269 54 c 2,57,-1
 269 265 l 2,58,59
 269 281 269 281 260 288 c 128,-1,60
 251 295 251 295 240 296 c 1,19,-1
EndSplineSet
Substitution2: "Single Substitution lookup 21 subtable" uni0C38_uni0C4D.abvs
EndChar

StartChar: uni0C39
Encoding: 3129 3129 163
Width: 549
GlyphClass: 2
Flags: W
LayerCount: 2
Back
Fore
SplineSet
166 428 m 2,0,1
 153 428 153 428 147 420 c 128,-1,2
 141 412 141 412 141 400 c 2,3,-1
 141 348 l 2,4,5
 141 321 141 321 129 308.5 c 128,-1,6
 117 296 117 296 98 296 c 2,7,-1
 14 296 l 1,8,-1
 14 320 l 1,9,-1
 91 320 l 2,10,11
 119 320 119 320 119 348 c 2,12,-1
 119 398 l 2,13,14
 119 425 119 425 132.5 438.5 c 128,-1,15
 146 452 146 452 163 452 c 2,16,-1
 232 452 l 1,17,-1
 232 428 l 1,18,-1
 166 428 l 2,0,1
432 -1 m 2,19,-1
 407 -1 l 2,20,21
 389 -1 389 -1 372.5 15 c 128,-1,22
 356 31 356 31 356 56 c 2,23,-1
 356 158 l 2,24,25
 356 182 356 182 371.5 198.5 c 128,-1,26
 387 215 387 215 407 215 c 2,27,-1
 461 215 l 1,28,-1
 461 268 l 2,29,30
 461 284 461 284 451 292 c 128,-1,31
 441 300 441 300 430 300 c 2,32,-1
 289 300 l 1,33,34
 294 283 294 283 295 276.5 c 128,-1,35
 296 270 296 270 296 267 c 2,36,-1
 296 57 l 2,37,38
 296 32 296 32 280.5 16 c 128,-1,39
 265 0 265 0 245 0 c 2,40,-1
 184 0 l 2,41,42
 178 0 178 0 168.5 4.5 c 128,-1,43
 159 9 159 9 145 23 c 1,44,45
 133 10 133 10 123.5 5 c 128,-1,46
 114 0 114 0 108 0 c 2,47,-1
 64 0 l 2,48,49
 44 0 44 0 28.5 16 c 128,-1,50
 13 32 13 32 13 57 c 2,51,-1
 13 161 l 2,52,53
 13 187 13 187 28.5 202 c 128,-1,54
 44 217 44 217 64 217 c 2,55,-1
 104 217 l 2,56,57
 124 217 124 217 139.5 202 c 128,-1,58
 155 187 155 187 155 161 c 2,59,-1
 155 57 l 2,60,61
 155 42 155 42 162.5 33 c 128,-1,62
 170 24 170 24 186 24 c 2,63,-1
 243 24 l 2,64,65
 255 24 255 24 264 33 c 128,-1,66
 273 42 273 42 273 57 c 2,67,-1
 273 268 l 2,68,69
 273 284 273 284 263.5 292 c 128,-1,70
 254 300 254 300 243 300 c 2,71,-1
 240 300 l 1,72,-1
 240 324 l 1,73,-1
 245 324 l 1,74,-1
 432 324 l 2,75,76
 452 324 452 324 467.5 308 c 128,-1,77
 483 292 483 292 483 267 c 2,78,-1
 483 56 l 2,79,80
 483 31 483 31 467.5 15 c 128,-1,81
 452 -1 452 -1 432 -1 c 2,19,-1
461 191 m 1,82,-1
 409 191 l 2,83,84
 398 191 398 191 388.5 183 c 128,-1,85
 379 175 379 175 379 158 c 2,86,-1
 379 57 l 2,87,88
 379 42 379 42 388 33 c 128,-1,89
 397 24 397 24 409 24 c 2,90,-1
 430 24 l 2,91,92
 442 24 442 24 451.5 32.5 c 128,-1,93
 461 41 461 41 461 57 c 2,94,-1
 461 191 l 1,82,-1
133 160 m 2,95,96
 133 193 133 193 102 193 c 2,97,-1
 66 193 l 2,98,99
 35 193 35 193 35 160 c 2,100,-1
 35 57 l 2,101,102
 35 42 35 42 42.5 33 c 128,-1,103
 50 24 50 24 66 24 c 2,104,-1
 102 24 l 2,105,106
 118 24 118 24 125.5 33 c 128,-1,107
 133 42 133 42 133 57 c 2,108,-1
 133 160 l 2,95,96
EndSplineSet
Substitution2: "Single Substitution lookup 21 subtable" uni0C39_uni0C4D.abvs
EndChar

StartChar: uni0C3D
Encoding: 3133 3133 164
Width: 514
GlyphClass: 2
Flags: W
LayerCount: 2
Back
Fore
SplineSet
67 0 m 2,0,1
 47 0 47 0 31 15 c 128,-1,2
 15 30 15 30 15 56 c 2,3,-1
 15 92 l 1,4,-1
 15 101 l 2,5,6
 16 107 16 107 20 116 c 0,7,8
 25 126 25 126 34.5 134 c 128,-1,9
 44 142 44 142 63 145 c 2,10,-1
 199 164 l 2,11,12
 216 166 216 166 223.5 175 c 128,-1,13
 231 184 231 184 231 206 c 2,14,-1
 231 286 l 2,15,16
 231 303 231 303 222 311 c 128,-1,17
 213 319 213 319 198 319 c 2,18,-1
 170 319 l 1,19,-1
 170 267 l 2,20,21
 170 241 170 241 154.5 226 c 128,-1,22
 139 211 139 211 118 211 c 2,23,-1
 93 211 l 2,24,25
 73 211 73 211 57 226 c 128,-1,26
 41 241 41 241 41 267 c 2,27,-1
 41 286 l 2,28,29
 41 311 41 311 57 326 c 128,-1,30
 73 341 73 341 93 341 c 2,31,-1
 201 341 l 2,32,33
 221 341 221 341 237 326 c 128,-1,34
 253 311 253 311 253 285 c 2,35,-1
 253 201 l 2,36,37
 253 175 253 175 238 160.5 c 128,-1,38
 223 146 223 146 199 142 c 2,39,-1
 69 123 l 2,40,41
 54 121 54 121 45 113.5 c 128,-1,42
 36 106 36 106 36 92 c 2,43,-1
 36 56 l 2,44,45
 36 22 36 22 69 22 c 2,46,-1
 465 23 l 1,47,-1
 465 0 l 1,48,-1
 67 0 l 2,0,1
150 319 m 1,49,-1
 95 319 l 2,50,51
 80 319 80 319 71 311 c 128,-1,52
 62 303 62 303 62 286 c 2,53,-1
 62 267 l 2,54,55
 62 250 62 250 71 242 c 128,-1,56
 80 234 80 234 95 234 c 2,57,-1
 117 234 l 2,58,59
 128 234 128 234 139 242 c 128,-1,60
 150 250 150 250 150 267 c 2,61,-1
 150 319 l 1,49,-1
EndSplineSet
EndChar

StartChar: uni0C3E
Encoding: 3134 3134 165
Width: 207
GlyphClass: 2
Flags: W
LayerCount: 2
Back
Fore
SplineSet
83 -1 m 2,0,-1
 58 -1 l 2,1,2
 40 -1 40 -1 24.5 14.5 c 128,-1,3
 9 30 9 30 9 57 c 2,4,-1
 9 160 l 2,5,6
 9 187 9 187 24.5 202 c 128,-1,7
 40 217 40 217 58 217 c 2,8,-1
 112 217 l 1,9,-1
 112 278 l 2,10,11
 112 309 112 309 81 309 c 2,12,-1
 -321 309 l 1,13,-1
 -321 334 l 1,14,-1
 83 334 l 2,15,16
 103 334 103 334 118.5 318.5 c 128,-1,17
 134 303 134 303 134 276 c 2,18,-1
 134 57 l 2,19,20
 134 30 134 30 118.5 14.5 c 128,-1,21
 103 -1 103 -1 83 -1 c 2,0,-1
112 193 m 1,22,-1
 61 193 l 2,23,24
 31 193 31 193 31 161 c 2,25,-1
 31 58 l 2,26,27
 31 42 31 42 40 33.5 c 128,-1,28
 49 25 49 25 61 25 c 2,29,-1
 81 25 l 2,30,31
 97 25 97 25 104.5 34 c 128,-1,32
 112 43 112 43 112 58 c 2,33,-1
 112 193 l 1,22,-1
EndSplineSet
EndChar

StartChar: uni0C3F
Encoding: 3135 3135 166
Width: 12
GlyphClass: 2
Flags: W
LayerCount: 2
Back
Fore
SplineSet
-122 283 m 2,0,-1
 -184 283 l 1,1,-1
 -184 308 l 1,2,-1
 -120 308 l 2,3,4
 -91 308 -91 308 -91 335 c 2,5,-1
 -91 412 l 2,6,7
 -91 435 -91 435 -103 445.5 c 128,-1,8
 -115 456 -115 456 -148 451 c 1,9,-1
 -146 398 l 2,10,11
 -146 390 -146 390 -148 383 c 128,-1,12
 -150 376 -150 376 -156 369 c 0,13,14
 -160 364 -160 364 -169 360.5 c 128,-1,15
 -178 357 -178 357 -195 357 c 0,16,17
 -216 357 -216 357 -230.5 370 c 128,-1,18
 -245 383 -245 383 -245 414 c 0,19,20
 -245 473 -245 473 -193 473 c 2,21,-1
 -115 473 l 2,22,23
 -95 473 -95 473 -83.5 458.5 c 128,-1,24
 -72 444 -72 444 -72 424 c 2,25,-1
 -72 336 l 2,26,27
 -72 313 -72 313 -84 298 c 128,-1,28
 -96 283 -96 283 -122 283 c 2,0,-1
-164 450 m 1,29,-1
 -197 450 l 2,30,31
 -211 450 -211 450 -218.5 442 c 128,-1,32
 -226 434 -226 434 -226 414 c 0,33,34
 -226 397 -226 397 -220 388 c 128,-1,35
 -214 379 -214 379 -197 379 c 0,36,37
 -177 379 -177 379 -170.5 384 c 128,-1,38
 -164 389 -164 389 -164 403 c 2,39,-1
 -164 450 l 1,29,-1
EndSplineSet
EndChar

StartChar: uni0C40
Encoding: 3136 3136 167
Width: 12
GlyphClass: 2
Flags: W
LayerCount: 2
Back
Fore
SplineSet
-76 504 m 1,0,1
 -79 524 -79 524 -87.5 531 c 128,-1,2
 -96 538 -96 538 -110 538 c 0,3,4
 -130 538 -130 538 -138 528.5 c 128,-1,5
 -146 519 -146 519 -146 500 c 2,6,-1
 -146 464 l 1,7,-1
 -115 464 l 2,8,9
 -95 464 -95 464 -83.5 450 c 128,-1,10
 -72 436 -72 436 -72 418 c 2,11,-1
 -72 335 l 2,12,13
 -72 310 -72 310 -84 296 c 128,-1,14
 -96 282 -96 282 -122 282 c 2,15,-1
 -184 282 l 1,16,-1
 -184 306 l 1,17,-1
 -121 306 l 2,18,19
 -106 306 -106 306 -98.5 311 c 128,-1,20
 -91 316 -91 316 -91 333 c 2,21,-1
 -91 407 l 2,22,23
 -91 427 -91 427 -102.5 437.5 c 128,-1,24
 -114 448 -114 448 -149 445 c 1,25,-1
 -145 393 l 2,26,27
 -143 376 -143 376 -153.5 363.5 c 128,-1,28
 -164 351 -164 351 -195 351 c 0,29,30
 -216 351 -216 351 -230.5 365 c 128,-1,31
 -245 379 -245 379 -245 409 c 0,32,33
 -245 464 -245 464 -193 464 c 2,34,-1
 -166 464 l 1,35,-1
 -166 515 l 2,36,37
 -166 534 -166 534 -154.5 546.5 c 128,-1,38
 -143 559 -143 559 -114 559 c 2,39,-1
 -89 559 l 2,40,41
 -70 559 -70 559 -63.5 550 c 128,-1,42
 -57 541 -57 541 -57 518 c 2,43,-1
 -57 504 l 1,44,-1
 -76 504 l 1,0,1
-164 442 m 1,45,-1
 -197 442 l 2,46,47
 -213 442 -213 442 -219 434 c 128,-1,48
 -225 426 -225 426 -225 409 c 0,49,50
 -225 394 -225 394 -219.5 384.5 c 128,-1,51
 -214 375 -214 375 -197 375 c 0,52,53
 -178 375 -178 375 -171 379.5 c 128,-1,54
 -164 384 -164 384 -164 398 c 2,55,-1
 -164 442 l 1,45,-1
EndSplineSet
EndChar

StartChar: uni0C41
Encoding: 3137 3137 168
Width: 132
GlyphClass: 2
Flags: W
LayerCount: 2
Back
Fore
SplineSet
12 0 m 2,0,-1
 -29 0 l 2,1,2
 -48 0 -48 0 -63 18 c 1,3,-1
 -54 38 l 1,4,5
 -41 22 -41 22 -27 22 c 2,6,-1
 9 22 l 2,7,8
 25 22 25 22 33.5 31.5 c 128,-1,9
 42 41 42 41 42 58 c 2,10,-1
 42 271 l 2,11,12
 42 306 42 306 9 306 c 2,13,-1
 -1 306 l 1,14,-1
 -1 328 l 1,15,-1
 12 328 l 2,16,17
 30 328 30 328 45 312.5 c 128,-1,18
 60 297 60 297 60 270 c 2,19,-1
 60 58 l 2,20,21
 60 31 60 31 45 15.5 c 128,-1,22
 30 0 30 0 12 0 c 2,0,-1
EndSplineSet
EndChar

